<?xml version="1.0" standalone="no"?><!DOCTYPE svg PUBLIC "-//W3C//DTD SVG 1.1//EN" "http://www.w3.org/Graphics/SVG/1.1/DTD/svg11.dtd" ><svg xmlns="http://www.w3.org/2000/svg"><metadata></metadata><defs><font id="fonteditor" horiz-adv-x="1047"><font-face font-family="`n[OS" font-weight="400" font-stretch="normal" units-per-em="1000" panose-1="2 2 4 0 0 0 0 0 0 0" ascent="1151" descent="-286" x-height="0" bbox="-135 -273 1035 884" underline-thickness="0" underline-position="0" unicode-range="U+0022-ff5d" /><missing-glyph horiz-adv-x="1000" d="M100 880 L900 880 L900 -120 L100 -120 L100 880 ZM818 830 L182 830 L500 421 L818 830 ZM850 -29 L850 789 L532 380 L850 -29 ZM818 -70 L500 339 L182 -70 L818 -70 ZM150 -29 L468 380 L150 789 L150 -29 Z" /><glyph glyph-name="quotedbl" unicode="&quot;" d="M95 803 Q142 803 142 745 Q142 721 134 656 Q123 576 122 565 L111 477 L79 477 L68 565 Q48 741 48 745 Q48 803 95 803 ZM273 803 Q321 803 321 745 Q321 721 312 656 Q301 578 300 565 L289 477 L258 477 L247 565 Q226 719 226 745 Q226 803 273 803 Z" /><glyph glyph-name="percent" unicode="%" d="M205 -4 L715 729 L742 707 L233 -26 L205 -4 ZM148 494 Q148 300 228 300 Q308 300 308 494 Q308 687 228 687 Q148 687 148 494 ZM228 719 Q290 719 330 666 Q376 606 376 494 Q376 382 330 321 Q290 268 228 268 Q166 268 125 321 Q79 382 79 494 Q79 606 125 666 Q166 719 228 719 ZM628 215 Q628 22 709 22 Q788 22 788 215 Q788 409 709 409 Q628 409 628 215 ZM709 440 Q771 440 811 388 Q857 327 857 215 Q857 103 811 43 Q771 -10 709 -10 Q647 -10 606 43 Q560 103 560 215 Q560 327 606 388 Q647 440 709 440 Z" /><glyph glyph-name="parenleft" unicode="(" d="M164 302 Q164 48 333 -198 L312 -215 Q90 7 90 302 Q90 598 312 820 L333 802 Q164 557 164 302 Z" /><glyph glyph-name="parenright" unicode=")" d="M197 302 Q197 556 28 802 L49 820 Q271 598 271 302 Q271 7 49 -215 L28 -198 Q197 47 197 302 Z" /><glyph glyph-name="plus" unicode="+" d="M542 336 L315 336 L315 89 L262 89 L262 336 L35 336 L35 385 L262 385 L262 626 L315 626 L315 385 L542 385 L542 336 Z" /><glyph glyph-name="uniAD" unicode="-­&#x2011;" d="M43 301 L295 301 L295 243 L43 243 L43 301 Z" /><glyph glyph-name="period" unicode="." d="M163 -13 Q135 -13 116 7 Q97 26 97 53 Q97 81 116 101 Q135 121 163 121 Q191 121 210 101 Q229 81 229 53 Q229 26 210 7 Q191 -13 163 -13 Z" /><glyph glyph-name="zero" unicode="0" d="M130 371 Q130 26 271 26 Q409 26 409 371 Q409 703 271 703 Q130 703 130 371 ZM271 744 Q365 744 424 659 Q492 561 492 371 Q492 173 424 72 Q366 -14 271 -14 Q175 -14 116 72 Q47 173 47 371 Q47 561 116 659 Q176 744 271 744 Z" /><glyph glyph-name="one" unicode="1" d="M478 32 L478 0 L83 0 L83 32 L241 51 Q243 171 243 229 L243 664 L93 647 L93 683 L309 739 L324 728 L320 572 L320 229 Q320 171 322 51 L478 32 Z" /><glyph glyph-name="two" unicode="2" d="M494 75 L494 0 L53 0 L53 60 Q101 113 225 258 Q379 436 379 548 Q379 618 342 660 Q305 703 241 703 Q206 703 175 694 L150 617 Q133 555 97 555 Q67 555 49 586 Q61 662 123 704 Q181 744 263 744 Q361 744 413 691 Q461 641 461 553 Q461 486 416 416 Q376 354 253 221 Q239 205 196 159 Q145 105 118 75 L494 75 Z" /><glyph glyph-name="three" unicode="3" d="M167 633 Q153 574 113 574 Q78 574 66 609 Q82 675 139 711 Q191 744 266 744 Q358 744 413 695 Q467 647 467 566 Q467 432 317 385 Q490 354 490 192 Q490 102 424 44 Q357 -14 252 -14 Q79 -14 48 132 Q64 163 95 163 Q130 163 149 99 L168 37 Q202 26 240 26 Q319 26 365 74 Q409 120 409 196 Q409 274 365 318 Q320 363 233 363 L182 363 L182 408 L225 408 Q301 408 345 448 Q389 489 389 561 Q389 703 251 703 Q218 703 186 695 L167 633 Z" /><glyph glyph-name="four" unicode="4" d="M330 290 L330 645 L83 290 L330 290 ZM523 234 L405 234 L405 0 L330 0 L330 234 L29 234 L29 280 L353 740 L405 740 L405 290 L523 290 L523 234 Z" /><glyph glyph-name="five" unicode="5" d="M145 436 Q199 454 258 454 Q363 454 426 395 Q490 334 490 226 Q490 119 422 53 Q353 -14 241 -14 Q76 -14 41 130 Q53 163 88 163 Q124 163 141 102 L161 37 Q200 26 236 26 Q319 26 365 78 Q410 129 410 217 Q410 305 362 354 Q315 401 235 401 Q174 401 126 384 L98 390 L121 729 L472 729 L472 655 L160 655 L145 436 Z" /><glyph glyph-name="six" unicode="6" d="M278 26 Q340 26 376 73 Q413 122 413 212 Q413 390 278 390 Q189 390 128 330 L128 308 Q128 172 168 98 Q207 26 278 26 ZM466 717 Q160 647 131 369 Q204 445 297 445 Q385 445 439 386 Q494 326 494 226 Q494 114 433 49 Q373 -14 276 -14 Q169 -14 108 68 Q47 151 47 296 Q47 470 154 592 Q267 721 461 744 L466 717 Z" /><glyph glyph-name="seven" unicode="7" d="M490 729 L490 683 L229 0 L158 0 L148 10 L434 655 L53 655 L53 729 L490 729 Z" /><glyph glyph-name="eight" unicode="8" d="M272 25 Q336 25 375 64 Q413 103 413 166 Q413 220 377 260 Q338 302 242 346 Q125 276 125 174 Q125 108 165 67 Q206 25 272 25 ZM146 580 Q146 471 289 403 Q388 475 388 576 Q388 630 358 665 Q325 703 270 703 Q218 703 183 670 Q146 636 146 580 ZM321 388 Q489 310 489 176 Q489 92 427 39 Q365 -14 270 -14 Q169 -14 111 33 Q50 81 50 166 Q50 283 210 362 Q74 434 74 567 Q74 646 132 696 Q188 744 272 744 Q355 744 406 696 Q455 649 455 575 Q455 461 321 388 Z" /><glyph glyph-name="nine" unicode="9" d="M272 347 Q346 347 400 398 Q402 430 402 446 Q402 573 361 640 Q323 703 258 703 Q198 703 159 657 Q117 607 117 522 Q117 436 162 390 Q203 347 272 347 ZM85 14 Q356 105 395 353 Q338 295 247 295 Q156 295 97 354 Q36 414 37 514 Q37 617 100 681 Q162 744 262 744 Q364 744 424 666 Q484 588 484 455 Q484 284 392 163 Q290 31 93 -18 L85 14 Z" /><glyph glyph-name="semicolon" unicode=";" d="M163 398 Q135 398 116 418 Q97 437 97 464 Q97 492 116 512 Q135 532 163 532 Q191 532 210 512 Q229 492 229 464 Q229 437 210 418 Q191 398 163 398 ZM133 -7 Q97 23 97 61 Q97 121 153 121 Q182 121 213 93 Q224 54 224 22 Q224 -63 166 -138 Q113 -206 35 -239 L22 -210 Q142 -145 171 -36 L133 -7 Z" /><glyph glyph-name="less" unicode="&lt;" d="M121 360 L510 137 L485 93 L64 340 L64 379 L485 626 L510 583 L121 360 Z" /><glyph glyph-name="equal" unicode="=" d="M35 227 L35 276 L542 276 L542 227 L35 227 ZM35 445 L35 494 L542 494 L542 445 L35 445 Z" /><glyph glyph-name="greater" unicode="&gt;" d="M512 380 L512 341 L91 95 L66 138 L455 361 L66 584 L91 627 L512 380 Z" /><glyph glyph-name="question" unicode="?" d="M158 109 Q183 109 202 91 Q220 72 220 48 Q220 23 202 5 Q183 -13 158 -13 Q133 -13 115 5 Q97 23 97 48 Q97 72 115 91 Q133 109 158 109 ZM143 644 Q76 655 76 696 Q76 735 125 748 Q212 735 284 678 Q371 608 371 513 Q371 412 267 370 L232 355 Q196 341 185 328 Q175 316 175 289 L176 221 L145 221 L132 265 Q116 323 116 338 Q116 382 201 415 L253 436 Q324 468 324 529 Q323 576 289 619 L143 644 Z" /><glyph glyph-name="A" unicode="a" d="M451 287 L336 633 L222 287 L451 287 ZM710 36 L710 0 L421 0 L421 36 L531 47 L465 246 L208 246 L143 49 L248 36 L248 0 L8 0 L8 36 L98 48 L329 736 L385 736 L620 46 L710 36 Z" /><glyph glyph-name="B" unicode="b" d="M326 41 Q536 41 536 198 Q536 358 312 358 L242 358 Q242 139 245 41 L326 41 ZM245 688 Q242 594 242 398 L305 398 Q504 398 504 550 Q504 622 461 655 Q418 688 326 688 L245 688 ZM353 729 Q465 729 528 680 Q588 633 588 553 Q588 417 417 380 Q625 353 625 198 Q625 115 560 61 Q485 0 346 0 L52 0 L52 36 L156 47 Q159 143 159 338 L159 393 Q159 587 156 683 L52 694 L52 729 L353 729 Z" /><glyph glyph-name="C" unicode="c" d="M641 196 L638 38 Q544 -16 421 -16 Q258 -16 156 91 Q55 196 55 365 Q55 531 159 638 Q263 746 421 746 Q537 746 628 692 L632 535 L577 535 L553 670 Q495 701 432 701 Q309 701 233 613 Q153 522 153 365 Q153 206 229 116 Q303 29 425 29 Q500 29 563 60 L587 196 L641 196 Z" /><glyph glyph-name="D" unicode="d" d="M336 41 Q473 41 547 127 Q619 211 619 364 Q619 522 548 605 Q478 688 347 688 L245 688 Q242 592 242 390 L242 354 Q242 140 245 41 L336 41 ZM363 729 Q525 729 619 635 Q715 538 715 364 Q715 194 611 95 Q511 0 345 0 L52 0 L52 36 L156 47 Q159 142 159 354 L159 390 Q159 587 156 683 L52 694 L52 729 L363 729 Z" /><glyph glyph-name="E" unicode="e" d="M614 189 L607 0 L52 0 L52 36 L156 47 Q159 142 159 337 L159 392 Q159 587 156 683 L52 694 L52 729 L587 729 L594 541 L545 541 L518 685 L245 685 Q242 591 242 391 L417 391 L432 499 L473 499 L473 246 L432 246 L418 351 L242 351 Q242 142 245 45 L538 45 L564 189 L614 189 Z" /><glyph glyph-name="F" unicode="f" d="M245 685 Q242 591 242 391 L424 391 L437 499 L479 499 L479 237 L437 237 L423 351 L242 351 Q242 143 245 47 L352 36 L352 0 L52 0 L52 36 L156 47 Q159 142 159 337 L159 392 Q159 587 156 683 L52 694 L52 729 L587 729 L595 541 L545 541 L519 685 L245 685 Z" /><glyph glyph-name="G" unicode="g" d="M727 311 L658 304 Q655 205 655 98 L655 49 Q535 -16 420 -16 Q258 -16 156 91 Q55 198 55 365 Q55 531 158 638 Q261 746 423 746 Q549 746 641 690 L645 533 L589 533 L567 665 Q507 701 432 701 Q307 701 231 612 Q153 521 153 364 Q153 208 229 118 Q304 29 435 29 Q501 29 571 57 L571 99 Q571 200 568 302 L451 311 L451 347 L727 347 L727 311 Z" /><glyph glyph-name="H" unicode="h" d="M703 683 Q701 588 701 392 L701 337 Q701 143 703 47 L808 36 L808 0 L510 0 L510 36 L614 46 Q616 140 616 355 L242 355 Q242 141 245 47 L349 36 L349 0 L52 0 L52 36 L156 47 Q159 142 159 337 L159 392 Q159 587 156 683 L52 694 L52 729 L349 729 L349 694 L245 683 Q242 590 242 397 L616 397 Q616 589 614 683 L510 694 L510 729 L808 729 L808 694 L703 683 Z" /><glyph glyph-name="I" unicode="i" d="M245 683 Q242 588 242 392 L242 337 Q242 143 245 47 L349 36 L349 0 L52 0 L52 36 L156 47 Q159 142 159 337 L159 392 Q159 587 156 683 L52 694 L52 729 L349 729 L349 694 L245 683 Z" /><glyph glyph-name="J" unicode="j" d="M363 694 L259 683 Q257 588 257 391 L257 218 Q257 75 246 8 Q232 -78 173 -127 Q117 -173 43 -173 Q-30 -173 -42 -127 Q-35 -80 17 -80 Q53 -80 93 -110 L119 -129 Q178 -83 178 29 L176 188 Q173 388 170 682 L55 694 L55 729 L363 729 L363 694 Z" /><glyph glyph-name="K" unicode="k" d="M722 36 L722 0 L450 0 L450 36 L546 46 L358 389 L240 247 Q240 120 242 47 L349 36 L349 0 L52 0 L52 36 L156 47 Q159 142 159 337 L159 392 Q159 587 156 683 L52 694 L52 729 L349 729 L349 694 L242 682 Q240 588 240 392 L240 308 L545 680 L452 694 L452 729 L701 729 L701 694 L600 680 L408 449 L634 46 L722 36 Z" /><glyph glyph-name="L" unicode="l" d="M594 199 L585 0 L52 0 L52 36 L156 47 Q159 143 159 336 L159 392 Q159 588 156 683 L52 694 L52 729 L349 729 L349 694 L245 683 Q242 587 242 387 L242 317 Q242 140 245 45 L509 45 L541 199 L594 199 Z" /><glyph glyph-name="M" unicode="m" d="M823 683 Q821 588 821 392 L821 337 Q821 143 823 46 L927 36 L927 0 L638 0 L638 36 L736 46 Q737 101 737 190 L739 635 L487 0 L446 0 L184 631 L189 403 L189 48 L286 36 L286 0 L45 0 L45 36 L142 48 L143 682 L42 694 L42 729 L228 729 L483 109 L729 729 L927 729 L927 694 L823 683 Z" /><glyph glyph-name="N" unicode="n" d="M755 694 L662 681 L661 -8 L628 -8 L183 609 L184 49 L300 36 L300 0 L43 0 L43 36 L137 48 L138 672 L129 685 L47 695 L47 729 L203 729 L617 150 L616 680 L499 694 L499 729 L755 729 L755 694 Z" /><glyph glyph-name="O" unicode="o" d="M153 365 Q153 225 210 132 Q273 28 385 28 Q496 28 559 132 Q615 225 615 365 Q615 505 559 598 Q496 701 385 701 Q273 701 210 598 Q153 505 153 365 ZM385 746 Q520 746 612 647 Q712 540 712 365 Q712 194 612 86 Q519 -16 385 -16 Q249 -16 156 83 Q55 190 55 365 Q55 535 156 644 Q251 746 385 746 Z" /><glyph glyph-name="P" unicode="p" d="M245 688 Q242 592 242 392 L242 335 L314 335 Q517 335 517 515 Q517 688 324 688 L245 688 ZM242 295 Q242 131 245 47 L352 36 L352 0 L52 0 L52 36 L156 47 Q159 142 159 337 L159 392 Q159 587 156 683 L52 694 L52 729 L340 729 Q470 729 539 670 Q605 614 605 515 Q605 416 536 359 Q458 295 305 295 L242 295 Z" /><glyph glyph-name="Q" unicode="q" d="M153 365 Q153 225 210 132 Q273 28 385 28 Q496 28 559 132 Q615 225 615 365 Q615 505 559 598 Q496 701 385 701 Q273 701 210 598 Q153 505 153 365 ZM671 -197 Q618 -230 541 -230 Q446 -230 390 -164 Q338 -104 337 -12 Q217 6 139 102 Q55 206 55 365 Q55 535 156 644 Q251 746 385 746 Q520 746 612 647 Q712 540 712 365 Q712 206 625 100 Q544 1 421 -14 Q422 -94 463 -139 Q504 -183 573 -183 Q612 -183 661 -167 L671 -197 Z" /><glyph glyph-name="R" unicode="r" d="M341 379 Q426 379 475 425 Q521 468 521 539 Q521 688 348 688 L245 688 Q242 592 242 379 L341 379 ZM689 36 L689 0 Q653 -10 612 -10 Q526 -10 509 53 L459 233 Q442 297 410 319 Q380 339 309 339 L242 339 Q242 141 245 47 L349 36 L349 0 L52 0 L52 36 L156 47 Q159 142 159 337 L159 392 Q159 587 156 683 L52 694 L52 729 L350 729 Q473 729 540 679 Q608 629 608 538 Q608 470 562 420 Q512 368 425 352 Q510 333 545 222 L599 45 L689 36 Z" /><glyph glyph-name="S" unicode="s" d="M310 408 Q420 364 466 314 Q510 264 510 188 Q510 94 438 38 Q369 -16 257 -16 Q139 -16 49 42 L54 192 L105 192 L129 60 Q183 29 252 29 Q336 29 384 65 Q434 103 434 171 Q434 224 400 257 Q368 289 288 321 L247 337 Q64 411 64 550 Q64 641 133 695 Q198 746 300 746 Q398 746 476 689 L471 549 L418 549 L394 676 Q352 701 298 701 Q227 701 185 668 Q140 634 140 571 Q140 473 267 424 L310 408 Z" /><glyph glyph-name="T" unicode="t" d="M371 685 Q368 590 368 392 L368 337 Q368 143 371 47 L486 36 L486 0 L167 0 L167 36 L283 47 Q285 142 285 337 L285 392 Q285 589 283 685 L100 685 L72 539 L22 539 L30 729 L622 729 L632 539 L582 539 L554 685 L371 685 Z" /><glyph glyph-name="U" unicode="u" d="M752 694 L657 682 L655 290 Q655 -16 401 -16 Q280 -16 213 53 Q141 127 141 275 L141 391 Q141 587 139 684 L46 694 L46 729 L340 729 L340 694 L227 682 Q226 587 226 391 L226 299 Q226 48 414 48 Q516 48 562 110 Q611 174 611 318 L610 680 L492 694 L492 729 L752 729 L752 694 Z" /><glyph glyph-name="V" unicode="v" d="M716 695 L620 682 L390 -8 L352 -8 L100 684 L12 694 L12 729 L299 729 L299 690 L190 681 L386 117 L570 680 L466 690 L466 729 L716 729 L716 695 Z" /><glyph glyph-name="W" unicode="w" d="M1035 694 L939 681 L755 -8 L716 -8 L525 583 L342 -8 L304 -8 L109 684 L15 694 L15 729 L299 729 L299 694 L196 682 L340 140 L514 682 L404 694 L404 729 L687 729 L687 694 L576 681 L747 136 L891 680 L787 694 L787 729 L1035 729 L1035 694 Z" /><glyph glyph-name="X" unicode="x" d="M688 36 L688 0 L396 0 L396 36 L499 46 L336 321 L168 49 L263 36 L263 0 L15 0 L15 36 L118 49 L315 356 L120 683 L24 694 L24 729 L318 729 L318 694 L214 683 L366 429 L520 681 L420 694 L420 729 L669 729 L669 694 L571 681 L387 394 L594 46 L688 36 Z" /><glyph glyph-name="Y" unicode="y" d="M388 288 Q388 119 390 47 L505 36 L505 0 L186 0 L186 36 L301 47 Q303 118 303 287 L106 684 L21 694 L21 729 L311 729 L311 694 L202 682 L367 334 L532 681 L427 694 L427 729 L675 729 L675 694 L579 680 L388 288 Z" /><glyph glyph-name="Z" unicode="z" d="M574 192 L566 0 L24 0 L24 35 L456 685 L121 685 L90 539 L37 539 L46 729 L552 729 L552 696 L123 45 L490 45 L522 192 L574 192 Z" /><glyph glyph-name="a" unicode="a" d="M360 287 Q291 268 248 251 Q133 207 133 132 Q133 45 225 45 Q273 45 360 114 L360 287 ZM541 38 Q508 -12 454 -12 Q377 -12 362 77 Q272 -14 196 -14 Q133 -14 94 20 Q52 56 52 118 Q52 171 89 207 Q129 248 227 283 Q305 307 360 319 L360 351 Q360 431 334 461 Q310 488 251 488 Q213 488 181 477 L159 403 Q147 359 110 359 Q69 359 66 397 Q82 458 137 493 Q191 528 271 528 Q356 528 395 487 Q436 444 436 348 L436 111 Q436 35 479 35 Q502 35 524 59 L541 38 Z" /><glyph glyph-name="b" unicode="b" d="M201 101 Q266 37 340 37 Q407 37 449 89 Q495 147 495 257 Q495 363 453 422 Q413 478 345 478 Q274 478 201 411 L201 101 ZM198 445 Q273 528 368 528 Q459 528 517 457 Q576 384 576 263 Q576 140 514 63 Q453 -14 355 -14 Q264 -14 199 65 L191 -10 L37 0 L37 32 L123 45 Q125 155 125 228 L125 725 L34 734 L34 765 L187 807 L202 798 L198 644 L198 445 Z" /><glyph glyph-name="c" unicode="c" d="M489 114 Q435 -14 291 -14 Q181 -14 115 59 Q49 133 49 257 Q49 380 125 456 Q196 528 298 528 Q367 528 419 491 Q472 454 486 395 Q480 358 442 358 Q403 358 391 401 L369 476 Q333 488 301 488 Q224 488 177 429 Q128 368 128 264 Q128 161 180 101 Q230 42 312 42 Q412 42 468 124 L489 114 Z" /><glyph glyph-name="d" unicode="d" d="M426 416 Q360 478 295 478 Q224 478 181 425 Q132 366 132 254 Q132 145 178 88 Q220 36 292 36 Q364 36 426 106 L426 416 ZM598 32 L598 0 L434 -10 L428 66 Q365 -14 272 -14 Q174 -14 112 61 Q51 135 51 252 Q51 376 117 453 Q181 528 283 528 Q367 528 429 455 L429 726 L335 734 L335 765 L491 807 L505 798 L502 645 L502 43 L598 32 Z" /><glyph glyph-name="e" unicode="e" d="M367 301 Q421 301 421 355 Q421 409 385 448 Q347 488 291 488 Q232 488 189 442 Q142 391 133 301 L367 301 ZM132 263 Q133 156 185 97 Q234 42 317 42 Q409 42 474 120 L495 104 Q428 -14 292 -14 Q184 -14 119 56 Q51 128 51 254 Q51 376 124 454 Q194 528 296 528 Q384 528 440 473 Q496 417 496 324 Q496 283 489 262 L132 263 Z" /><glyph glyph-name="f" unicode="f" d="M134 517 Q144 683 210 752 Q268 817 355 817 Q438 817 454 764 Q451 722 398 722 Q363 722 323 753 L294 776 Q265 761 247 732 Q203 667 207 514 L364 514 L364 468 L209 468 L209 228 Q209 167 211 45 L313 32 L313 0 L38 0 L38 32 L131 45 Q133 167 133 228 L133 468 L37 468 L37 505 L134 517 Z" /><glyph glyph-name="g" unicode="g" d="M258 207 Q313 207 345 248 Q377 287 377 352 Q377 415 346 453 Q315 492 261 492 Q207 492 174 452 Q142 413 142 349 Q142 285 173 246 Q204 207 258 207 ZM221 -13 Q192 -13 168 -10 Q118 -59 118 -113 Q118 -221 268 -221 Q358 -221 410 -186 Q459 -153 459 -101 Q459 -13 349 -13 L221 -13 ZM533 457 L419 458 Q451 415 451 350 Q451 266 397 218 Q345 171 260 171 Q215 171 176 185 Q142 142 142 108 Q142 55 215 55 L362 55 Q527 55 527 -78 Q527 -153 462 -205 Q390 -262 267 -262 Q156 -262 98 -224 Q43 -189 43 -126 Q43 -53 148 -3 Q78 16 78 77 Q78 130 151 196 Q68 243 68 350 Q68 433 123 481 Q176 528 261 528 Q340 528 392 488 L516 527 L533 516 L533 457 Z" /><glyph glyph-name="h" unicode="h" d="M620 32 L620 0 L376 0 L376 32 L461 44 Q463 156 463 228 L463 328 Q463 404 439 436 Q417 466 367 466 Q285 466 201 386 L201 228 Q201 156 203 44 L282 32 L282 0 L37 0 L37 32 L123 45 Q125 155 125 228 L125 726 L34 734 L34 765 L187 807 L202 798 L198 644 L198 423 Q293 528 401 528 Q471 528 504 483 Q538 436 538 332 L538 228 Q538 155 540 45 L620 32 Z" /><glyph glyph-name="i" unicode="i" d="M164 663 Q137 663 119 680 Q101 697 101 724 Q101 751 119 768 Q137 785 164 785 Q192 785 210 768 Q228 751 228 724 Q228 697 210 680 Q191 663 164 663 ZM285 32 L285 0 L41 0 L41 32 L127 45 Q129 155 129 228 L129 284 Q129 386 127 436 L35 442 L35 475 L192 527 L207 517 L204 375 L204 228 Q204 155 206 45 L285 32 Z" /><glyph glyph-name="j" unicode="j" d="M189 527 L203 517 L200 375 L200 118 Q200 -142 139 -211 Q83 -273 8 -273 Q-76 -273 -83 -221 Q-69 -182 -25 -182 Q11 -182 49 -210 L74 -227 Q90 -216 100 -193 Q127 -138 127 105 L127 283 Q127 366 124 436 L35 442 L35 475 L189 527 ZM163 785 Q190 785 208 768 Q226 751 226 724 Q226 697 208 680 Q190 663 163 663 Q136 663 118 680 Q99 697 99 724 Q99 751 118 768 Q135 785 163 785 Z" /><glyph glyph-name="k" unicode="k" d="M591 32 L591 0 L453 0 L279 280 L201 201 Q201 145 203 45 L290 32 L290 0 L33 0 L33 32 L123 45 Q125 163 125 228 L125 726 L34 734 L34 765 L189 807 L204 798 L201 644 L201 254 L403 463 L315 479 L315 514 L564 514 L564 479 L463 466 L332 334 L517 42 L591 32 Z" /><glyph glyph-name="l" unicode="l" d="M293 32 L293 0 L30 0 L30 32 L123 45 Q125 163 125 228 L125 726 L34 734 L34 765 L189 807 L204 798 L201 644 L201 228 Q201 163 203 45 L293 32 Z" /><glyph glyph-name="m" unicode="m" d="M942 32 L942 0 L699 0 L699 32 L784 44 Q786 156 786 228 L786 330 Q786 405 762 437 Q739 465 690 465 Q612 465 531 385 Q534 361 534 332 L534 228 Q534 155 536 45 L615 32 L615 0 L372 0 L372 32 L457 44 Q459 154 459 228 L459 328 Q459 403 436 435 Q414 465 366 465 Q293 465 208 387 L208 228 Q208 155 210 45 L289 32 L289 0 L45 0 L45 32 L129 44 Q132 128 132 228 L132 283 Q132 343 128 435 L39 442 L39 474 L183 527 L197 517 L205 425 Q298 528 398 528 Q501 528 525 423 Q611 528 724 528 Q861 528 861 340 L861 228 Q861 155 863 45 L942 32 Z" /><glyph glyph-name="n" unicode="n" d="M624 32 L624 0 L379 0 L379 32 L464 44 Q466 154 466 228 L466 328 Q466 404 443 436 Q421 466 372 466 Q295 466 208 386 L208 228 Q208 155 210 45 L289 32 L289 0 L45 0 L45 32 L129 44 Q132 128 132 228 L132 283 Q132 341 128 435 L39 442 L39 474 L183 527 L197 517 L205 425 Q298 528 405 528 Q542 528 542 332 L542 228 Q542 128 545 45 L624 32 Z" /><glyph glyph-name="o" unicode="o" d="M297 -14 Q196 -14 128 53 Q51 127 51 255 Q51 384 128 460 Q197 528 297 528 Q396 528 465 460 Q542 384 542 255 Q542 127 466 53 Q397 -14 297 -14 ZM297 26 Q373 26 415 84 Q458 144 458 255 Q458 366 415 427 Q373 488 297 488 Q221 488 179 427 Q136 366 136 255 Q136 144 179 84 Q220 26 297 26 Z" /><glyph glyph-name="p" unicode="p" d="M209 97 Q269 37 341 37 Q410 37 452 88 Q499 145 499 253 Q499 360 457 421 Q417 478 350 478 Q281 478 209 413 L209 97 ZM204 445 Q278 528 373 528 Q462 528 520 456 Q579 382 579 261 Q579 136 517 60 Q455 -14 358 -14 Q267 -14 205 61 L205 -32 Q205 -125 208 -217 L311 -230 L311 -262 L40 -262 L40 -230 L131 -217 Q133 -97 133 -34 L133 282 Q133 372 129 435 L39 442 L39 474 L184 527 L198 517 L204 445 Z" /><glyph glyph-name="q" unicode="q" d="M429 413 Q359 478 293 478 Q223 478 180 424 Q132 364 132 253 Q132 145 178 88 Q220 36 292 36 Q366 36 429 109 L429 413 ZM598 -230 L598 -262 L328 -262 L328 -230 L431 -217 Q433 -93 433 -32 L433 74 Q371 -14 271 -14 Q173 -14 112 60 Q51 134 51 251 Q51 375 116 452 Q180 528 279 528 Q369 528 432 450 L494 526 L509 517 L505 371 L505 -32 Q505 -125 508 -217 L598 -230 Z" /><glyph glyph-name="r" unicode="r" d="M207 386 Q265 528 370 528 Q428 528 446 492 Q446 424 390 424 Q360 424 326 453 L312 465 Q245 421 208 319 L208 228 Q208 157 210 45 L302 32 L302 0 L47 0 L47 32 L129 44 Q132 128 132 228 L132 283 Q132 341 128 435 L39 442 L39 474 L183 527 L197 517 L207 386 Z" /><glyph glyph-name="s" unicode="s" d="M277 291 Q423 237 423 137 Q423 74 372 32 Q315 -14 218 -14 Q141 -14 58 25 L54 142 L102 142 L124 45 Q167 26 218 26 Q349 26 349 117 Q349 180 245 218 L195 237 Q63 285 63 382 Q63 443 110 484 Q161 528 246 528 Q322 528 396 485 L392 377 L348 377 L330 466 Q290 488 246 488 Q136 488 136 405 Q136 368 159 346 Q180 327 238 305 L277 291 Z" /><glyph glyph-name="t" unicode="t" d="M346 36 Q302 -14 226 -14 Q108 -14 108 112 L109 150 L109 468 L11 468 L11 505 L113 517 L137 665 L192 665 L186 514 L336 514 L336 468 L185 468 L185 116 Q185 32 250 32 Q285 32 326 61 L346 36 Z" /><glyph glyph-name="u" unicode="u" d="M597 32 L597 0 L455 -9 L447 91 Q362 -14 252 -14 Q109 -14 110 184 L113 462 L30 476 L30 508 L180 521 L190 510 L185 358 L185 190 Q185 114 209 81 Q232 50 282 50 Q368 50 445 130 L447 462 L365 476 L365 508 L513 521 L524 510 L520 358 L520 44 L597 32 Z" /><glyph glyph-name="v" unicode="v" d="M537 479 L474 467 L296 -7 L258 -7 L63 470 L-3 479 L-3 514 L247 514 L247 479 L151 468 L294 90 L426 466 L335 479 L335 514 L537 514 L537 479 Z" /><glyph glyph-name="w" unicode="w" d="M821 479 L758 467 L600 -7 L566 -7 Q462 271 420 402 L271 -7 L238 -7 L64 469 L-1 479 L-1 514 L238 514 L238 479 L150 468 L272 104 L403 467 L320 479 L320 514 L549 514 L549 479 L465 467 L599 104 L709 466 L622 479 L622 514 L821 514 L821 479 Z" /><glyph glyph-name="x" unicode="x" d="M553 32 L553 0 L304 0 L303 32 L387 44 L266 218 L136 45 L221 32 L221 0 L10 0 L10 32 L81 44 L244 249 L92 469 L18 479 L18 514 L250 514 L250 479 L177 468 L293 302 L419 467 L342 479 L342 514 L542 514 L542 479 L477 469 L316 269 L476 44 L553 32 Z" /><glyph glyph-name="y" unicode="y" d="M552 483 L491 471 L307 -16 Q210 -273 89 -273 Q51 -273 25 -256 Q-3 -238 -4 -210 Q5 -170 59 -170 Q96 -170 134 -207 L142 -215 Q210 -167 253 -49 L262 -26 L64 474 L0 483 L0 514 L248 514 L248 482 L152 471 L299 73 L441 470 L343 483 L343 514 L552 514 L552 483 Z" /><glyph glyph-name="z" unicode="z" d="M465 171 L454 0 L38 0 L38 33 L359 476 L117 476 L87 354 L43 359 L51 514 L448 514 L448 482 L128 38 L388 38 L421 171 L465 171 Z" /><glyph glyph-name="uni3001" unicode="&#x3001;" d="M50 173 Q206 124 266 36 Q290 1 290 -31 Q290 -76 249 -76 Q221 -76 201 -34 Q145 81 39 156 L50 173 Z" /><glyph glyph-name="uni3010" unicode="&#x3010;" d="M963 -83 L620 -83 L620 843 L963 843 L963 826 Q841 771 772 659 Q700 541 700 380 Q700 219 772 101 Q841 -11 963 -66 L963 -83 Z" /><glyph glyph-name="uni3011" unicode="&#x3011;" d="M37 -66 Q159 -11 228 101 Q300 219 300 380 Q300 541 228 659 Q159 771 37 826 L37 843 L380 843 L380 -83 L37 -83 L37 -66 Z" /><glyph glyph-name="uni2F00" unicode="&#x2f00;&#x4e00;" d="M777 431 L840 514 Q913 455 957 413 Q953 397 927 397 L57 397 L47 431 L777 431 Z" /><glyph glyph-name="uni4E03" unicode="&#x4e03;" d="M854 620 Q918 583 958 557 Q956 540 936 537 L419 447 L419 78 Q419 53 433 44 Q449 34 494 34 L639 34 Q751 34 780 38 Q799 41 807 53 Q820 81 847 210 L860 210 L863 47 Q896 37 896 17 Q896 -12 847 -21 Q796 -31 637 -31 L489 -31 Q411 -31 382 -12 Q353 8 353 61 L353 435 L53 383 L41 409 L353 464 L353 826 L455 814 Q453 791 419 787 L419 475 L813 544 L854 620 Z" /><glyph glyph-name="uni4E07" unicode="&#x4e07;" d="M862 786 Q919 741 954 709 Q953 694 928 694 L440 694 Q434 549 423 476 L716 476 L756 518 L832 454 Q820 442 790 439 Q769 48 694 -24 Q650 -64 572 -64 Q572 -30 550 -16 Q526 1 431 15 L432 33 Q556 19 604 19 Q631 19 648 32 Q702 79 725 447 L419 447 Q360 104 63 -81 L48 -64 Q246 87 316 306 Q360 444 365 694 L56 694 L47 722 L811 722 L862 786 Z" /><glyph glyph-name="uni4E09" unicode="&#x4e09;" d="M809 34 L865 104 Q928 56 968 21 Q964 5 940 5 L49 5 L40 34 L809 34 ZM671 394 L723 459 Q782 413 819 380 Q816 364 793 364 L177 364 L169 394 L671 394 ZM763 719 L817 786 Q878 740 916 706 Q913 690 889 690 L105 690 L96 719 L763 719 Z" /><glyph glyph-name="uni4E0A" unicode="&#x4e0a;" d="M865 68 Q924 23 959 -10 Q955 -26 933 -26 L50 -26 L42 4 L437 4 L437 828 L541 817 Q536 794 505 789 L505 465 L735 465 L787 530 Q844 484 879 452 Q875 436 854 436 L505 436 L505 4 L813 4 L865 68 Z" /><glyph glyph-name="uni4E0D" unicode="&#x4e0d;" d="M590 722 Q557 644 514 576 L563 558 Q556 543 532 539 L532 -59 Q532 -63 515 -70 Q495 -78 479 -78 L466 -78 L466 502 Q290 252 43 100 L32 112 Q374 373 502 722 L56 722 L47 751 L801 751 L853 816 Q913 771 951 738 Q947 722 923 722 L590 722 ZM591 473 Q861 372 935 244 Q962 199 948 173 Q935 149 900 167 Q821 307 581 462 L591 473 Z" /><glyph glyph-name="uni4E0E" unicode="&#x4e0e;" d="M606 306 Q662 263 698 231 Q694 215 670 215 L54 215 L46 244 L556 244 L606 306 ZM837 717 Q895 674 931 641 Q927 625 904 625 L304 625 Q288 513 275 452 L777 452 L817 494 L893 429 Q883 417 852 414 Q824 34 744 -37 Q700 -78 620 -78 Q620 -44 597 -30 Q572 -13 472 3 L473 20 Q616 5 653 5 Q682 5 699 19 Q759 65 786 423 L278 423 L245 389 L172 443 Q192 455 212 463 Q256 689 266 840 L365 815 Q357 791 327 794 Q321 742 308 655 L787 655 L837 717 Z" /><glyph glyph-name="uni4E14" unicode="&#x4e14;" d="M321 -6 L684 -6 L684 229 L321 229 L321 -6 ZM321 727 L321 512 L684 512 L684 727 L321 727 ZM684 482 L321 482 L321 259 L684 259 L684 482 ZM873 58 Q931 13 965 -20 Q961 -36 939 -36 L49 -36 L41 -6 L256 -6 L256 789 L332 757 L672 757 L707 802 L795 734 Q787 722 750 716 L750 -6 L823 -6 L873 58 Z" /><glyph glyph-name="uni4E16" unicode="&#x4e16;" d="M709 260 L709 517 L512 517 L512 260 L709 260 ZM709 162 L709 230 L512 230 L512 164 Q512 157 495 149 Q477 140 460 140 L448 140 L448 517 L264 517 L264 16 L801 16 L852 82 Q910 36 946 2 Q942 -14 919 -14 L271 -14 L245 -52 L171 -1 Q180 10 199 20 L199 517 L48 517 L39 547 L199 547 L199 816 L301 804 Q296 782 264 777 L264 547 L448 547 L448 835 L549 823 Q544 800 512 795 L512 547 L709 547 L709 820 L811 808 Q806 785 774 781 L774 547 L830 547 L879 608 Q934 565 968 533 Q964 517 941 517 L774 517 L774 186 Q774 179 757 171 Q739 162 722 162 L709 162 Z" /><glyph glyph-name="uni4E1A" unicode="&#x4e1a;" d="M122 613 Q290 429 310 267 Q317 207 298 182 Q279 157 250 185 Q243 356 106 607 L122 613 ZM878 76 Q937 30 971 -3 Q967 -19 944 -19 L54 -19 L45 10 L357 10 L357 822 L453 811 Q450 789 421 785 L421 10 L591 10 L591 821 L688 811 Q685 789 656 785 L656 214 Q761 423 833 623 L931 568 Q921 549 890 557 Q794 356 656 170 L656 10 L829 10 L878 76 Z" /><glyph glyph-name="uni4E1C" unicode="&#x4e1c;" d="M381 236 Q370 217 341 224 Q223 56 46 -39 L35 -25 Q190 96 287 290 L381 236 ZM665 277 Q884 181 930 62 Q946 19 929 -2 Q913 -23 881 -3 Q834 119 654 268 L665 277 ZM855 727 Q915 682 952 649 Q948 633 926 633 L373 633 Q302 486 241 375 L492 375 L492 559 L593 548 Q588 526 558 522 L558 375 L749 375 L799 439 Q857 395 893 362 Q889 346 866 346 L558 346 L558 16 Q558 -28 540 -47 Q518 -70 452 -77 Q449 -45 430 -33 Q407 -16 344 -9 L344 7 Q447 -1 468 -1 Q492 -1 492 20 L492 346 L234 346 L202 316 L131 376 Q152 388 180 396 Q247 514 302 633 L62 633 L53 662 L316 662 Q365 767 392 839 L486 803 Q477 782 445 787 Q420 728 387 662 L802 662 L855 727 Z" /><glyph glyph-name="uni4E2A" unicode="&#x4e2a;" d="M568 549 Q563 526 531 522 L531 -57 Q531 -64 513 -72 Q494 -81 476 -81 L463 -81 L463 561 L568 549 ZM508 777 Q347 502 42 348 L35 363 Q343 567 452 838 L567 808 Q562 792 526 788 Q686 559 964 440 L963 425 Q920 414 903 367 Q629 528 508 777 Z" /><glyph glyph-name="uni4E2D" unicode="&#x4e2d;" d="M821 335 L821 599 L530 599 L530 335 L821 335 ZM463 335 L463 599 L172 599 L172 335 L463 335 ZM931 606 Q921 592 889 586 L889 243 Q888 238 868 230 Q848 222 832 222 L821 222 L821 305 L530 305 L530 -51 Q530 -59 512 -68 Q494 -78 476 -78 L463 -78 L463 305 L172 305 L172 233 Q172 227 155 219 Q136 211 117 211 L107 211 L107 662 L179 628 L463 628 L463 839 L566 827 Q563 804 530 799 L530 628 L811 628 L849 670 L931 606 Z" /><glyph glyph-name="uni4E3A" unicode="&#x4e3a;" d="M184 801 Q337 743 350 654 Q354 621 334 607 Q314 592 288 612 Q269 702 174 793 L184 801 ZM946 541 Q934 528 904 525 Q884 47 813 -28 Q768 -74 683 -74 Q683 -39 663 -27 Q632 -8 533 6 L534 25 Q689 9 716 9 Q747 9 762 23 Q816 71 838 534 L525 534 Q498 345 407 211 Q292 44 58 -72 L45 -54 Q403 157 455 534 L78 534 L69 564 L459 564 Q469 655 469 838 L578 826 Q573 802 542 798 Q538 642 529 564 L828 564 L868 607 L946 541 ZM550 417 Q701 337 708 237 Q710 201 689 186 Q667 172 641 195 Q633 292 538 410 L550 417 Z" /><glyph glyph-name="uni4E3E" unicode="&#x4e3e;" d="M388 841 Q529 757 534 657 Q535 620 515 605 Q494 591 469 613 Q465 714 376 834 L388 841 ZM167 821 Q318 743 329 645 Q333 609 313 594 Q294 579 268 601 Q255 702 155 814 L167 821 ZM820 214 Q873 175 906 145 Q903 129 881 129 L529 129 L529 -53 Q529 -60 512 -68 Q493 -77 476 -77 L463 -77 L463 129 L103 129 L94 158 L463 158 L463 299 L260 299 L253 329 L463 329 L463 490 L562 479 Q559 459 529 454 L529 329 L629 329 L672 380 Q721 344 752 315 Q748 299 727 299 L529 299 L529 158 L773 158 L820 214 ZM665 539 Q763 387 977 300 L974 287 Q928 272 918 231 Q735 334 638 539 L397 539 Q282 325 35 202 L26 216 Q221 352 303 539 L57 539 L48 569 L603 569 Q679 697 736 839 L842 804 Q834 784 803 785 Q725 668 629 569 L824 569 L871 627 Q925 586 958 555 Q955 539 932 539 L665 539 Z" /><glyph glyph-name="uni4E50" unicode="&#x4e50;" d="M386 275 Q377 255 346 262 Q228 74 50 -27 L38 -14 Q195 113 294 323 L386 275 ZM561 395 L561 20 Q561 -26 543 -45 Q520 -70 452 -76 Q447 -43 428 -30 Q402 -12 335 -4 L335 12 Q449 3 471 3 Q496 3 496 25 L496 395 L231 395 L202 364 L131 414 Q145 425 163 432 Q206 632 216 780 L314 754 Q610 783 789 832 L858 760 Q844 747 807 764 Q555 729 278 728 Q259 574 229 424 L496 424 L496 665 L596 654 Q591 632 561 627 L561 424 L804 424 L850 482 Q904 442 935 411 Q932 395 910 395 L561 395 ZM669 315 Q894 195 941 68 Q958 22 940 1 Q923 -20 890 1 Q840 127 657 306 L669 315 Z" /><glyph glyph-name="uni4E5D" unicode="&#x4e5d;" d="M946 32 Q973 21 973 4 Q973 -19 942 -27 Q910 -35 816 -35 L735 -35 Q684 -35 666 -20 Q649 -5 649 34 L649 565 L428 565 Q415 348 346 212 Q258 37 53 -75 L41 -58 Q212 58 287 225 Q347 359 359 565 L98 565 L89 595 L360 595 Q363 673 363 835 L470 823 Q465 799 435 795 Q433 660 430 595 L640 595 L677 635 L755 569 Q743 556 714 553 L714 46 Q714 33 720 28 Q726 23 748 23 L817 23 Q872 23 883 24 Q893 25 900 37 Q910 58 930 179 L943 179 L946 32 Z" /><glyph glyph-name="uni4E5F" unicode="&#x4e5f;" d="M916 28 Q955 16 955 -3 Q955 -34 892 -43 Q828 -52 611 -52 L397 -52 Q299 -52 263 -32 Q225 -11 225 51 L225 431 L49 371 L31 394 L225 460 L225 759 L325 747 Q322 725 289 719 L289 482 L491 551 L491 837 L593 825 Q588 802 556 797 L556 573 L784 652 L817 689 L890 627 Q877 616 852 613 Q843 262 789 210 Q758 178 698 178 Q698 207 684 220 Q665 235 613 242 L613 260 Q696 252 714 252 Q737 252 747 263 Q783 299 790 622 L556 542 L556 171 Q556 164 539 156 Q521 147 503 147 L491 147 L491 520 L289 452 L289 64 Q289 33 308 22 Q330 10 394 10 L613 10 Q778 10 818 14 Q845 18 857 34 Q870 61 901 200 L914 200 L916 28 Z" /><glyph glyph-name="uni4E66" unicode="&#x4e66;" d="M694 806 Q873 766 908 679 Q920 647 904 629 Q887 611 856 625 Q805 712 684 797 L694 806 ZM483 372 L683 372 L699 600 L483 600 L483 372 ZM943 348 Q931 336 904 333 Q893 69 843 27 Q807 -6 739 -6 Q741 30 721 44 Q694 63 622 72 L623 89 Q728 79 762 79 Q787 79 795 88 Q825 115 833 342 L483 342 L483 -52 Q483 -60 465 -69 Q447 -79 429 -79 L416 -79 L416 342 L63 342 L54 372 L416 372 L416 600 L137 600 L128 629 L416 629 L416 840 L515 829 Q512 807 483 803 L483 629 L692 629 L724 666 L795 606 Q789 597 764 594 L749 372 L824 372 L864 413 L943 348 Z" /><glyph glyph-name="uni4E86" unicode="&#x4e86;&#xf9ba;" d="M912 729 Q901 720 868 719 Q708 607 565 538 L569 538 Q564 516 535 512 L535 24 Q535 -22 514 -43 Q487 -69 410 -77 Q404 -42 381 -29 Q353 -11 268 -1 L268 15 Q411 5 439 5 Q467 5 467 29 L467 548 L536 541 Q656 620 766 728 L120 728 L111 758 L785 758 L833 803 L912 729 Z" /><glyph glyph-name="uni4E88" unicode="&#x4e88;" d="M965 426 Q954 416 924 415 Q836 308 684 210 L673 218 Q768 319 835 428 L533 428 L533 21 Q533 -24 512 -45 Q485 -72 410 -79 Q407 -46 383 -31 Q354 -13 271 -3 L271 12 Q411 2 438 2 Q466 2 466 24 L466 428 L48 428 L40 458 L559 458 Q491 567 311 646 L317 662 Q428 641 508 600 Q629 671 707 736 L163 736 L154 765 L727 765 L776 809 L854 734 Q844 725 809 724 Q717 661 528 588 Q588 552 605 510 Q619 475 599 458 L840 458 L886 502 L965 426 Z" /><glyph glyph-name="uni4E8B" unicode="&#x4e8b;" d="M752 224 L531 224 L531 130 L752 130 L752 224 ZM531 254 L752 254 L752 346 L531 346 L531 254 ZM465 497 L465 597 L248 597 L248 497 L465 497 ZM531 597 L531 497 L748 497 L748 597 L531 597 ZM884 314 Q937 271 967 240 Q963 224 941 224 L815 224 L815 70 Q814 64 796 56 Q777 47 761 47 L752 47 L752 102 L531 102 L531 18 Q531 -27 512 -47 Q487 -72 416 -79 Q409 -45 389 -34 Q362 -16 289 -8 L289 8 Q413 -2 437 -2 Q465 -2 465 22 L465 102 L163 102 L154 130 L465 130 L465 224 L51 224 L44 254 L465 254 L465 346 L169 346 L160 376 L465 376 L465 468 L248 468 L248 436 Q248 431 230 424 Q211 416 194 416 L184 416 L184 658 L255 626 L465 626 L465 705 L53 705 L45 735 L465 735 L465 838 L567 827 Q562 804 531 799 L531 735 L812 735 L864 796 Q921 754 955 721 Q952 705 930 705 L531 705 L531 626 L738 626 L775 665 L856 605 Q844 591 814 585 L814 454 Q813 449 794 441 Q774 433 759 433 L748 433 L748 468 L531 468 L531 376 L742 376 L778 414 L858 354 Q846 340 815 334 L815 254 L840 254 L884 314 Z" /><glyph glyph-name="uni2F06" unicode="&#x2f06;&#x4e8c;" d="M791 97 L849 170 Q914 120 955 83 Q952 67 928 67 L59 67 L50 97 L791 97 ZM699 653 L754 723 Q817 675 857 639 Q853 623 829 623 L151 623 L143 653 L699 653 Z" /><glyph glyph-name="uni4E8E" unicode="&#x4e8e;" d="M859 521 Q920 474 956 441 Q953 425 930 425 L538 425 L538 26 Q538 -21 518 -42 Q491 -71 419 -78 Q416 -42 393 -29 Q365 -10 287 0 L287 15 Q416 5 443 5 Q470 5 470 29 L470 425 L52 425 L45 455 L470 455 L470 722 L128 722 L120 752 L740 752 L792 817 Q852 772 888 738 Q884 722 862 722 L538 722 L538 455 L806 455 L859 521 Z" /><glyph glyph-name="uni4E94" unicode="&#x4e94;" d="M429 397 Q377 157 341 15 L680 15 L680 397 L429 397 ZM870 82 Q929 35 963 1 Q959 -15 937 -15 L47 -15 L39 15 L274 15 Q309 148 363 397 L154 397 L145 426 L369 426 Q403 583 423 695 L111 695 L102 723 L759 723 L810 788 Q869 743 903 710 Q900 695 876 695 L491 695 L436 426 L670 426 L708 467 L789 405 Q777 391 746 385 L746 15 L818 15 L870 82 Z" /><glyph glyph-name="uni4E9B" unicode="&#x4e9b;" d="M35 354 Q58 356 130 367 L130 719 L223 709 Q220 690 191 686 L191 376 Q244 386 297 394 L297 837 L396 827 Q393 804 360 799 L360 632 L417 632 L460 692 Q509 649 538 620 Q534 604 512 604 L360 604 L360 405 L533 437 L537 420 Q359 363 99 295 Q93 278 76 272 L35 354 ZM192 229 L703 229 L750 289 Q804 247 838 215 Q835 200 812 200 L200 200 L192 229 ZM851 44 Q907 1 942 -32 Q938 -47 916 -47 L73 -47 L64 -18 L800 -18 L851 44 ZM926 402 Q954 392 954 374 Q954 350 918 341 Q879 332 765 332 L658 332 Q599 332 579 347 Q560 361 560 401 L560 837 L655 826 Q653 805 624 801 L624 604 Q757 661 838 729 L920 671 Q909 658 872 667 Q758 610 624 581 L624 415 Q624 401 631 397 Q640 392 668 392 L767 392 Q847 392 860 394 Q875 395 881 406 Q888 421 910 527 L924 527 L926 402 Z" /><glyph glyph-name="uni4EA4" unicode="&#x4ea4;" d="M392 841 Q540 805 553 722 Q558 692 539 677 Q519 662 492 680 Q473 756 382 833 L392 841 ZM60 630 L51 660 L819 660 L867 729 Q924 680 955 646 Q952 630 929 630 L60 630 ZM614 594 Q830 525 879 417 Q897 377 881 356 Q865 335 832 352 Q777 467 604 585 L614 594 ZM81 338 Q237 444 314 605 L411 557 Q402 542 373 546 Q269 401 91 324 L81 338 ZM750 400 Q741 383 709 388 Q650 258 543 158 Q715 37 971 -9 L969 -21 Q920 -26 904 -77 Q655 -14 501 121 Q318 -27 45 -77 L38 -62 Q294 7 460 160 Q353 272 303 416 L320 427 Q375 295 495 194 Q599 302 651 442 L750 400 Z" /><glyph glyph-name="uni4EA7" unicode="&#x4ea7;" d="M424 850 Q258 884 500 719 Q486 788 414 842 L424 850 ZM840 503 Q894 461 928 430 Q924 414 902 414 L223 414 L223 325 Q223 46 48 -82 L36 -69 Q159 68 159 325 L159 478 L236 444 L580 444 Q625 539 660 654 L760 630 Q755 609 723 609 Q684 536 610 444 L792 444 L840 503 ZM308 658 Q435 591 433 507 Q432 476 412 465 Q390 454 367 475 Q362 553 296 652 L308 658 ZM869 757 Q923 717 956 686 Q952 670 930 670 L62 670 L54 700 L822 700 L869 757 Z" /><glyph glyph-name="uni4EAC" unicode="&#x4eac;" d="M380 172 Q371 156 343 164 Q228 34 45 -44 L35 -32 Q201 78 291 222 L380 172 ZM717 325 L717 524 L285 524 L285 325 L717 325 ZM536 295 L536 18 Q536 -26 517 -46 Q492 -71 423 -77 Q418 -45 398 -30 Q371 -13 300 -5 L300 9 Q420 1 443 1 Q470 1 470 20 L470 295 L285 295 L285 265 Q285 259 267 251 Q248 243 229 243 L219 243 L219 586 L291 553 L707 553 L744 595 L827 530 Q817 517 783 510 L783 275 Q782 269 763 261 Q743 253 727 253 L717 253 L717 295 L536 295 ZM653 210 Q858 134 903 33 Q919 -3 903 -22 Q888 -41 858 -25 Q805 78 642 200 L653 210 ZM857 759 Q917 714 954 680 Q951 664 928 664 L57 664 L48 694 L524 694 L511 699 Q482 775 385 837 L394 846 Q522 829 560 766 Q575 742 570 721 Q565 700 546 694 L805 694 L857 759 Z" /><glyph glyph-name="uni2F08" unicode="&#x2f08;&#x4eba;" d="M543 805 Q540 783 509 778 Q527 476 616 306 Q721 103 965 -10 L963 -21 Q907 -27 891 -76 Q701 29 608 206 Q527 358 501 600 Q484 384 404 241 Q297 49 55 -77 L43 -60 Q307 105 389 357 Q437 504 438 817 L543 805 Z" /><glyph glyph-name="uni4EBF" unicode="&#x4ebf;" d="M381 803 Q374 782 342 783 Q300 672 241 567 L278 554 Q272 540 247 536 L247 -54 Q245 -60 229 -68 Q210 -77 193 -77 L180 -77 L180 471 Q114 377 52 317 L37 327 Q187 533 274 838 L381 803 ZM930 36 Q970 24 970 7 Q970 -42 755 -42 L592 -42 Q476 -42 425 -19 Q371 6 364 67 Q355 139 454 284 Q511 369 762 688 L370 688 L361 718 L775 718 L808 755 L885 686 Q867 675 835 673 Q421 172 433 77 Q438 45 472 33 Q507 20 589 20 L760 20 Q862 20 875 41 Q896 77 922 207 L936 206 L930 36 Z" /><glyph glyph-name="uni4ECA" unicode="&#x4eca;" d="M776 349 L850 278 Q839 267 799 264 Q687 93 555 -82 Q521 -84 489 -62 Q629 125 726 278 L171 278 L162 308 L734 308 L776 349 ZM407 550 Q565 491 582 404 Q589 373 570 358 Q551 344 525 362 Q495 448 396 541 L407 550 ZM578 822 Q574 806 538 803 Q668 584 978 433 L975 419 Q929 413 916 369 Q627 539 519 790 Q352 500 34 331 L25 346 Q157 430 287 578 Q422 732 462 852 L578 822 Z" /><glyph glyph-name="uni4ECE" unicode="&#x4ece;" d="M360 798 Q357 775 325 771 Q321 547 305 440 Q464 320 478 203 Q483 159 463 142 Q443 126 415 150 Q398 255 299 404 Q247 104 52 -75 L37 -58 Q185 111 231 371 Q257 514 257 808 L360 798 ZM714 802 Q711 779 680 774 Q693 487 749 319 Q818 112 976 -7 L974 -19 Q923 -24 908 -77 Q714 100 673 538 Q660 334 599 202 Q521 34 346 -75 L331 -59 Q524 89 579 333 Q610 468 610 812 L714 802 Z" /><glyph glyph-name="uni4ED8" unicode="&#x4ed8;" d="M370 805 Q363 785 331 786 Q288 667 230 564 L273 547 Q268 533 243 530 L243 -55 Q241 -60 225 -68 Q206 -77 190 -77 L178 -77 L178 478 Q115 384 47 319 L33 329 Q185 535 266 838 L370 805 ZM883 641 Q935 598 966 567 Q963 551 940 551 L786 551 L786 29 Q786 -19 765 -40 Q738 -68 658 -76 Q650 -39 627 -25 Q597 -8 508 5 L508 21 Q658 9 687 9 Q717 9 717 36 L717 551 L320 551 L312 581 L717 581 L717 826 L821 814 Q818 791 786 788 L786 581 L837 581 L883 641 ZM387 449 Q552 359 571 257 Q578 219 559 203 Q540 187 513 208 Q491 302 376 442 L387 449 Z" /><glyph glyph-name="uni4EE3" unicode="&#x4ee3;" d="M692 801 Q833 775 849 703 Q854 677 837 663 Q819 650 793 664 Q766 727 682 792 L692 801 ZM380 802 Q375 783 341 784 Q298 671 243 574 L289 557 Q283 543 258 540 L258 -55 Q257 -60 241 -69 Q222 -78 205 -78 L192 -78 L192 490 Q125 390 49 318 L35 328 Q185 531 274 838 L380 802 ZM938 2 Q976 -46 963 -62 Q932 -106 829 -33 Q614 118 555 486 L316 459 L305 487 L551 514 Q530 651 530 825 L636 812 Q632 789 601 785 Q599 646 617 522 L825 545 L867 610 Q925 574 961 548 Q958 532 937 530 L621 494 Q672 159 863 37 Q877 26 883 26 Q890 27 896 41 Q914 71 943 155 L954 152 L938 2 Z" /><glyph glyph-name="uni4EE5" unicode="&#x4ee5;" d="M368 785 Q548 665 569 542 Q577 496 556 477 Q536 459 506 483 Q483 603 356 778 L368 785 ZM550 293 Q313 107 206 31 Q199 6 180 -2 L135 86 Q171 106 171 129 L171 782 L275 770 Q272 748 237 742 L237 128 Q298 162 542 307 L550 293 ZM869 788 Q864 763 831 759 Q820 386 745 242 Q936 131 961 2 Q970 -46 949 -67 Q928 -88 897 -64 Q876 63 734 221 Q621 28 280 -81 L271 -62 Q590 67 687 274 Q755 421 760 800 L869 788 Z" /><glyph glyph-name="uni4EEC" unicode="&#x4eec;" d="M36 329 Q167 535 241 838 L348 806 Q341 785 309 786 Q270 670 220 572 L265 555 Q258 541 234 537 L234 -54 Q227 -75 180 -75 L167 -75 L167 476 Q104 376 50 319 L36 329 ZM373 667 L474 656 Q469 632 437 627 L437 -55 Q437 -62 420 -70 Q403 -78 385 -78 L373 -78 L373 667 ZM419 821 Q549 761 556 680 Q558 650 540 638 Q522 626 498 644 Q483 717 408 814 L419 821 ZM958 711 Q948 697 915 690 L915 20 Q915 -25 897 -45 Q873 -70 806 -77 Q801 -41 782 -30 Q758 -13 687 -3 L687 13 Q803 4 825 4 Q852 4 852 27 L852 703 L593 703 L584 732 L842 732 L875 773 L958 711 Z" /><glyph glyph-name="uni4EF0" unicode="&#x4ef0;" d="M347 806 Q339 785 309 786 Q271 672 217 573 L258 557 Q253 543 228 540 L228 -55 Q227 -60 211 -67 Q192 -76 176 -76 L164 -76 L164 480 Q112 399 46 333 L33 343 Q170 541 244 837 L347 806 ZM416 207 Q454 221 565 269 L570 256 Q487 192 393 125 Q385 95 363 84 L322 172 Q354 189 354 212 L354 742 L429 727 Q470 762 552 838 L638 788 Q631 773 602 780 Q548 749 416 689 L416 207 ZM962 688 Q950 674 919 668 L919 193 Q919 149 904 131 Q884 107 825 101 Q822 135 809 148 Q791 163 738 172 L738 187 Q817 181 835 181 Q856 181 856 201 L856 680 L679 680 L679 -61 Q679 -66 665 -74 Q647 -83 626 -83 L616 -83 L616 742 L689 710 L846 710 L879 751 L962 688 Z" /><glyph glyph-name="uni4EFD" unicode="&#x4efd;" d="M271 555 Q266 541 241 538 L241 -56 Q240 -61 224 -70 Q205 -79 189 -79 L177 -79 L177 476 Q113 380 52 319 L37 329 Q183 538 264 838 L368 805 Q361 785 330 786 Q285 664 232 569 L271 555 ZM568 770 Q561 750 531 751 Q449 511 283 395 L270 407 Q414 554 470 802 L568 770 ZM805 475 L880 414 Q870 402 839 398 Q827 17 769 -41 Q732 -78 669 -78 Q671 -46 654 -32 Q634 -18 576 -9 L576 9 Q669 1 690 1 Q714 1 725 11 Q766 50 778 406 L581 406 Q569 250 523 153 Q456 13 299 -78 L285 -62 Q416 35 469 170 Q505 263 512 406 L368 406 L359 435 L769 435 L805 475 ZM752 813 Q744 800 721 772 Q797 554 977 473 L975 463 Q934 455 914 412 Q735 538 678 832 L689 837 L752 813 Z" /><glyph glyph-name="uni4F1A" unicode="&#x4f1a;" d="M613 195 Q820 104 861 -6 Q876 -46 858 -65 Q841 -85 809 -66 Q794 -34 756 18 Q521 -18 204 -50 Q196 -63 183 -68 L150 19 Q168 23 177 27 Q330 115 442 286 L537 232 Q527 213 498 219 Q379 104 224 15 Q311 17 741 38 Q672 122 601 187 L613 195 ZM819 382 Q876 339 913 306 Q909 290 885 290 L90 290 L81 319 L768 319 L819 382 ZM659 556 Q714 515 748 483 Q745 467 722 467 L252 467 L245 497 L610 497 L659 556 ZM577 816 Q573 800 537 797 Q670 621 968 505 L966 491 Q921 483 908 441 Q628 579 518 785 Q354 547 43 406 L35 421 Q165 491 291 614 Q423 742 463 843 L577 816 Z" /><glyph glyph-name="uni4F1F" unicode="&#x4f1f;" d="M371 804 Q363 782 332 785 Q285 659 231 566 L279 548 Q274 534 248 531 L248 -57 Q247 -62 230 -69 Q212 -77 196 -77 L183 -77 L183 487 Q118 388 44 319 L30 329 Q184 534 267 838 L371 804 ZM957 310 Q949 299 920 295 Q917 75 881 44 Q852 18 795 18 Q795 48 779 58 Q763 70 701 80 L702 97 Q779 90 811 90 Q832 90 839 97 Q855 115 860 302 L637 302 L637 -50 Q637 -58 620 -68 Q601 -78 584 -78 L571 -78 L571 302 L308 302 L299 332 L571 332 L571 475 L356 475 L348 505 L571 505 L571 637 L335 637 L327 666 L571 666 L571 836 L673 825 Q668 802 637 797 L637 666 L814 666 L863 727 Q918 685 953 653 Q949 637 926 637 L637 637 L637 505 L791 505 L836 563 Q890 522 923 491 Q919 475 896 475 L637 475 L637 332 L850 332 L885 368 L957 310 Z" /><glyph glyph-name="uni4F20" unicode="&#x4f20;" d="M353 804 Q344 784 314 785 Q267 660 219 570 L261 554 Q256 539 230 535 L230 -54 Q229 -59 213 -68 Q194 -77 177 -77 L164 -77 L164 476 Q104 382 40 318 L27 327 Q167 539 244 838 L353 804 ZM878 530 Q932 487 965 456 Q962 440 938 440 L544 440 L501 296 L771 296 L815 338 L893 265 Q882 255 851 254 Q786 168 682 75 Q787 19 806 -39 Q814 -62 802 -73 Q790 -84 766 -77 Q668 50 414 148 L422 162 Q563 134 661 86 Q725 181 768 266 L500 266 L466 232 L394 289 Q406 297 437 309 Q449 344 479 440 L273 440 L266 470 L488 470 Q500 510 535 642 L330 642 L322 672 L542 672 Q569 777 581 842 L679 813 Q670 792 639 795 Q623 725 608 672 L786 672 L832 729 Q883 689 915 658 Q912 642 889 642 L601 642 Q566 513 553 470 L831 470 L878 530 Z" /><glyph glyph-name="uni4F34" unicode="&#x4f34;" d="M908 735 Q899 716 870 719 Q790 604 729 544 L713 554 Q759 641 807 777 L908 735 ZM374 766 Q499 680 501 592 Q502 559 484 547 Q465 536 442 556 Q433 632 361 761 L374 766 ZM360 805 Q351 786 321 787 Q272 654 206 540 L267 518 Q261 504 236 500 L236 -56 Q235 -61 219 -69 Q200 -78 183 -78 L171 -78 L171 483 Q111 390 46 327 L31 337 Q178 541 256 838 L360 805 ZM881 331 Q935 289 968 257 Q964 241 942 241 L645 241 L645 -50 Q645 -58 628 -67 Q611 -77 593 -77 L580 -77 L580 241 L295 241 L288 271 L580 271 L580 463 L320 463 L312 493 L580 493 L580 830 L682 819 Q677 796 645 791 L645 493 L812 493 L857 549 Q908 510 939 479 Q936 463 914 463 L645 463 L645 271 L834 271 L881 331 Z" /><glyph glyph-name="uni4F53" unicode="&#x4f53;" d="M263 557 Q257 543 231 539 L231 -57 Q230 -62 214 -70 Q195 -79 178 -79 L166 -79 L166 473 Q107 377 51 319 L37 329 Q171 540 240 838 L346 806 Q339 785 307 785 Q266 665 220 572 L263 557 ZM663 601 Q770 299 975 167 L972 157 Q928 152 911 104 Q726 266 642 601 L639 601 L639 157 L711 157 L752 211 Q798 173 827 144 Q823 128 801 128 L639 128 L639 -55 Q639 -62 622 -70 Q604 -78 587 -78 L574 -78 L574 128 L409 128 L401 157 L574 157 L574 521 Q476 261 268 93 L254 107 Q448 300 531 601 L294 601 L286 631 L574 631 L574 836 L675 825 Q670 801 639 796 L639 631 L813 631 L859 690 Q912 648 944 617 Q940 601 919 601 L663 601 Z" /><glyph glyph-name="uni4F60" unicode="&#x4f60;" d="M362 805 Q355 786 324 787 Q285 680 228 573 L269 558 Q264 543 239 540 L239 -55 Q238 -60 222 -68 Q203 -77 186 -77 L174 -77 L174 483 Q115 393 48 327 L34 337 Q181 541 259 838 L362 805 ZM557 420 Q550 399 520 400 Q442 190 313 79 L298 90 Q406 229 459 451 L557 420 ZM610 605 L709 594 Q704 572 674 568 L674 20 Q674 -26 657 -45 Q634 -70 567 -77 Q560 -41 543 -29 Q519 -11 453 -3 L453 13 Q563 5 585 5 Q610 5 610 27 L610 605 ZM756 444 Q928 301 952 174 Q961 126 942 108 Q924 89 896 114 Q874 229 741 438 L756 444 ZM961 618 Q954 610 924 607 Q879 524 826 467 L812 474 Q834 539 851 619 L471 619 Q400 485 309 403 L295 413 Q420 582 479 835 L581 802 Q573 782 543 783 Q518 713 486 648 L846 648 L886 690 L961 618 Z" /><glyph glyph-name="uni4F7F" unicode="&#x4f7f;" d="M267 559 Q263 545 237 540 L237 -55 Q236 -60 220 -68 Q202 -77 185 -77 L173 -77 L173 482 Q110 386 49 327 L35 337 Q180 541 258 838 L361 806 Q354 786 323 787 Q282 673 228 574 L267 559 ZM592 347 Q593 359 593 385 L593 530 L416 530 L416 347 L592 347 ZM657 530 L657 367 L656 347 L830 347 L830 530 L657 530 ZM653 318 Q640 188 576 104 Q729 10 971 -2 L971 -13 Q922 -25 913 -77 Q673 -45 541 65 Q449 -26 263 -77 L255 -60 Q426 -2 507 97 Q445 159 405 251 L420 260 Q463 185 533 133 Q581 210 590 318 L416 318 L416 283 Q416 278 399 270 Q380 262 362 262 L353 262 L353 589 L421 558 L593 558 L593 668 L324 668 L316 698 L593 698 L593 837 L692 826 Q689 803 657 798 L657 698 L825 698 L873 758 Q928 715 962 684 Q958 668 936 668 L657 668 L657 558 L820 558 L857 598 L938 537 Q926 523 894 517 L894 289 Q894 283 875 275 Q856 266 840 266 L830 266 L830 318 L653 318 Z" /><glyph glyph-name="uni4FDD" unicode="&#x4fdd;" d="M351 805 Q346 784 314 785 Q275 674 221 574 L259 560 Q253 547 228 543 L228 -56 Q227 -61 211 -69 Q192 -78 176 -78 L164 -78 L164 477 Q109 393 42 326 L28 336 Q170 536 249 837 L351 805 ZM454 521 L796 521 L796 745 L454 745 L454 521 ZM663 324 Q767 144 975 54 L973 43 Q930 38 915 -10 Q745 98 654 297 L654 -58 Q654 -64 639 -72 Q621 -81 600 -81 L589 -81 L589 246 Q480 79 276 -24 L266 -9 Q459 119 552 324 L286 324 L278 353 L589 353 L589 492 L454 492 L454 455 Q454 449 437 441 Q418 433 399 433 L389 433 L389 807 L459 775 L786 775 L823 816 L904 753 Q893 738 861 732 L861 466 Q860 461 841 454 Q822 446 806 446 L796 446 L796 492 L654 492 L654 353 L829 353 L876 412 Q930 371 963 340 Q959 324 937 324 L663 324 Z" /><glyph glyph-name="uni4FE1" unicode="&#x4fe1;" d="M552 849 Q689 802 698 720 Q701 690 682 677 Q663 664 638 682 Q624 765 541 842 L552 849 ZM361 806 Q356 785 323 786 Q280 667 229 573 L268 558 Q263 543 238 542 L238 -55 Q236 -61 220 -69 Q201 -78 185 -78 L173 -78 L173 477 Q113 384 47 315 L32 326 Q174 529 257 839 L361 806 ZM826 440 Q875 401 906 371 Q902 355 880 355 L389 355 L381 385 L783 385 L826 440 ZM387 492 L379 521 L783 521 L827 577 Q875 537 906 508 Q903 492 880 492 L387 492 ZM806 29 L806 223 L462 223 L462 29 L806 29 ZM832 292 L911 230 Q900 218 871 211 L871 -44 Q870 -49 851 -57 Q831 -66 816 -66 L806 -66 L806 -1 L462 -1 L462 -57 Q462 -62 445 -70 Q426 -79 408 -79 L398 -79 L398 284 L468 252 L796 252 L832 292 ZM883 719 Q937 678 969 646 Q965 630 943 630 L320 630 L312 660 L837 660 L883 719 Z" /><glyph glyph-name="uni503A" unicode="&#x503a;" d="M360 804 Q351 783 320 784 Q281 675 223 568 L260 555 Q253 541 229 537 L229 -54 Q228 -59 211 -67 Q192 -76 175 -76 L163 -76 L163 469 Q99 376 40 318 L26 328 Q171 534 253 838 L360 804 ZM687 289 Q681 267 651 268 Q635 124 587 63 Q515 -29 304 -81 L295 -62 Q478 -2 539 91 Q583 159 588 315 L687 289 ZM800 81 L800 356 L443 356 L443 65 Q443 60 426 52 Q407 44 389 44 L378 44 L378 418 L448 386 L791 386 L826 425 L903 365 Q892 352 865 347 L865 103 Q864 97 845 89 Q826 81 810 81 L800 81 ZM644 108 Q860 75 926 -11 Q950 -42 940 -63 Q930 -84 898 -76 Q812 20 635 95 L644 108 ZM888 552 Q938 514 970 484 Q966 468 943 468 L300 468 L292 497 L584 497 L584 585 L369 585 L361 615 L584 615 L584 694 L339 694 L331 723 L584 723 L584 835 L686 824 Q683 801 649 796 L649 723 L820 723 L864 779 Q914 740 946 710 Q942 694 920 694 L649 694 L649 615 L794 615 L838 668 Q889 630 919 601 Q915 585 893 585 L649 585 L649 497 L842 497 L888 552 Z" /><glyph glyph-name="uni503C" unicode="&#x503c;" d="M354 804 Q347 784 315 785 Q271 662 220 569 L258 554 Q251 540 227 536 L227 -54 Q226 -59 210 -67 Q191 -75 174 -75 L161 -75 L161 469 Q99 378 40 320 L26 329 Q167 534 248 837 L354 804 ZM454 -9 L775 -9 L775 122 L454 122 L454 -9 ZM454 540 L454 431 L775 431 L775 540 L454 540 ZM454 152 L775 152 L775 263 L454 263 L454 152 ZM775 402 L454 402 L454 293 L775 293 L775 402 ZM895 47 Q944 7 974 -22 Q970 -38 949 -38 L275 -38 L267 -9 L391 -9 L391 603 L466 570 L570 570 L574 678 L322 678 L314 708 L575 708 Q577 745 579 838 L679 830 Q676 806 646 803 Q645 783 638 708 L811 708 L859 768 Q913 726 946 694 Q942 678 919 678 L635 678 L625 570 L764 570 L799 616 L885 549 Q877 536 840 530 L840 -9 L853 -9 L895 47 Z" /><glyph glyph-name="uni5143" unicode="&#x5143;" d="M160 721 L152 751 L715 751 L766 813 Q823 770 859 737 Q855 721 832 721 L160 721 ZM942 23 Q969 13 969 -7 Q969 -31 934 -39 Q894 -49 779 -49 L672 -49 Q612 -49 592 -34 Q573 -20 573 22 L573 475 L404 475 Q392 248 322 130 Q241 -6 41 -80 L34 -66 Q201 22 267 155 Q323 268 330 475 L55 475 L47 505 L810 505 L863 569 Q922 525 957 491 Q953 475 931 475 L638 475 L638 37 Q638 23 646 18 Q655 13 684 13 L781 13 Q858 13 872 15 Q887 16 892 30 Q900 47 926 191 L940 191 L942 23 Z" /><glyph glyph-name="uni515A" unicode="&#x515a;" d="M202 806 Q346 766 356 682 Q359 651 340 637 Q320 623 294 641 Q284 725 192 798 L202 806 ZM181 594 Q187 499 128 462 Q108 450 87 451 Q65 453 57 469 Q44 500 84 523 Q114 539 133 579 Q153 620 149 665 L167 666 Q172 651 178 623 L466 623 L466 839 L568 828 Q565 805 533 801 L533 623 L626 623 Q688 715 733 815 L836 784 Q829 763 796 766 Q739 694 655 623 L831 623 L873 667 L953 591 Q944 583 915 580 Q869 524 810 478 L797 486 Q815 529 834 594 L181 594 ZM309 293 L695 293 L695 462 L309 462 L309 293 ZM932 10 Q959 2 959 -17 Q959 -40 923 -48 Q883 -57 764 -57 L649 -57 Q590 -57 571 -44 Q553 -31 553 6 L553 263 L445 263 Q420 112 332 34 Q244 -43 56 -80 L51 -64 Q212 -16 285 58 Q358 132 375 263 L309 263 L309 236 Q309 230 292 223 Q274 215 256 215 L246 215 L246 523 L315 491 L686 491 L720 530 L796 471 Q786 458 759 453 L759 245 Q758 240 739 232 Q719 224 705 224 L695 224 L695 263 L616 263 L616 19 Q616 7 623 4 Q630 1 659 1 L766 1 Q852 1 868 2 Q882 3 887 15 Q893 28 917 136 L930 136 L932 10 Z" /><glyph glyph-name="uni2F0A" unicode="&#x2f0a;&#x5165;" d="M35 -65 Q388 196 473 670 L471 684 Q469 694 469 698 Q462 731 304 780 Q351 852 342 841 Q494 757 507 700 Q547 457 666 272 Q791 77 976 -9 L972 -23 Q910 -23 890 -77 Q622 83 507 509 Q393 131 49 -79 L35 -65 Z" /><glyph glyph-name="uni5168" unicode="&#x5168;" d="M853 51 Q910 8 946 -25 Q942 -40 918 -40 L75 -40 L66 -12 L464 -12 L464 203 L202 203 L194 231 L464 231 L464 421 L217 421 L210 450 L677 450 L723 504 Q775 466 807 437 Q804 421 781 421 L531 421 L531 231 L707 231 L756 288 Q809 248 844 218 Q840 203 817 203 L531 203 L531 -12 L802 -12 L853 51 ZM583 815 Q581 801 543 796 Q672 609 976 478 L974 464 Q924 454 912 410 Q633 560 525 784 Q358 524 45 373 L36 387 Q165 464 292 599 Q424 737 464 846 L583 815 Z" /><glyph glyph-name="uni2F0B" unicode="&#x2f0b;&#x516b;" d="M32 -66 Q306 192 323 751 L433 730 Q429 711 393 712 Q350 162 47 -78 L32 -66 ZM673 770 Q658 754 621 727 Q699 167 977 -20 L972 -29 Q926 -34 902 -76 Q753 51 677 282 Q612 479 584 811 L595 815 L673 770 Z" /><glyph glyph-name="uni516D" unicode="&#x516d;" d="M794 575 L850 648 Q914 597 954 561 Q950 545 927 545 L63 545 L55 575 L794 575 ZM375 833 Q556 772 578 668 Q586 630 565 612 Q543 595 513 616 Q491 720 365 825 L375 833 ZM444 405 Q435 389 405 394 Q274 107 58 -55 L45 -45 Q233 145 334 445 L444 405 ZM627 436 Q876 238 932 64 Q952 1 936 -27 Q920 -55 885 -27 Q839 157 611 428 L627 436 Z" /><glyph glyph-name="uni5171" unicode="&#x5171;" d="M59 -64 Q248 49 348 209 L437 158 Q428 143 399 149 Q273 4 69 -78 L59 -64 ZM605 193 Q840 112 899 0 Q921 -41 906 -63 Q891 -84 858 -67 Q789 54 595 182 L605 193 ZM370 291 L628 291 L628 568 L370 568 L370 291 ZM868 354 Q926 309 960 277 Q956 261 934 261 L51 261 L43 291 L304 291 L304 568 L82 568 L73 597 L304 597 L304 831 L406 820 Q401 797 370 792 L370 597 L628 597 L628 831 L730 820 Q725 797 694 792 L694 597 L798 597 L845 657 Q899 616 932 584 Q928 568 906 568 L694 568 L694 291 L818 291 L868 354 Z" /><glyph glyph-name="uni5173" unicode="&#x5173;" d="M244 832 Q408 775 427 683 Q434 649 415 633 Q395 618 367 637 Q342 727 233 824 L244 832 ZM537 324 Q655 61 964 1 L963 -10 Q916 -20 901 -73 Q615 15 517 319 Q462 40 40 -76 L33 -58 Q401 80 449 324 L59 324 L50 354 L454 354 Q459 397 459 431 L459 575 L122 575 L113 605 L562 605 Q634 725 674 836 L783 804 Q775 783 745 786 Q680 688 588 605 L747 605 L797 666 Q853 623 888 591 Q885 575 861 575 L527 575 L527 433 Q527 388 522 354 L806 354 L856 416 Q913 372 949 340 Q945 324 923 324 L537 324 Z" /><glyph glyph-name="uni5176" unicode="&#x5176;" d="M53 -64 Q242 16 353 144 L449 94 Q440 78 401 84 Q262 -23 60 -79 L53 -64 ZM601 129 Q881 71 922 -23 Q936 -56 912 -71 Q888 -85 861 -62 Q779 36 595 113 L601 129 ZM343 201 L660 201 L660 335 L343 335 L343 201 ZM343 657 L343 530 L660 530 L660 657 L343 657 ZM343 365 L660 365 L660 500 L343 500 L343 365 ZM869 264 Q926 219 961 188 Q957 172 934 172 L51 172 L44 201 L278 201 L278 657 L74 657 L65 686 L278 686 L278 837 L378 826 Q376 804 343 797 L343 686 L660 686 L660 837 L762 826 Q759 802 726 797 L726 686 L803 686 L852 745 Q906 704 940 673 Q937 657 913 657 L726 657 L726 201 L819 201 L869 264 Z" /><glyph glyph-name="uni5178" unicode="&#x5178;" d="M50 -62 Q242 17 351 143 L443 96 Q434 80 397 86 Q257 -23 57 -77 L50 -62 ZM612 134 Q889 72 930 -24 Q944 -57 920 -72 Q897 -87 870 -63 Q793 36 605 119 L612 134 ZM227 200 L363 200 L363 417 L227 417 L227 200 ZM227 647 L227 446 L363 446 L363 647 L227 647 ZM425 647 L425 446 L566 446 L566 647 L425 647 ZM628 647 L628 446 L771 446 L771 647 L628 647 ZM566 417 L425 417 L425 200 L566 200 L566 417 ZM628 200 L771 200 L771 417 L628 417 L628 200 ZM892 261 Q944 217 972 186 Q968 170 947 170 L45 170 L36 200 L163 200 L163 708 L238 676 L363 676 L363 830 L454 820 Q451 801 425 797 L425 676 L566 676 L566 830 L657 820 Q654 801 628 797 L628 676 L760 676 L794 721 L881 656 Q870 641 836 638 L836 200 L849 200 L892 261 Z" /><glyph glyph-name="uni5185" unicode="&#x5185;" d="M940 634 Q927 621 896 616 L896 23 Q896 -22 878 -42 Q853 -68 784 -76 Q777 -40 757 -27 Q729 -8 659 1 L659 17 Q779 8 804 8 Q831 8 831 31 L831 627 L527 627 Q519 553 502 493 Q707 396 747 275 Q761 232 744 210 Q727 189 696 210 Q661 329 496 474 Q435 290 228 180 L215 198 Q430 345 461 627 L179 627 L179 -50 Q179 -57 163 -66 Q146 -75 126 -75 L114 -75 L114 691 L186 657 L464 657 Q469 732 471 837 L573 827 Q568 803 538 799 Q534 704 530 657 L821 657 L856 699 L940 634 Z" /><glyph glyph-name="uni51A0" unicode="&#x51a0;" d="M812 152 Q812 108 796 90 Q776 67 715 61 Q710 92 696 106 Q673 121 619 128 L619 143 Q709 136 729 136 Q750 136 750 156 L750 463 L508 463 L500 492 L750 492 L750 616 L848 605 Q844 584 812 579 L812 492 L848 492 L888 548 Q934 508 961 479 Q957 463 936 463 L812 463 L812 152 ZM554 414 Q677 353 676 274 Q675 245 656 235 Q635 224 613 244 Q607 323 542 408 L554 414 ZM189 737 Q190 645 130 607 Q109 594 87 595 Q64 596 56 612 Q43 642 81 665 Q116 683 138 722 Q163 764 159 813 L177 814 Q184 792 187 766 L831 766 L875 811 L955 734 Q949 726 918 724 Q863 665 799 625 L788 633 Q811 677 832 737 L189 737 ZM360 574 L403 630 Q454 591 484 561 Q480 545 459 545 L126 545 L118 574 L360 574 ZM924 18 Q959 8 959 -12 Q959 -38 906 -46 Q849 -55 660 -55 L468 -55 Q383 -55 356 -40 Q328 -25 328 23 L328 385 L247 385 Q241 212 206 116 Q162 -1 54 -79 L46 -65 Q130 21 160 135 Q184 225 183 385 L55 385 L47 415 L403 415 L446 470 Q495 431 526 401 Q522 385 500 385 L390 385 L390 34 Q390 15 403 10 Q418 3 469 3 L662 3 Q801 3 843 6 Q865 8 872 24 Q885 51 909 169 L922 169 L924 18 Z" /><glyph glyph-name="uni51AC" unicode="&#x51ac;" d="M237 124 Q595 97 710 0 Q749 -33 741 -59 Q732 -84 697 -74 Q543 38 233 108 L237 124 ZM379 299 Q586 282 638 208 Q657 182 644 164 Q632 147 605 156 Q526 229 375 284 L379 299 ZM373 684 Q359 668 352 659 Q413 559 518 486 Q620 576 683 684 L373 684 ZM811 684 Q799 672 766 671 Q690 550 570 453 Q743 352 983 314 L981 302 Q932 294 917 243 Q675 301 524 418 Q327 278 47 216 L40 232 Q298 310 480 454 Q392 533 336 642 Q217 510 79 438 L68 450 Q281 596 386 847 L494 815 Q487 799 456 803 Q424 750 395 712 L686 712 L735 757 L811 684 Z" /><glyph glyph-name="uni51B5" unicode="&#x51b5;" d="M77 794 Q230 754 246 670 Q252 639 233 625 Q213 610 186 627 Q164 708 67 787 L77 794 ZM356 694 L260 470 Q199 327 190 301 Q171 250 172 217 Q172 203 186 148 Q198 97 196 52 Q193 -14 142 -14 Q116 -14 113 35 Q134 201 97 222 Q82 233 47 236 L47 258 L94 258 Q108 258 120 278 Q139 312 338 700 L356 694 ZM447 455 L824 455 L824 732 L447 732 L447 455 ZM942 20 Q966 10 966 -8 Q966 -30 938 -39 Q906 -49 821 -49 L748 -49 Q701 -49 685 -35 Q670 -22 670 15 L670 425 L583 425 Q570 221 501 113 Q423 -8 238 -77 L231 -62 Q387 18 452 137 Q507 240 516 425 L447 425 L447 374 Q447 368 432 362 Q415 354 393 354 L383 354 L383 793 L458 762 L821 762 L853 800 L927 744 Q917 733 889 727 L889 380 Q889 376 873 370 Q854 362 834 362 L824 362 L824 425 L733 425 L733 31 Q733 11 763 11 L822 11 Q871 11 880 13 Q891 14 896 26 Q905 52 925 179 L939 179 L942 20 Z" /><glyph glyph-name="uni51C6" unicode="&#x51c6;" d="M609 846 Q736 790 732 708 Q731 678 710 667 Q689 655 666 676 Q665 760 597 839 L609 846 ZM78 795 Q228 750 241 666 Q246 635 227 621 Q207 606 181 624 Q159 709 67 787 L78 795 ZM342 725 Q325 670 259 465 Q205 300 197 270 Q182 213 182 177 Q182 162 196 107 Q209 55 207 9 Q204 -57 154 -57 Q126 -57 123 -9 Q145 156 108 179 Q94 190 61 193 L61 216 L103 216 Q118 216 128 237 Q144 274 323 729 L342 725 ZM461 26 L637 26 L637 210 L461 210 L461 26 ZM461 615 L461 441 L637 441 L637 615 L461 615 ZM637 411 L461 411 L461 239 L637 239 L637 411 ZM882 86 Q935 44 967 13 Q964 -3 941 -3 L461 -3 L461 -57 Q461 -62 447 -70 Q431 -79 410 -79 L400 -79 L400 508 Q336 398 270 329 L257 339 Q393 537 453 837 L560 806 Q554 787 521 788 Q493 705 469 647 L474 645 L700 645 L818 645 L864 704 Q916 662 949 631 Q945 615 923 615 L700 615 L700 441 L795 441 L839 499 Q892 458 923 427 Q919 411 898 411 L700 411 L700 239 L795 239 L839 298 Q892 256 923 226 Q919 210 898 210 L700 210 L700 26 L834 26 L882 86 Z" /><glyph glyph-name="uni51FA" unicode="&#x51fa;" d="M919 330 Q916 308 883 303 L883 -47 Q883 -53 866 -61 Q848 -69 831 -69 L819 -69 L819 10 L188 10 L162 -31 L88 22 Q102 36 117 44 L117 347 L222 337 Q219 317 181 312 L181 40 L464 40 L464 426 L236 426 L211 388 L137 438 Q151 452 166 460 L166 746 L271 737 Q268 717 229 712 L229 456 L464 456 L464 833 L566 822 Q561 799 530 794 L530 456 L770 456 L770 745 L870 734 Q867 713 834 708 L834 395 Q834 389 817 382 Q799 374 782 374 L770 374 L770 426 L530 426 L530 40 L819 40 L819 341 L919 330 Z" /><glyph glyph-name="uni5206" unicode="&#x5206;" d="M454 798 Q444 782 415 784 Q288 502 43 367 L32 378 Q260 548 351 836 L454 798 ZM736 477 L812 413 Q800 401 772 398 Q756 23 692 -38 Q653 -76 580 -76 Q580 -40 560 -28 Q535 -11 454 0 L454 18 Q595 6 606 6 Q631 6 646 18 Q690 58 707 406 L472 406 Q455 254 392 155 Q302 14 96 -79 L84 -63 Q262 36 338 173 Q390 269 400 406 L186 406 L177 436 L697 436 L736 477 ZM676 822 Q668 805 645 777 Q742 527 976 437 L973 427 Q929 419 909 375 Q676 511 599 838 L609 844 L676 822 Z" /><glyph glyph-name="uni5219" unicode="&#x5219;" d="M935 820 Q930 797 898 793 L898 21 Q898 -26 881 -45 Q860 -70 795 -77 Q790 -41 773 -28 Q748 -10 687 -2 L687 14 Q790 5 811 5 Q835 5 835 27 L835 832 L935 820 ZM740 719 Q737 697 705 693 L705 170 Q705 163 689 155 Q672 147 657 147 L645 147 L645 730 L740 719 ZM378 617 Q371 595 341 595 Q334 282 300 180 Q245 13 51 -73 L38 -55 Q204 39 250 205 Q280 315 281 642 L378 617 ZM339 211 Q517 131 542 24 Q551 -16 532 -34 Q513 -52 484 -31 Q461 75 328 203 L339 211 ZM184 754 L447 754 L480 794 L553 736 Q540 723 513 719 L513 231 Q513 226 498 219 Q480 211 461 211 L451 211 L451 725 L172 725 L172 217 Q172 212 158 205 Q142 197 121 197 L111 197 L111 785 L184 754 Z" /><glyph glyph-name="uni5224" unicode="&#x5224;" d="M592 723 Q584 702 554 705 Q486 590 419 514 L404 523 Q443 606 496 762 L592 723 ZM95 759 Q226 670 230 577 Q232 543 213 530 Q194 518 171 539 Q161 633 82 752 L95 759 ZM538 343 Q590 303 621 272 Q617 256 595 256 L343 256 Q302 25 57 -78 L46 -62 Q244 44 280 256 L48 256 L41 286 L284 286 Q290 334 290 386 L290 454 L79 454 L71 484 L290 484 L290 835 L389 825 Q386 802 354 797 L354 484 L462 484 L506 540 Q555 500 585 470 Q582 454 559 454 L354 454 L354 386 Q354 334 348 286 L494 286 L538 343 ZM703 150 Q703 143 687 136 Q670 128 653 128 L641 128 L641 738 L740 727 Q735 704 703 700 L703 150 ZM947 823 Q942 800 910 796 L910 18 Q910 -29 893 -48 Q870 -74 803 -81 Q798 -45 780 -32 Q756 -14 691 -6 L691 11 Q799 2 820 2 Q845 2 845 24 L845 834 L947 823 Z" /><glyph glyph-name="uni522B" unicode="&#x522b;" d="M174 739 L174 531 L442 531 L442 739 L174 739 ZM174 470 Q174 465 160 457 Q143 448 122 448 L112 448 L112 800 L186 769 L433 769 L468 806 L545 748 Q532 733 505 729 L505 477 Q504 473 486 466 Q467 458 452 458 L442 458 L442 501 L174 501 L174 470 ZM480 390 L554 329 Q545 317 514 313 Q502 8 444 -46 Q406 -78 347 -78 Q347 -45 331 -33 Q312 -19 251 -9 L252 9 Q329 0 368 0 Q391 0 401 11 Q438 42 452 321 L291 321 Q252 34 47 -83 L34 -67 Q197 50 230 321 L57 321 L48 350 L233 350 Q238 410 240 483 L337 472 Q331 449 303 447 Q299 383 295 350 L443 350 L480 390 ZM706 145 Q706 138 690 130 Q673 122 656 122 L643 122 L643 748 L742 737 Q737 714 706 710 L706 145 ZM945 808 Q942 785 909 781 L909 22 Q909 -24 891 -44 Q868 -70 802 -77 Q795 -42 778 -28 Q755 -11 687 -1 L687 14 Q797 5 818 5 Q844 5 844 28 L844 820 L945 808 Z" /><glyph glyph-name="uni5230" unicode="&#x5230;" d="M58 719 L50 748 L479 748 L525 807 Q578 766 611 735 Q607 719 584 719 L279 719 L369 680 Q362 663 332 666 Q257 572 140 486 Q271 493 487 513 Q452 580 389 635 L400 644 Q557 575 574 477 Q581 442 563 425 Q544 409 519 429 Q515 460 498 493 Q336 459 139 424 Q128 407 116 401 L75 491 Q93 495 100 499 Q193 567 273 719 L58 719 ZM346 79 L609 128 L612 111 Q389 40 107 -37 Q99 -55 83 -60 L42 29 Q97 34 282 68 L282 263 L78 263 L71 292 L282 292 L282 435 L383 425 Q378 403 346 398 L346 292 L450 292 L495 351 Q548 310 579 279 Q576 263 553 263 L346 263 L346 79 ZM722 156 Q722 150 706 142 Q689 134 672 134 L660 134 L660 742 L758 731 Q755 708 722 704 L722 156 ZM947 809 Q944 786 911 782 L911 17 Q911 -28 894 -47 Q872 -73 808 -79 Q803 -43 786 -31 Q763 -13 703 -5 L703 10 Q803 2 824 2 Q847 2 847 24 L847 820 L947 809 Z" /><glyph glyph-name="uni5236" unicode="&#x5236;" d="M545 562 Q597 522 629 492 Q625 476 604 476 L356 476 L356 356 L485 356 L518 394 L600 333 Q588 319 557 314 L557 83 Q557 40 544 22 Q526 -1 476 -7 Q474 26 462 41 Q449 55 411 62 L411 78 Q465 74 479 74 Q495 74 495 90 L495 326 L356 326 L356 -51 Q356 -59 340 -68 Q323 -77 306 -77 L294 -77 L294 326 L156 326 L156 8 Q156 3 140 -4 Q122 -12 105 -12 L95 -12 L95 386 L162 356 L294 356 L294 476 L41 476 L33 505 L294 505 L294 640 L156 640 Q115 574 69 532 L54 540 Q117 645 153 805 L250 777 Q243 756 214 757 Q196 712 173 669 L294 669 L294 834 L392 823 Q387 800 356 795 L356 669 L467 669 L513 727 Q565 686 596 656 Q593 640 570 640 L356 640 L356 505 L500 505 L545 562 ZM730 148 Q730 140 715 133 Q699 125 682 125 L670 125 L670 752 L766 742 Q761 719 730 715 L730 148 ZM948 808 Q943 786 911 782 L911 17 Q911 -28 895 -47 Q873 -72 812 -78 Q809 -44 791 -31 Q773 -14 713 -7 L713 10 Q807 2 826 2 Q849 2 849 23 L849 819 L948 808 Z" /><glyph glyph-name="uni523B" unicode="&#x523b;" d="M258 839 Q383 805 382 731 Q382 704 362 693 Q341 682 317 700 Q311 769 247 831 L258 839 ZM37 -60 Q357 114 511 409 L608 359 Q597 344 566 349 Q502 246 415 163 Q575 89 594 -2 Q601 -36 582 -51 Q563 -66 535 -47 Q506 32 396 144 Q250 8 46 -77 L37 -60 ZM542 744 Q595 703 626 672 Q622 656 601 656 L272 656 L350 618 Q344 599 311 605 Q244 524 151 457 Q267 459 368 464 Q411 525 444 596 L538 551 Q528 536 499 541 Q344 278 60 142 L50 159 Q234 274 350 437 Q194 409 141 401 Q129 388 115 383 L87 463 Q116 467 124 473 Q186 519 251 656 L43 656 L35 686 L496 686 L542 744 ZM723 154 Q723 147 707 140 Q691 132 674 132 L662 132 L662 713 L760 702 Q757 679 723 675 L723 154 ZM948 809 Q943 786 911 782 L911 19 Q911 -27 894 -46 Q871 -71 805 -78 Q800 -43 782 -30 Q760 -13 693 -4 L693 12 Q800 4 822 4 Q847 4 847 26 L847 821 L948 809 Z" /><glyph glyph-name="uni524D" unicode="&#x524d;" d="M389 211 L389 338 L196 338 L196 211 L389 211 ZM196 489 L196 368 L389 368 L389 489 L196 489 ZM412 559 L496 496 Q482 482 453 477 L453 12 Q453 -31 438 -49 Q419 -71 362 -77 Q360 -46 345 -33 Q327 -16 281 -11 L281 5 Q353 -1 371 -1 Q389 -1 389 18 L389 181 L196 181 L196 -54 Q196 -60 180 -68 Q162 -77 143 -77 L132 -77 L132 550 L201 519 L379 519 L412 559 ZM688 522 Q685 499 651 494 L651 94 Q651 88 635 80 Q618 72 601 72 L589 72 L589 533 L688 522 ZM803 555 L902 544 Q897 523 867 519 L867 16 Q867 -28 850 -46 Q827 -70 763 -76 Q758 -44 740 -33 Q717 -16 655 -9 L655 7 Q758 -1 780 -1 Q803 -1 803 20 L803 555 ZM870 713 Q926 670 960 637 Q956 622 935 622 L49 622 L41 651 L370 651 Q359 651 344 661 Q329 747 238 828 L249 836 Q374 796 402 722 Q412 694 403 673 Q394 652 374 651 L571 651 Q628 742 668 838 L774 807 Q765 788 734 789 Q688 726 602 651 L819 651 L870 713 Z" /><glyph glyph-name="uni2F12" unicode="&#x2f12;&#x529b;&#xf98a;" d="M901 560 Q887 548 859 544 Q844 50 778 -25 Q735 -71 654 -71 Q654 -34 633 -20 Q607 -3 515 13 L516 31 Q642 17 684 17 Q711 17 725 31 Q777 76 791 554 L494 554 Q477 336 397 202 Q295 31 59 -78 L47 -60 Q248 53 337 217 Q409 349 423 554 L106 554 L97 583 L425 583 Q429 664 429 837 L538 825 Q533 801 502 797 Q500 652 496 583 L782 583 L822 627 L901 560 Z" /><glyph glyph-name="uni529E" unicode="&#x529e;" d="M215 482 Q240 309 139 215 Q118 195 94 191 Q69 186 57 202 Q38 229 75 260 Q179 331 197 484 L215 482 ZM795 589 Q781 577 753 573 Q733 55 657 -28 Q613 -73 531 -73 Q531 -38 511 -25 Q483 -6 396 7 L397 25 Q532 12 560 12 Q590 12 605 26 Q665 80 686 583 L466 583 Q451 361 377 221 Q281 40 59 -78 L46 -61 Q235 61 318 235 Q383 373 396 583 L85 583 L76 612 L398 612 Q401 685 401 838 L509 827 Q504 803 473 799 Q471 672 468 612 L676 612 L717 657 L795 589 ZM795 475 Q947 378 953 263 Q955 221 934 205 Q912 188 886 213 Q887 333 782 469 L795 475 Z" /><glyph glyph-name="uni529F" unicode="&#x529f;" d="M483 302 Q285 199 108 120 Q105 102 88 95 L38 175 Q100 191 208 226 L208 665 L62 665 L54 695 L336 695 L383 753 Q434 712 466 681 Q462 665 440 665 L273 665 L273 248 Q406 292 478 317 L483 302 ZM959 567 Q949 554 918 551 Q901 49 830 -29 Q789 -75 714 -73 Q714 -38 696 -25 Q670 -7 595 4 L596 22 Q704 10 739 10 Q765 10 782 24 Q836 75 854 559 L646 559 Q634 334 566 201 Q478 29 266 -77 L253 -59 Q434 50 511 214 Q572 345 582 559 L400 559 L391 589 L583 589 Q585 639 585 830 L688 819 Q683 796 652 791 Q650 655 648 589 L844 589 L883 631 L959 567 Z" /><glyph glyph-name="uni52A0" unicode="&#x52a0;" d="M454 665 L532 600 Q519 587 490 583 Q478 59 417 -14 Q375 -60 306 -60 Q306 -24 289 -10 Q268 7 196 18 L197 36 Q310 25 327 25 Q352 25 367 39 Q414 84 425 592 L281 592 Q262 144 44 -76 L27 -60 Q199 164 214 592 L60 592 L51 622 L215 622 Q216 694 216 835 L321 824 Q316 801 286 796 L283 622 L415 622 L454 665 ZM840 73 L840 638 L655 638 L655 73 L840 73 ZM953 645 Q941 630 906 623 L906 -16 Q904 -22 886 -31 Q865 -40 850 -40 L840 -40 L840 45 L655 45 L655 -30 Q655 -36 640 -44 Q622 -53 603 -53 L591 -53 L591 702 L660 668 L829 668 L868 712 L953 645 Z" /><glyph glyph-name="uni52A1" unicode="&#x52a1;" d="M768 320 L844 256 Q833 245 804 242 Q786 6 728 -40 Q691 -70 624 -70 Q626 -38 605 -23 Q578 -6 505 3 L506 20 Q621 10 650 10 Q675 10 687 19 Q722 49 738 250 L491 250 Q413 3 63 -79 L56 -65 Q350 27 419 250 L123 250 L114 280 L427 280 Q443 340 446 415 L555 400 Q551 377 518 375 Q512 327 500 280 L729 280 L768 320 ZM351 699 Q347 695 339 685 L327 671 Q392 588 511 530 Q622 605 690 699 L351 699 ZM821 700 Q812 690 775 687 Q696 582 573 504 Q733 443 967 425 L966 413 Q920 404 908 352 Q669 387 515 470 Q323 368 47 332 L41 348 Q291 401 465 502 Q373 563 312 655 Q205 541 86 479 L75 491 Q261 623 355 844 L462 813 Q456 797 423 801 Q402 765 375 729 L697 729 L748 771 L821 700 Z" /><glyph glyph-name="uni52A8" unicode="&#x52a8;" d="M92 689 L84 719 L331 719 L377 777 Q430 736 462 705 Q458 689 435 689 L92 689 ZM429 556 Q481 516 514 485 Q510 469 488 469 L44 469 L36 498 L383 498 L429 556 ZM334 345 Q468 237 467 127 Q466 85 445 70 Q424 55 400 80 Q401 105 394 146 Q253 100 110 61 Q100 44 87 40 L48 137 Q69 142 75 148 Q167 268 217 467 L320 430 Q311 411 283 412 Q211 261 105 132 Q176 139 389 170 Q367 259 320 339 L334 345 ZM962 582 Q951 569 920 565 Q911 42 852 -30 Q813 -75 746 -75 Q746 -39 730 -27 Q713 -11 648 0 L649 18 Q732 9 766 9 Q791 9 803 22 Q847 66 858 574 L687 574 Q678 339 622 203 Q548 26 363 -84 L350 -67 Q504 45 567 215 Q617 349 624 574 L457 574 L448 604 L625 604 Q626 641 626 838 L728 826 Q723 803 691 798 L688 604 L847 604 L886 647 L962 582 Z" /><glyph glyph-name="uni52AA" unicode="&#x52aa;" d="M261 673 Q221 582 196 534 Q273 519 340 499 Q395 572 421 673 L261 673 ZM52 322 Q216 371 303 458 Q231 493 123 525 L125 526 Q161 595 192 673 L58 673 L50 702 L204 702 Q241 797 255 847 L355 819 Q347 798 314 799 L274 702 L418 702 L459 742 L530 677 Q521 667 491 664 Q454 549 393 480 Q500 436 491 394 Q487 378 468 375 Q448 371 428 383 Q390 414 350 435 Q245 344 58 305 L52 322 ZM800 296 L875 235 Q864 223 837 220 Q814 -1 750 -47 Q711 -77 644 -77 Q644 -43 626 -31 Q602 -13 530 -4 L531 13 Q636 3 673 3 Q696 3 710 12 Q751 46 770 228 L487 228 Q463 108 376 37 Q274 -45 60 -85 L55 -70 Q375 8 416 228 L131 228 L122 258 L420 258 Q424 289 424 327 L532 314 Q528 292 495 289 L492 258 L762 258 L800 296 ZM590 716 Q627 590 711 515 Q787 600 824 716 L590 716 ZM937 721 Q929 711 897 708 Q845 570 751 482 Q839 421 971 391 L970 381 Q925 373 912 326 Q781 372 705 445 Q612 373 468 333 L460 349 Q585 395 676 478 Q604 564 569 716 L511 716 L502 746 L823 746 L865 786 L937 721 Z" /><glyph glyph-name="uni52B3" unicode="&#x52b3;" d="M783 373 L858 311 Q846 299 817 296 Q794 12 723 -45 Q684 -76 610 -76 Q610 -44 591 -33 Q568 -18 484 -6 L485 11 Q617 0 641 0 Q667 0 681 10 Q728 48 752 304 L485 304 Q414 21 92 -79 L84 -66 Q352 46 414 304 L119 304 L111 334 L421 334 Q434 395 437 489 L546 474 Q543 451 509 448 Q502 378 492 334 L744 334 L783 373 ZM872 589 L949 514 Q938 505 910 504 Q860 448 793 405 L780 413 Q806 457 828 516 L186 516 Q185 433 129 400 Q110 388 90 390 Q68 391 59 408 Q48 439 87 461 Q117 476 137 511 Q159 549 157 590 L175 590 Q182 568 184 546 L828 546 L872 589 ZM871 787 Q925 744 957 714 Q954 698 930 698 L674 698 L674 623 Q674 606 621 604 L609 604 L609 698 L385 698 L385 619 Q385 613 368 607 Q350 601 331 601 L321 601 L321 698 L49 698 L43 728 L321 728 L321 840 L421 830 Q418 807 385 803 L385 728 L609 728 L609 840 L710 830 Q707 807 674 803 L674 728 L824 728 L871 787 Z" /><glyph glyph-name="uni52E4" unicode="&#x52e4;&#xfa34;" d="M328 276 L431 276 L469 325 L459 325 L459 354 L328 354 L328 276 ZM268 384 L268 478 L144 478 L144 384 L268 384 ZM328 478 L328 384 L459 384 L459 478 L328 478 ZM209 611 L395 611 L395 693 L209 693 L209 611 ZM537 58 Q362 17 100 -33 Q91 -51 74 -54 L41 31 Q96 33 268 49 L268 136 L79 136 L71 165 L268 165 L268 246 L62 246 L54 276 L268 276 L268 354 L144 354 L144 332 Q144 327 130 321 Q114 314 93 314 L84 314 L84 538 L155 508 L268 508 L268 582 L209 582 L209 565 Q209 559 193 552 Q177 545 161 545 L149 545 L149 693 L42 693 L34 722 L149 722 L149 838 L247 828 Q242 805 209 800 L209 722 L395 722 L395 837 L493 827 Q488 804 455 799 L455 722 L501 722 L542 774 Q589 737 618 709 Q614 693 592 693 L455 693 L455 569 Q455 564 439 557 Q423 551 406 551 L395 551 L395 582 L328 582 L328 508 L456 508 L487 544 L556 492 Q546 480 520 475 L520 343 Q520 339 506 333 Q490 326 472 325 Q501 303 544 262 Q541 246 518 246 L328 246 L328 165 L422 165 L460 212 Q502 178 530 152 Q526 136 504 136 L328 136 L328 55 Q434 65 535 76 L537 58 ZM958 569 Q947 556 917 552 Q908 31 854 -35 Q817 -78 751 -78 Q751 -41 735 -30 Q717 -15 656 -4 L657 14 Q736 5 768 5 Q791 5 804 18 Q845 59 854 561 L722 561 Q715 333 671 202 Q614 31 471 -76 L456 -60 Q571 48 617 213 Q654 342 659 561 L543 561 L535 591 L660 591 L660 836 L761 825 Q756 801 725 796 L724 692 Q724 625 723 591 L844 591 L881 633 L958 569 Z" /><glyph glyph-name="uni2F17" unicode="&#x2f17;&#x5341;" d="M862 540 Q922 493 958 459 Q954 444 932 444 L533 444 L533 -48 Q533 -57 515 -66 Q497 -75 477 -75 L464 -75 L464 444 L53 444 L45 472 L464 472 L464 835 L570 823 Q565 798 533 793 L533 472 L808 472 L862 540 Z" /><glyph glyph-name="uni5355" unicode="&#x5355;" d="M255 827 Q405 775 419 687 Q423 655 404 640 Q384 625 357 644 Q338 731 243 820 L255 827 ZM467 302 L467 436 L239 436 L239 302 L467 302 ZM239 596 L239 466 L467 466 L467 596 L239 596 ZM533 596 L533 466 L754 466 L754 596 L533 596 ZM754 302 L754 436 L533 436 L533 302 L754 302 ZM868 217 Q927 171 964 138 Q960 122 937 122 L533 122 L533 -58 Q533 -64 518 -71 Q500 -80 477 -80 L467 -80 L467 122 L44 122 L36 152 L467 152 L467 273 L239 273 L239 245 Q239 240 222 232 Q204 223 186 223 L175 223 L175 658 L246 625 L553 625 Q623 717 679 838 L776 790 Q766 772 736 777 Q661 686 582 625 L744 625 L781 666 L861 603 Q851 589 820 583 L820 254 Q819 249 800 241 Q780 232 765 232 L754 232 L754 273 L533 273 L533 152 L816 152 L868 217 Z" /><glyph glyph-name="uni5357" unicode="&#x5357;" d="M530 144 L530 -42 Q530 -46 515 -52 Q498 -60 476 -60 L466 -60 L466 144 L253 144 L245 174 L466 174 L466 298 L279 298 L271 328 L536 328 Q572 406 599 495 L694 466 Q687 447 656 448 Q617 388 561 328 L629 328 L669 376 Q715 342 745 314 Q742 298 719 298 L530 298 L530 174 L636 174 L681 227 Q731 189 763 160 Q759 144 737 144 L530 144 ZM333 491 Q446 444 443 374 Q442 348 423 339 Q404 330 383 348 Q377 414 321 485 L333 491 ZM857 764 Q915 720 952 687 Q948 671 924 671 L530 671 L530 541 L796 541 L831 582 L914 519 Q902 503 871 499 L871 16 Q871 -28 853 -48 Q830 -73 763 -80 Q758 -44 739 -31 Q711 -13 647 -5 L647 10 Q757 1 781 1 Q806 1 806 24 L806 512 L205 512 L205 -55 Q205 -62 188 -70 Q170 -80 151 -80 L140 -80 L140 575 L212 541 L465 541 L465 671 L63 671 L54 700 L465 700 L465 842 L566 831 Q564 808 530 804 L530 700 L806 700 L857 764 Z" /><glyph glyph-name="uni5361" unicode="&#x5361;" d="M867 522 Q926 476 962 444 Q958 428 936 428 L541 428 Q539 406 509 402 L509 328 Q759 307 829 219 Q853 188 841 166 Q830 145 799 155 Q709 249 509 307 L509 -59 Q509 -65 491 -71 Q473 -78 455 -78 L442 -78 L442 428 L50 428 L42 457 L442 457 L442 838 L541 828 Q538 807 509 802 L509 663 L702 663 L749 723 Q803 681 836 649 Q833 633 809 633 L509 633 L509 457 L815 457 L867 522 Z" /><glyph glyph-name="uni53BB" unicode="&#x53bb;" d="M865 466 Q924 421 961 388 Q957 372 935 372 L449 372 L538 328 Q528 310 498 314 Q379 166 202 39 Q392 48 770 78 Q708 163 618 246 L630 255 Q856 141 900 8 Q916 -40 898 -62 Q880 -85 847 -62 Q832 -11 785 57 Q553 12 196 -33 Q187 -50 175 -55 L129 40 Q151 44 159 49 Q325 166 441 372 L55 372 L46 401 L464 401 L464 614 L129 614 L120 643 L464 643 L464 839 L569 828 Q564 805 532 800 L532 643 L745 643 L796 707 Q854 662 890 630 Q886 614 863 614 L532 614 L532 401 L814 401 L865 466 Z" /><glyph glyph-name="uni53C2" unicode="&#x53c2;" d="M138 -61 Q564 3 781 193 L852 127 Q841 116 815 127 Q571 -49 142 -79 L138 -61 ZM146 175 Q400 272 525 427 L604 376 Q595 363 569 372 Q421 229 154 159 L146 175 ZM161 60 Q487 154 652 308 L724 249 Q714 236 688 248 Q498 104 168 43 L161 60 ZM643 464 Q759 349 971 295 L970 285 Q929 280 915 231 Q713 314 614 464 L415 464 Q265 299 41 215 L32 230 Q200 314 330 464 L56 464 L47 494 L354 494 Q396 547 422 596 Q233 577 198 574 Q191 559 183 555 L136 637 Q155 640 162 643 Q314 705 433 838 L524 791 Q514 773 483 780 Q383 705 234 638 Q404 641 730 656 Q681 705 615 747 L625 757 Q803 710 842 624 Q856 592 842 574 Q828 557 800 570 Q790 592 752 635 Q592 613 455 600 L525 565 Q516 549 487 555 Q469 528 441 494 L821 494 L868 553 Q922 511 955 480 Q951 464 929 464 L643 464 Z" /><glyph glyph-name="uni2F1C" unicode="&#x2f1c;&#x53c8;" d="M270 698 Q339 451 512 269 Q664 450 738 698 L270 698 ZM861 698 Q853 687 816 683 Q728 405 558 224 Q729 64 966 -18 L962 -29 Q908 -27 883 -78 Q662 15 512 178 Q327 5 51 -80 L42 -64 Q298 38 471 224 Q309 421 247 698 L101 698 L92 727 L735 727 L782 773 L861 698 Z" /><glyph glyph-name="uni53CA" unicode="&#x53ca;" d="M360 747 Q358 675 356 643 Q412 342 597 174 Q719 302 775 485 L630 485 L602 459 L538 509 Q557 522 573 527 Q627 630 672 747 L360 747 ZM891 487 Q882 476 848 473 Q776 266 640 138 Q775 34 976 -17 L973 -28 Q921 -31 897 -80 Q707 -19 587 94 Q428 -27 190 -78 L182 -62 Q407 3 551 129 Q404 287 349 555 Q329 341 268 203 Q195 39 45 -75 L33 -64 Q183 87 242 298 Q289 469 291 747 L85 747 L76 777 L671 777 L707 813 L780 748 Q768 736 738 733 Q708 660 637 514 L772 514 L816 556 L891 487 Z" /><glyph glyph-name="uni53CD" unicode="&#x53cd;" d="M366 489 Q420 304 554 184 Q684 320 741 489 L366 489 ZM865 490 Q855 477 822 476 Q742 276 599 147 Q744 38 973 -9 L971 -21 Q920 -26 902 -78 Q683 -18 551 107 Q392 -20 154 -79 L146 -62 Q364 10 514 145 Q393 279 344 489 L253 489 Q251 102 52 -81 L38 -70 Q187 127 187 504 L187 745 L243 721 Q578 760 852 833 L913 756 Q898 746 876 759 Q564 702 253 700 L253 518 L739 518 L788 563 L865 490 Z" /><glyph glyph-name="uni53D1" unicode="&#x53d1;" d="M625 809 Q780 760 796 676 Q801 645 782 631 Q763 616 736 634 Q712 714 614 801 L625 809 ZM377 377 Q422 246 561 152 Q661 250 713 392 L383 392 L377 377 ZM830 394 Q821 384 787 381 Q722 225 608 121 Q748 42 963 -10 L961 -23 Q901 -28 891 -73 Q689 -12 561 83 Q407 -32 164 -79 L157 -63 Q381 -2 520 115 Q408 213 365 351 Q250 100 44 -30 L31 -20 Q266 164 366 542 L195 542 L160 507 L85 567 Q102 576 130 586 Q170 685 197 784 L297 748 Q288 727 256 732 Q236 664 198 571 L373 571 Q407 705 421 846 L527 826 Q521 803 489 800 Q471 675 442 571 L813 571 L861 631 Q916 589 950 558 Q946 542 923 542 L434 542 Q416 477 395 422 L713 422 L757 462 L830 394 Z" /><glyph glyph-name="uni53D6" unicode="&#x53d6;" d="M206 159 Q230 165 294 179 Q355 193 390 202 L390 338 L206 338 L206 159 ZM206 724 L206 562 L390 562 L390 724 L206 724 ZM206 367 L390 367 L390 532 L206 532 L206 367 ZM589 232 L454 183 L454 -55 Q454 -61 439 -69 Q421 -79 400 -79 L390 -79 L390 160 L101 64 Q95 46 78 41 L36 125 Q73 131 143 145 L143 724 L50 724 L42 754 L464 754 L510 812 Q564 771 597 740 Q593 724 571 724 L454 724 L454 217 L585 249 L589 232 ZM582 622 Q616 408 715 244 Q802 414 837 622 L582 622 ZM948 625 Q938 614 908 611 Q860 363 749 191 Q844 61 977 -15 L974 -26 Q925 -31 914 -72 Q795 9 715 141 Q615 9 473 -72 L460 -58 Q593 38 686 192 Q590 370 558 622 L490 622 L481 651 L832 651 L874 694 L948 625 Z" /><glyph glyph-name="uni53D8" unicode="&#x53d8;" d="M418 846 Q553 816 563 745 Q566 719 548 706 Q529 694 503 709 Q477 775 407 839 L418 846 ZM63 671 L54 701 L806 701 L854 762 Q911 719 945 687 Q942 671 919 671 L641 671 L641 376 Q637 358 587 358 L577 358 L577 671 L424 671 L424 373 Q424 369 409 363 Q392 356 371 356 L360 356 L360 671 L63 671 ZM693 601 Q884 549 922 451 Q935 415 918 396 Q901 377 871 394 Q830 498 683 591 L693 601 ZM328 567 Q316 550 288 555 Q192 422 54 355 L42 368 Q161 461 239 617 L328 567 ZM313 296 Q378 199 501 130 Q605 200 677 296 L313 296 ZM806 298 Q796 286 761 285 Q678 179 556 101 Q731 19 964 -8 L963 -19 Q916 -28 904 -76 Q661 -33 501 69 Q308 -39 40 -81 L34 -66 Q282 -6 456 100 Q345 186 287 296 L164 296 L155 326 L684 326 L734 367 L806 298 Z" /><glyph glyph-name="uni53E5" unicode="&#x53e5;&#xf906;" d="M530 232 L530 462 L292 462 L292 232 L530 232 ZM530 126 L530 204 L292 204 L292 109 Q292 103 276 95 Q258 87 239 87 L228 87 L228 523 L297 492 L520 492 L555 532 L636 470 Q625 457 594 451 L594 146 Q593 141 574 134 Q554 126 540 126 L530 126 ZM947 650 Q936 637 904 633 Q886 56 815 -27 Q770 -79 685 -78 Q687 -41 663 -28 Q635 -10 535 6 L536 24 Q684 9 717 9 Q747 9 762 24 Q820 78 839 642 L290 642 Q187 477 53 380 L40 391 Q210 566 302 846 L406 805 Q399 787 367 788 Q341 730 308 672 L829 672 L869 716 L947 650 Z" /><glyph glyph-name="uni53F3" unicode="&#x53f3;" d="M348 332 L348 41 L767 41 L767 332 L348 332 ZM869 680 Q927 634 962 603 Q958 587 936 587 L408 587 Q360 474 300 387 L359 362 L763 362 L798 403 L874 345 Q866 331 837 327 L837 -47 Q837 -52 820 -59 Q799 -68 778 -68 L767 -68 L767 12 L348 12 L348 -57 Q348 -62 332 -69 Q314 -77 291 -77 L280 -77 L280 359 Q181 225 48 142 L38 153 Q230 304 337 587 L48 587 L40 616 L347 616 Q385 721 406 840 L517 814 Q511 794 476 793 Q449 692 419 616 L818 616 L869 680 Z" /><glyph glyph-name="uni53F7" unicode="&#x53f7;" d="M284 757 L284 562 L720 562 L720 757 L284 757 ZM284 489 Q284 484 266 476 Q247 467 229 467 L219 467 L219 818 L289 787 L710 787 L747 827 L828 765 Q817 750 786 744 L786 504 Q785 499 766 492 Q746 484 730 484 L720 484 L720 532 L284 532 L284 489 ZM870 477 Q923 435 957 403 Q953 387 930 387 L365 387 Q334 312 307 250 L740 250 L778 288 L851 227 Q842 214 811 213 Q782 6 707 -47 Q664 -78 592 -78 Q592 -45 570 -32 Q546 -17 457 -3 L458 14 Q593 1 627 1 Q655 1 671 11 Q717 45 746 220 L302 220 L268 188 L197 245 Q213 256 245 265 Q265 308 295 387 L57 387 L48 417 L823 417 L870 477 Z" /><glyph glyph-name="uni540D" unicode="&#x540d;" d="M811 28 L811 271 L387 271 L387 28 L811 28 ZM920 278 Q909 263 877 257 L877 -52 Q876 -57 857 -66 Q837 -75 821 -75 L811 -75 L811 -1 L387 -1 L387 -56 Q387 -62 372 -70 Q354 -80 333 -80 L321 -80 L321 256 Q184 196 47 161 L38 178 Q528 340 733 679 L397 679 Q386 665 333 605 Q470 545 481 464 Q485 434 467 422 Q448 409 424 427 Q407 493 317 588 Q192 460 67 390 L55 403 Q284 569 413 838 L517 805 Q511 789 479 793 Q466 771 420 708 L737 708 L786 752 L860 679 Q851 669 814 666 Q669 442 408 300 L800 300 L838 341 L920 278 Z" /><glyph glyph-name="uni540E" unicode="&#x540e;" d="M775 34 L775 311 L382 311 L382 34 L775 34 ZM804 379 L877 323 Q868 311 840 306 L840 -51 Q840 -55 824 -62 Q805 -70 785 -70 L775 -70 L775 5 L382 5 L382 -59 Q382 -64 368 -71 Q351 -80 329 -80 L319 -80 L319 372 L394 340 L772 340 L804 379 ZM867 605 Q925 561 960 529 Q956 513 934 513 L234 513 L234 461 Q234 89 51 -70 L38 -59 Q169 113 169 461 L169 746 L255 717 Q571 766 776 839 L851 769 Q836 755 798 770 Q525 712 234 693 L234 541 L816 541 L867 605 Z" /><glyph glyph-name="uni5411" unicode="&#x5411;" d="M618 227 L618 445 L377 445 L377 227 L618 227 ZM680 141 Q679 136 661 128 Q641 120 626 120 L618 120 L618 199 L377 199 L377 113 Q377 107 361 100 Q344 92 326 92 L316 92 L316 505 L381 474 L608 474 L643 514 L722 453 Q710 439 680 433 L680 141 ZM944 632 Q932 618 900 613 L900 21 Q900 -25 882 -44 Q858 -69 789 -76 Q784 -42 763 -29 Q737 -10 666 -2 L666 14 Q785 5 809 5 Q836 5 836 29 L836 625 L166 625 L166 -52 Q166 -59 150 -67 Q133 -77 114 -77 L102 -77 L102 689 L174 655 L380 655 Q422 746 449 838 L558 808 Q549 788 521 789 Q477 721 417 655 L826 655 L861 696 L944 632 Z" /><glyph glyph-name="uni5417" unicode="&#x5417;" d="M274 193 L274 709 L144 709 L144 193 L274 193 ZM378 716 Q370 703 336 696 L336 87 Q335 81 317 72 Q298 63 283 63 L274 63 L274 163 L144 163 L144 41 Q144 35 130 27 Q113 19 94 19 L84 19 L84 769 L149 738 L264 738 L301 778 L378 716 ZM714 265 Q764 224 794 194 Q791 178 768 178 L375 178 L367 208 L669 208 L714 265 ZM962 348 Q953 337 922 332 Q907 11 847 -43 Q810 -77 749 -77 Q749 -44 731 -32 Q711 -18 651 -9 L652 9 Q751 1 770 1 Q794 1 805 11 Q847 47 862 340 L516 340 L484 306 L412 359 Q426 368 452 379 Q486 563 493 687 L589 663 Q582 641 551 642 Q541 538 512 369 L730 369 Q752 520 770 748 L413 748 L404 778 L762 778 L794 817 L873 753 Q862 740 829 737 Q811 515 794 369 L853 369 L888 407 L962 348 Z" /><glyph glyph-name="uni5426" unicode="&#x5426;" d="M465 593 Q289 430 42 331 L33 345 Q352 508 493 737 L73 737 L64 767 L793 767 L845 827 Q902 785 939 753 Q935 737 912 737 L592 737 Q562 693 527 655 L561 642 Q556 628 531 623 L531 353 Q530 348 513 340 Q495 331 477 331 L465 331 L465 593 ZM733 29 L733 272 L274 272 L274 29 L733 29 ZM760 342 L843 279 Q830 264 798 258 L798 -50 Q797 -55 778 -63 Q758 -72 743 -72 L733 -72 L733 0 L274 0 L274 -53 Q274 -59 257 -67 Q238 -75 219 -75 L210 -75 L210 333 L280 301 L723 301 L760 342 ZM604 611 Q811 559 900 476 Q952 429 939 390 Q933 374 917 373 Q900 372 878 390 Q787 521 599 596 L604 611 Z" /><glyph glyph-name="uni542B" unicode="&#x542b;" d="M798 426 Q787 416 748 413 Q695 338 620 247 Q589 245 558 266 Q610 328 681 426 L197 426 L188 456 L691 456 L728 493 L798 426 ZM422 631 Q555 596 564 526 Q567 499 548 488 Q529 476 505 492 Q485 557 412 624 L422 631 ZM729 21 L729 215 L274 215 L274 21 L729 21 ZM756 284 L837 222 Q826 207 794 201 L794 -53 Q793 -58 774 -66 Q754 -74 739 -74 L729 -74 L729 -9 L274 -9 L274 -57 Q274 -62 256 -70 Q237 -79 219 -79 L209 -79 L209 276 L279 244 L719 244 L756 284 ZM580 815 Q576 800 540 796 Q673 653 971 558 L969 543 Q921 534 910 490 Q639 602 522 785 Q351 573 46 456 L39 471 Q165 531 292 641 Q422 753 464 841 L580 815 Z" /><glyph glyph-name="uni542F" unicode="&#x542f;" d="M451 847 Q579 824 588 760 Q591 736 573 725 Q554 714 530 728 Q506 783 441 839 L451 847 ZM792 29 L792 290 L381 290 L381 29 L792 29 ZM819 358 L897 298 Q888 285 860 280 L860 -50 Q859 -55 839 -63 Q818 -71 802 -71 L792 -71 L792 -1 L381 -1 L381 -52 Q381 -58 364 -66 Q345 -75 326 -75 L315 -75 L315 352 L387 319 L782 319 L819 358 ZM800 502 L800 689 L249 689 L249 502 L800 502 ZM905 697 Q894 684 866 679 L866 448 Q865 443 846 435 Q826 427 811 427 L800 427 L800 473 L249 473 Q240 103 54 -77 L39 -65 Q184 135 184 518 L184 751 L261 719 L791 719 L827 757 L905 697 Z" /><glyph glyph-name="uni5468" unicode="&#x5468;" d="M675 500 Q722 462 753 435 Q749 419 727 419 L273 419 L265 448 L462 448 L462 568 L294 568 L286 597 L462 597 L462 705 L553 696 Q550 677 525 673 L525 597 L615 597 L654 643 Q701 610 729 584 Q725 568 704 568 L525 568 L525 448 L632 448 L675 500 ZM618 136 L618 295 L387 295 L387 136 L618 136 ZM680 74 Q679 68 661 60 Q641 52 626 52 L618 52 L618 107 L387 107 L387 51 Q387 47 371 40 Q353 32 335 32 L326 32 L326 355 L392 324 L610 324 L642 360 L715 304 Q705 293 680 288 L680 74 ZM915 739 Q902 723 864 716 L864 21 Q864 -24 847 -43 Q824 -69 758 -75 Q753 -41 735 -27 Q711 -9 648 -1 L648 15 Q752 7 774 7 Q798 7 798 30 L798 733 L224 733 L224 470 Q224 295 198 186 Q159 23 53 -77 L39 -66 Q160 104 160 469 L160 796 L236 763 L787 763 L823 808 L915 739 Z" /><glyph glyph-name="uni547C" unicode="&#x547c;" d="M267 252 L267 678 L138 678 L138 252 L267 252 ZM373 686 Q361 672 329 666 L329 156 Q328 151 311 142 Q292 133 277 133 L267 133 L267 222 L138 222 L138 107 Q138 101 124 93 Q107 84 89 84 L78 84 L78 739 L143 707 L257 707 L294 748 L373 686 ZM896 389 Q950 348 983 317 Q979 301 956 301 L681 301 L681 20 Q681 -24 662 -45 Q638 -71 571 -77 Q568 -45 547 -32 Q520 -16 451 -8 L451 8 Q566 -1 590 -1 Q617 -1 617 22 L617 301 L338 301 L330 330 L617 330 L617 714 Q480 697 372 694 L368 710 Q658 748 841 831 L916 761 Q901 748 866 763 Q781 740 681 724 L681 330 L849 330 L896 389 ZM415 635 Q539 534 535 431 Q534 393 513 379 Q492 365 469 389 Q473 497 401 629 L415 635 ZM742 380 Q793 500 830 656 L932 623 Q923 603 895 604 Q834 467 758 372 L742 380 Z" /><glyph glyph-name="uni547D" unicode="&#x547d;" d="M386 130 L386 368 L215 368 L215 130 L386 130 ZM411 434 L486 376 Q474 364 449 359 L449 46 Q448 42 430 34 Q411 26 396 26 L386 26 L386 101 L215 101 L215 14 Q215 9 199 1 Q182 -7 164 -7 L153 -7 L153 427 L219 396 L377 396 L411 434 ZM626 598 Q678 559 710 531 Q706 515 685 515 L292 515 L284 543 L581 543 L626 598 ZM818 440 L900 380 Q886 366 860 362 L860 100 Q860 58 845 41 Q825 19 766 13 Q764 42 749 57 Q728 73 680 78 L680 95 Q758 88 777 88 Q796 88 796 108 L796 373 L611 373 L611 -52 Q611 -58 595 -66 Q577 -75 558 -75 L547 -75 L547 433 L616 401 L787 401 L818 440 ZM579 818 Q576 802 540 799 Q671 638 975 539 L973 523 Q926 515 913 470 Q636 588 521 788 Q355 561 38 438 L32 453 Q164 517 291 631 Q421 749 461 845 L579 818 Z" /><glyph glyph-name="uni548C" unicode="&#x548c;" d="M433 579 Q484 537 517 506 Q513 490 490 490 L308 490 L308 428 Q458 367 477 288 Q484 259 467 247 Q451 234 427 250 Q400 318 308 406 L308 -57 Q308 -62 293 -69 Q275 -78 254 -78 L244 -78 L244 361 Q175 202 49 86 L36 99 Q162 260 216 490 L50 490 L42 519 L244 519 L244 714 Q130 692 39 681 L35 698 Q253 749 415 834 L494 766 Q482 752 444 765 Q372 743 308 729 L308 519 L387 519 L433 579 ZM826 121 L826 652 L601 652 L601 121 L826 121 ZM937 659 Q927 643 891 637 L891 9 Q884 -9 836 -9 L826 -9 L826 92 L601 92 L601 -3 Q601 -10 585 -18 Q567 -27 548 -27 L536 -27 L536 714 L606 682 L815 682 L853 725 L937 659 Z" /><glyph glyph-name="uni554A" unicode="&#x554a;" d="M225 248 L225 710 L136 710 L136 248 L225 248 ZM250 776 L322 719 Q311 707 284 702 L284 144 Q283 138 267 130 Q249 122 234 122 L225 122 L225 218 L136 218 L136 90 Q136 84 123 76 Q107 68 89 68 L79 68 L79 770 L141 739 L216 739 L250 776 ZM585 730 Q577 722 544 720 Q482 543 459 489 Q542 382 542 261 Q543 189 524 160 Q504 131 453 129 Q453 156 443 166 Q435 175 411 177 L411 194 L455 194 Q466 194 473 199 Q489 213 489 269 Q489 390 435 486 Q453 553 489 732 L400 732 L400 -55 Q400 -60 387 -67 Q371 -76 353 -76 L345 -76 L345 791 L412 761 L484 761 L520 796 L585 730 ZM637 565 L637 285 L714 285 L714 565 L637 565 ZM637 255 L637 182 Q637 177 624 171 Q609 164 593 164 L584 164 L584 622 L641 594 L706 594 L736 625 L800 576 Q791 563 768 560 L768 203 Q767 197 751 190 Q735 182 722 182 L714 182 L714 255 L637 255 ZM893 817 Q943 778 974 748 Q970 732 948 732 L902 732 L902 18 Q902 -25 885 -45 Q863 -72 802 -78 Q800 -47 782 -33 Q755 -15 697 -8 L697 8 Q797 -1 818 -1 Q842 -1 842 22 L842 732 L587 732 L579 761 L849 761 L893 817 Z" /><glyph glyph-name="uni5584" unicode="&#x5584;" d="M731 7 L731 161 L270 161 L270 7 L731 7 ZM757 228 L835 170 Q823 156 796 151 L796 -49 Q795 -54 776 -62 Q756 -70 741 -70 L731 -70 L731 -23 L270 -23 L270 -56 Q270 -61 253 -69 Q235 -77 217 -77 L208 -77 L208 221 L276 191 L722 191 L757 228 ZM260 429 Q334 403 350 357 Q364 318 334 302 L467 302 L467 429 L260 429 ZM532 429 L532 302 L629 302 Q654 350 684 429 L532 429 ZM871 360 Q923 318 956 289 Q952 273 930 273 L52 273 L45 302 L301 302 Q297 304 289 310 Q286 371 234 427 L237 429 L86 429 L78 458 L467 458 L467 554 L179 554 L171 583 L467 583 L467 678 L125 678 L117 706 L336 706 L326 712 Q320 775 261 830 L272 837 Q361 817 385 768 Q405 725 371 706 L583 706 Q616 762 646 839 L747 810 Q739 791 707 792 Q674 753 613 706 L764 706 L808 762 Q859 723 891 694 Q887 678 865 678 L532 678 L532 583 L719 583 L762 636 Q812 599 842 570 Q839 554 817 554 L532 554 L532 458 L804 458 L850 515 Q901 475 933 445 Q929 429 907 429 L700 429 L783 406 Q776 386 745 386 Q702 337 660 302 L826 302 L871 360 Z" /><glyph glyph-name="uni559C" unicode="&#x559c;" d="M65 749 L465 749 L465 839 L568 828 Q566 805 532 801 L532 749 L807 749 L854 807 Q910 767 942 736 Q939 720 917 720 L532 720 L532 632 L736 632 L781 685 Q833 648 865 619 Q861 603 840 603 L149 603 L141 632 L465 632 L465 720 L73 720 L65 749 ZM725 396 L725 503 L272 503 L272 396 L725 396 ZM725 333 L725 366 L272 366 L272 343 Q272 339 254 332 Q235 324 217 324 L207 324 L207 564 L278 533 L716 533 L751 570 L829 512 Q818 499 791 494 L791 352 Q790 347 771 340 Q751 333 736 333 L725 333 ZM739 3 L739 129 L257 129 L257 3 L739 3 ZM764 196 L842 138 Q831 125 804 120 L804 -51 Q803 -55 784 -62 Q764 -70 749 -70 L739 -70 L739 -27 L257 -27 L257 -57 Q257 -62 239 -70 Q220 -78 202 -78 L192 -78 L192 191 L263 159 L729 159 L764 196 ZM861 313 Q915 272 949 240 Q946 224 922 224 L58 224 L50 254 L382 254 Q374 257 368 262 Q362 309 318 357 L329 364 Q408 344 427 303 Q442 268 411 254 L561 254 Q584 300 603 363 L700 341 Q693 320 662 320 Q633 288 593 254 L813 254 L861 313 Z" /><glyph glyph-name="uni56DB" unicode="&#x56db;" d="M831 88 L831 263 Q799 256 721 256 L647 256 Q599 256 583 270 Q569 283 569 319 L569 719 L428 719 Q423 506 393 412 Q347 272 209 191 L195 208 Q305 292 340 429 Q362 516 364 719 L166 719 L166 88 L831 88 ZM630 719 L630 334 Q630 313 660 313 L806 315 Q812 316 826 320 L831 320 L831 719 L630 719 ZM938 726 Q928 712 896 706 L896 -29 Q895 -35 877 -44 Q857 -54 841 -54 L831 -54 L831 59 L166 59 L166 -49 Q166 -57 151 -65 Q134 -74 114 -74 L102 -74 L102 782 L172 748 L821 748 L859 790 L938 726 Z" /><glyph glyph-name="uni56DE" unicode="&#x56de;" d="M623 279 L623 548 L379 548 L379 279 L623 279 ZM727 556 Q715 542 685 536 L685 203 Q684 198 666 190 Q647 181 632 181 L623 181 L623 250 L379 250 L379 193 Q379 187 363 180 Q347 172 329 172 L319 172 L319 608 L384 577 L613 577 L649 615 L727 556 ZM820 49 L820 741 L173 741 L173 49 L820 49 ZM928 749 Q917 734 885 728 L885 -38 Q884 -45 866 -54 Q846 -64 830 -64 L820 -64 L820 19 L173 19 L173 -48 Q173 -56 158 -64 Q141 -73 121 -73 L109 -73 L109 803 L180 771 L810 771 L848 813 L928 749 Z" /><glyph glyph-name="uni56FD" unicode="&#x56fd;" d="M724 221 Q773 183 803 154 Q799 138 778 138 L219 138 L212 167 L463 167 L463 389 L280 389 L272 419 L463 419 L463 599 L240 599 L232 627 L656 627 L700 682 Q749 643 779 615 Q775 599 753 599 L526 599 L526 419 L634 419 L676 471 Q722 434 751 405 Q748 389 725 389 L526 389 L526 167 L682 167 L724 221 ZM592 364 Q707 321 711 255 Q713 231 696 222 Q679 212 659 227 Q646 289 580 357 L592 364 ZM835 23 L835 749 L164 749 L164 23 L835 23 ZM944 756 Q932 742 900 736 L900 -46 Q899 -52 881 -62 Q862 -72 845 -72 L835 -72 L835 -6 L164 -6 L164 -51 Q164 -59 149 -67 Q131 -77 112 -77 L100 -77 L100 812 L171 778 L825 778 L863 821 L944 756 Z" /><glyph glyph-name="uni5728" unicode="&#x5728;" d="M316 414 Q312 401 286 396 L286 -56 Q285 -61 268 -68 Q249 -77 233 -77 L220 -77 L220 355 Q146 279 46 221 L35 234 Q218 369 335 616 L74 616 L66 646 L349 646 Q390 738 416 840 L525 809 Q518 790 484 791 Q462 721 425 646 L802 646 L851 707 Q907 664 941 632 Q937 616 915 616 L409 616 Q357 514 284 426 L316 414 ZM868 66 Q923 24 957 -8 Q953 -24 931 -24 L323 -24 L315 6 L580 6 L580 311 L378 311 L370 340 L580 340 L580 570 L677 560 Q675 539 645 534 L645 340 L758 340 L804 397 Q856 357 888 327 Q884 311 862 311 L645 311 L645 6 L820 6 L868 66 Z" /><glyph glyph-name="uni573A" unicode="&#x573a;" d="M408 246 Q200 134 107 89 Q102 71 87 64 L39 148 Q80 158 181 189 L181 527 L49 527 L41 557 L181 557 L181 819 L282 808 Q277 785 245 781 L245 557 L289 557 L331 615 Q379 573 408 543 Q404 527 382 527 L245 527 L245 209 L404 260 L408 246 ZM960 441 Q950 429 920 425 Q901 30 828 -38 Q790 -77 723 -77 Q723 -42 705 -30 Q683 -13 623 -4 L624 13 Q735 4 744 4 Q769 4 783 17 Q837 63 856 434 L780 434 Q701 82 355 -65 L344 -49 Q639 102 711 434 L632 434 Q538 189 289 59 L279 75 Q482 208 564 434 L479 434 L439 406 L381 478 Q409 489 446 492 Q631 630 746 738 L400 738 L391 768 L765 768 L801 807 L879 740 Q865 725 821 723 Q690 602 506 463 L846 463 L885 504 L960 441 Z" /><glyph glyph-name="uni5747" unicode="&#x5747;" d="M413 237 Q271 163 106 89 Q100 69 85 63 L39 149 Q72 156 174 184 L174 531 L49 531 L41 561 L174 561 L174 822 L275 811 Q270 788 238 783 L238 561 L260 561 L302 619 Q350 577 379 547 Q375 531 353 531 L238 531 L238 201 L409 252 L413 237 ZM782 313 Q600 204 463 130 Q461 113 445 104 L394 187 Q458 206 777 327 L782 313 ZM495 536 Q674 491 710 406 Q723 375 707 358 Q692 340 663 354 Q617 436 485 526 L495 536 ZM971 633 Q961 620 929 617 Q908 60 828 -28 Q782 -78 704 -78 Q704 -43 684 -28 Q656 -11 572 2 L574 21 Q685 8 732 8 Q762 8 778 23 Q843 79 867 625 L488 625 Q421 507 337 435 L322 444 Q440 591 498 838 L599 808 Q594 786 563 788 Q539 718 504 655 L856 655 L896 698 L971 633 Z" /><glyph glyph-name="uni5757" unicode="&#x5757;" d="M417 210 Q170 106 95 78 Q89 60 72 55 L31 143 Q71 149 177 173 L177 527 L43 527 L35 557 L177 557 L177 819 L278 808 Q273 784 241 780 L241 557 L291 557 L332 615 Q381 573 409 543 Q406 527 384 527 L241 527 L241 187 Q325 204 413 225 L417 210 ZM612 513 Q612 425 599 350 L765 350 L765 631 L612 631 L612 513 ZM894 407 Q944 367 971 336 Q968 320 947 320 L619 320 Q685 99 966 -10 L964 -21 Q911 -31 902 -75 Q661 41 599 320 L593 320 Q532 33 207 -78 L198 -60 Q475 60 530 320 L298 320 L291 350 L535 350 Q547 419 547 514 L547 631 L375 631 L366 661 L547 661 L547 836 L647 825 Q644 802 612 797 L612 661 L755 661 L793 700 L870 640 Q860 626 828 620 L828 350 L853 350 L894 407 Z" /><glyph glyph-name="uni575A" unicode="&#x575a;" d="M395 321 Q395 314 378 306 Q360 298 343 298 L330 298 L330 840 L428 829 Q425 808 395 803 L395 321 ZM198 383 Q198 377 181 370 Q163 362 146 362 L133 362 L133 771 L231 761 Q228 740 198 736 L198 383 ZM863 53 Q921 9 957 -24 Q954 -40 930 -40 L53 -40 L44 -11 L470 -11 L470 171 L134 171 L126 200 L470 200 L470 340 L572 329 Q569 307 536 302 L536 200 L742 200 L791 261 Q846 218 881 187 Q877 171 854 171 L536 171 L536 -11 L812 -11 L863 53 ZM546 729 Q590 611 682 524 Q763 614 806 729 L546 729 ZM919 733 Q911 722 879 721 Q820 582 722 491 Q820 413 958 373 L957 363 Q912 358 898 312 Q772 362 678 454 Q566 368 414 323 L405 338 Q548 396 647 489 Q565 587 524 729 L455 729 L446 758 L805 758 L848 798 L919 733 Z" /><glyph glyph-name="uni589E" unicode="&#x589e;" d="M454 834 Q579 795 584 722 Q586 696 567 684 Q548 673 525 690 Q512 758 444 826 L454 834 ZM223 202 Q267 215 363 241 L368 228 Q211 144 105 94 Q100 76 84 69 L40 156 Q106 171 160 185 L160 523 L48 523 L41 553 L160 553 L160 814 L260 803 Q255 780 223 775 L223 553 L239 553 L280 609 Q328 569 356 539 Q353 523 331 523 L223 523 L223 202 ZM779 13 L779 127 L483 127 L483 13 L779 13 ZM483 263 L483 157 L779 157 L779 263 L483 263 ZM805 331 L883 271 Q874 258 843 252 L843 -50 Q842 -56 824 -63 Q804 -71 789 -71 L779 -71 L779 -17 L483 -17 L483 -54 Q483 -59 467 -67 Q449 -75 431 -75 L421 -75 L421 324 L489 293 L770 293 L805 331 ZM470 605 Q573 553 573 489 Q573 465 557 456 Q541 447 522 462 Q515 525 457 598 L470 605 ZM836 571 Q826 551 799 554 Q757 488 722 443 L705 451 Q720 496 754 604 L836 571 ZM838 403 L838 646 L664 646 L664 403 L838 403 ZM436 403 L607 403 L607 646 L436 646 L436 403 ZM940 654 Q931 641 901 636 L901 358 Q900 352 882 345 Q863 337 848 337 L838 337 L838 374 L436 374 L436 341 Q436 336 419 328 Q401 320 384 320 L374 320 L374 706 L441 676 L702 676 Q754 804 767 840 L873 804 Q866 786 835 787 Q790 735 729 676 L829 676 L864 713 L940 654 Z" /><glyph glyph-name="uni5907" unicode="&#x5907;" d="M333 694 Q323 681 310 668 Q383 594 512 534 Q632 610 702 694 L333 694 ZM268 306 L268 176 L475 176 L475 306 L268 306 ZM536 306 L536 176 L737 176 L737 306 L536 306 ZM737 13 L737 146 L536 146 L536 13 L737 13 ZM268 13 L475 13 L475 146 L268 146 L268 13 ZM840 694 Q831 683 793 682 Q705 582 579 507 Q751 442 976 415 L974 402 Q928 394 916 343 Q686 385 518 474 Q384 405 218 362 L274 335 L728 335 L764 374 L843 314 Q833 300 803 294 L803 -50 Q802 -55 783 -63 Q762 -72 747 -72 L737 -72 L737 -16 L268 -16 L268 -55 Q268 -61 251 -69 Q233 -78 214 -78 L203 -78 L203 358 L205 359 Q131 340 41 326 L34 344 Q274 400 463 505 Q359 570 296 651 Q190 534 78 466 L66 479 Q242 623 343 839 L447 809 Q439 794 409 797 Q393 771 357 724 L713 724 L766 766 L840 694 Z" /><glyph glyph-name="uni590D" unicode="&#x590d;" d="M278 692 Q187 563 67 493 L55 506 Q195 631 272 837 L370 795 Q361 773 331 779 Q313 747 297 721 L758 721 L805 781 Q860 739 894 708 Q891 692 868 692 L278 692 ZM339 220 Q399 138 513 86 Q615 147 673 227 L345 227 L339 220 ZM303 380 L702 380 L702 465 L303 465 L303 380 ZM303 579 L303 495 L702 495 L702 579 L303 579 ZM800 228 Q788 217 754 217 Q684 127 574 61 Q725 9 950 -4 L950 -16 Q903 -27 892 -77 Q650 -46 513 30 Q337 -53 67 -78 L61 -61 Q305 -23 464 59 Q377 119 324 205 Q236 115 122 62 L113 76 Q269 181 349 350 L303 350 L303 335 Q303 329 286 321 Q267 313 248 313 L238 313 L238 639 L308 608 L694 608 L728 644 L803 588 Q791 574 768 571 L768 341 Q767 336 748 328 Q727 320 712 320 L702 320 L702 350 L351 350 L440 312 Q431 296 402 300 Q390 281 369 256 L681 256 L730 296 L800 228 Z" /><glyph glyph-name="uni590F" unicode="&#x590f;" d="M335 199 Q402 127 502 82 Q603 139 663 209 L344 209 L335 199 ZM421 315 Q403 283 368 239 L675 239 L723 279 L718 279 L718 315 L421 315 ZM265 345 L718 345 L718 421 L265 421 L265 345 ZM265 631 L265 557 L718 557 L718 631 L265 631 ZM718 527 L265 527 L265 451 L718 451 L718 527 ZM794 212 Q783 200 749 200 Q672 115 565 56 Q718 5 964 -4 L962 -15 Q916 -28 909 -74 Q644 -47 505 28 Q322 -55 46 -80 L39 -63 Q282 -25 455 57 Q381 107 319 184 Q220 85 78 17 L68 33 Q241 145 339 315 L265 315 L265 287 Q265 281 248 273 Q230 264 212 264 L201 264 L201 692 L271 660 L418 660 Q423 682 435 743 L75 743 L66 773 L802 773 L852 831 Q908 790 944 759 Q940 743 917 743 L512 743 Q480 685 462 660 L708 660 L744 699 L824 638 Q814 625 783 618 L783 302 Q782 296 763 288 Q744 279 728 279 L725 279 L794 212 Z" /><glyph glyph-name="uni591A" unicode="&#x591a;" d="M64 313 Q528 433 731 683 L402 683 Q369 659 329 634 Q451 601 468 536 Q474 512 460 500 Q445 488 422 500 Q394 559 305 619 Q204 559 105 525 L96 539 Q332 653 462 834 L569 805 Q563 788 524 789 Q488 751 438 712 L746 712 L786 750 L859 683 Q848 674 812 672 Q576 391 72 295 L64 313 ZM953 319 Q943 310 904 307 Q775 136 573 45 Q381 -42 71 -77 L65 -58 Q345 -8 515 72 Q707 163 822 319 L511 319 Q466 286 410 253 Q537 220 553 147 Q559 119 544 106 Q528 92 503 106 Q480 174 383 237 Q247 161 122 124 L113 139 Q399 255 560 455 L670 428 Q665 411 624 412 Q599 388 551 349 L834 349 L878 387 L953 319 Z" /><glyph glyph-name="uni591F" unicode="&#x591f;" d="M160 494 L160 256 L261 256 L261 494 L160 494 ZM506 685 Q495 674 463 668 Q457 46 401 -28 Q366 -76 295 -76 Q295 -41 281 -29 Q262 -14 199 -3 L200 16 Q283 7 314 7 Q339 7 352 21 Q394 67 403 677 L187 677 Q156 604 118 547 L172 523 L251 523 L285 559 L359 502 Q348 489 318 483 L318 198 Q317 193 300 186 Q282 178 269 178 L261 178 L261 226 L160 226 L160 162 Q160 156 147 149 Q132 141 112 141 L104 141 L104 526 Q73 482 45 454 L30 463 Q123 610 166 838 L264 813 Q259 791 228 791 Q211 738 199 706 L392 706 L430 749 L506 685 ZM978 335 Q968 323 936 322 Q797 28 466 -78 L457 -62 Q751 66 865 331 L704 331 Q669 291 636 262 Q739 228 738 168 Q737 146 720 137 Q703 128 682 143 Q672 192 617 245 Q557 194 490 160 L479 174 Q628 275 710 453 Q619 374 489 321 L477 336 Q713 462 822 694 L665 694 Q636 656 606 624 Q708 600 710 542 Q711 520 695 511 Q678 501 657 514 Q645 560 588 606 Q540 560 493 532 L480 543 Q607 651 665 838 L767 816 Q762 800 731 802 Q709 758 685 722 L829 722 L864 758 L935 698 Q923 687 891 686 Q826 560 734 474 L819 451 Q813 435 783 439 Q763 404 729 360 L871 360 L907 396 L978 335 Z" /><glyph glyph-name="uni2F24" unicode="&#x2f24;&#x5927;" d="M533 514 Q601 157 972 -13 L970 -24 Q914 -30 901 -79 Q574 101 514 513 Q490 316 401 187 Q290 27 51 -78 L40 -60 Q245 49 342 202 Q422 328 444 514 L59 514 L50 543 L447 543 Q455 636 455 836 L562 825 Q557 801 528 796 Q524 612 517 543 L805 543 L860 612 Q921 564 958 530 Q955 514 932 514 L533 514 Z" /><glyph glyph-name="uni5929" unicode="&#x5929;" d="M529 427 Q600 125 969 -14 L967 -26 Q909 -31 899 -79 Q572 73 509 427 Q484 249 391 137 Q281 5 47 -80 L36 -62 Q239 26 335 154 Q416 261 438 427 L70 427 L62 456 L442 456 Q450 527 452 714 L131 714 L122 744 L751 744 L802 807 Q859 763 896 730 Q892 714 868 714 L526 714 Q522 537 513 456 L810 456 L861 520 Q919 476 956 443 Q952 427 928 427 L529 427 Z" /><glyph glyph-name="uni594B" unicode="&#x594b;" d="M257 355 L257 206 L464 206 L464 355 L257 355 ZM527 355 L527 206 L740 206 L740 355 L527 355 ZM740 19 L740 177 L527 177 L527 19 L740 19 ZM464 19 L464 177 L257 177 L257 19 L464 19 ZM602 652 Q704 495 952 432 L950 420 Q897 406 888 365 Q673 450 575 652 L451 652 Q365 502 203 412 L263 384 L731 384 L767 423 L842 363 Q830 349 804 345 L804 -50 Q803 -55 785 -63 Q765 -71 750 -71 L740 -71 L740 -10 L257 -10 L257 -52 Q257 -58 240 -66 Q222 -75 204 -75 L193 -75 L193 407 Q136 375 61 349 L52 362 Q271 457 380 652 L69 652 L60 682 L396 682 Q430 753 451 835 L550 808 Q542 787 511 789 Q489 722 467 682 L802 682 L850 741 Q905 700 939 668 Q935 652 914 652 L602 652 Z" /><glyph glyph-name="uni5965" unicode="&#x5965;" d="M223 260 Q223 254 207 246 Q189 238 171 238 L160 238 L160 761 L229 728 L388 728 Q405 776 423 848 L538 822 Q532 801 499 801 Q489 789 466 766 L430 728 L761 728 L799 769 L878 706 Q868 692 836 686 L836 276 Q835 270 817 261 Q797 252 781 252 L771 252 L771 699 L223 699 L223 260 ZM527 477 L527 452 Q673 431 705 363 Q716 338 704 323 Q691 309 667 319 Q633 378 527 433 L527 328 Q527 322 512 315 Q495 307 481 307 L469 307 L469 443 Q396 353 269 290 L258 307 Q359 375 421 477 L271 477 L263 506 L469 506 L469 679 L554 670 Q552 651 527 647 L527 506 L637 506 L673 549 Q714 518 740 493 Q737 477 716 477 L527 477 ZM321 654 Q424 615 424 557 Q424 535 408 527 Q392 519 373 534 Q362 592 309 647 L321 654 ZM707 615 Q696 599 672 605 Q630 565 569 523 L559 531 Q604 600 630 660 L707 615 ZM540 176 Q646 26 969 -4 L969 -15 Q925 -26 915 -77 Q612 -18 515 174 Q484 88 391 32 Q278 -35 42 -80 L35 -59 Q377 26 442 176 L51 176 L42 205 L452 205 Q462 237 467 286 L569 275 Q567 250 534 249 L525 205 L827 205 L874 266 Q926 223 958 192 Q954 176 931 176 L540 176 Z" /><glyph glyph-name="uni597D" unicode="&#x597d;" d="M227 578 Q175 390 136 282 Q210 249 264 218 Q325 362 345 578 L227 578 ZM448 582 Q438 571 411 568 Q382 326 311 188 Q430 109 437 44 Q440 19 424 10 Q407 1 385 13 Q355 63 278 133 Q192 2 38 -75 L27 -61 Q164 27 239 167 Q173 224 77 286 Q108 366 163 578 L46 578 L37 607 L170 607 Q209 768 221 843 L322 821 Q315 799 282 798 Q268 726 235 607 L338 607 L376 648 L448 582 ZM889 459 Q940 418 972 388 Q968 372 945 372 L709 372 L709 18 Q709 -28 692 -47 Q669 -72 604 -79 Q601 -44 582 -31 Q556 -13 494 -5 L494 11 Q600 3 621 3 Q645 3 645 23 L645 372 L417 372 L409 401 L645 401 L645 566 L691 561 Q735 608 809 717 L446 717 L438 746 L816 746 L860 789 L936 718 Q928 710 895 708 Q787 607 715 558 L745 555 Q740 533 709 529 L709 401 L845 401 L889 459 Z" /><glyph glyph-name="uni5982" unicode="&#x5982;" d="M232 596 Q183 417 135 274 Q226 236 286 201 Q355 346 370 596 L232 596 ZM401 666 L474 600 Q465 589 437 586 Q410 308 332 171 Q447 93 453 30 Q455 6 438 -3 Q422 -11 399 1 Q368 50 296 115 Q205 -8 42 -76 L32 -61 Q180 17 258 148 Q171 220 75 277 Q115 390 165 596 L46 596 L37 625 L172 625 Q206 768 217 839 L319 819 Q312 797 280 796 Q272 758 239 625 L362 625 L401 666 ZM818 117 L818 653 L595 653 L595 117 L818 117 ZM929 660 Q918 644 884 639 L884 4 Q882 -2 864 -11 Q844 -21 828 -21 L818 -21 L818 87 L595 87 L595 -21 Q595 -28 580 -36 Q563 -45 543 -45 L531 -45 L531 717 L600 683 L807 683 L846 726 L929 660 Z" /><glyph glyph-name="uni59CB" unicode="&#x59cb;" d="M224 578 Q178 405 133 281 Q212 244 263 212 Q325 358 345 578 L224 578 ZM448 583 Q437 571 409 568 Q382 323 308 182 Q419 102 424 38 Q425 14 409 6 Q393 -3 370 10 Q344 58 276 126 Q189 -3 42 -78 L32 -64 Q165 22 238 161 Q161 228 75 286 Q112 389 160 578 L46 578 L38 607 L168 607 Q202 746 217 842 L318 820 Q310 799 279 798 Q259 707 232 607 L337 607 L375 648 L448 583 ZM834 37 L834 295 L554 295 L554 37 L834 37 ZM863 364 L935 307 Q925 295 896 291 L896 -47 Q896 -51 881 -58 Q863 -66 844 -66 L834 -66 L834 7 L554 7 L554 -56 Q554 -61 540 -68 Q523 -76 502 -76 L493 -76 L493 356 L565 325 L830 325 L863 364 ZM761 667 Q935 581 956 470 Q964 429 945 411 Q926 392 898 414 Q894 442 875 486 Q688 449 497 423 Q489 409 477 404 L439 488 Q457 492 464 499 Q578 624 651 837 L754 796 Q746 776 717 779 Q628 617 500 488 Q641 491 865 507 Q821 588 749 659 L761 667 Z" /><glyph glyph-name="uni5B58" unicode="&#x5b58;" d="M847 342 Q901 300 935 269 Q931 253 908 253 L664 253 L664 18 Q664 -28 646 -47 Q624 -71 557 -78 Q552 -44 535 -31 Q510 -15 445 -7 L445 9 Q553 2 575 2 Q599 2 599 22 L599 253 L350 253 L342 283 L599 283 L599 383 L644 378 Q705 434 758 497 L410 497 L401 526 L767 526 L809 567 L883 496 Q873 487 843 486 Q779 430 677 374 L699 372 Q696 351 664 347 L664 283 L799 283 L847 342 ZM849 739 Q906 696 942 663 Q938 647 915 647 L404 647 Q350 538 286 453 L316 441 Q311 427 286 423 L286 -42 Q285 -51 270 -62 Q252 -76 233 -76 L222 -76 L222 376 Q149 296 56 234 L44 246 Q222 392 332 647 L79 647 L71 677 L344 677 Q377 756 398 840 L503 807 Q497 788 463 790 Q436 714 418 677 L798 677 L849 739 Z" /><glyph glyph-name="uni5B87" unicode="&#x5b87;" d="M438 840 Q569 809 570 734 Q571 707 550 695 Q529 683 504 702 Q494 773 427 833 L438 840 ZM855 384 Q911 342 945 310 Q942 294 919 294 L533 294 L533 25 Q533 -20 514 -41 Q489 -69 421 -75 Q418 -40 398 -27 Q373 -9 300 -1 L300 15 Q418 7 441 7 Q467 7 467 27 L467 294 L61 294 L52 323 L467 323 L467 497 L202 497 L194 526 L666 526 L712 580 Q764 543 798 513 Q794 497 772 497 L533 497 L533 323 L806 323 L855 384 ZM959 649 Q952 641 920 639 Q873 578 804 527 L790 535 Q808 569 837 651 L183 651 Q184 564 127 524 Q107 509 84 511 Q60 513 52 531 Q39 563 79 588 Q111 606 132 644 Q156 686 152 732 L169 733 Q178 704 181 681 L835 681 L879 725 L959 649 Z" /><glyph glyph-name="uni5B88" unicode="&#x5b88;" d="M438 840 Q570 810 571 735 Q571 707 551 695 Q529 683 504 702 Q494 775 427 833 L438 840 ZM232 351 Q403 286 419 184 Q426 147 405 130 Q383 113 354 134 Q334 236 221 343 L232 351 ZM842 491 Q898 447 933 415 Q929 399 906 399 L673 399 L673 22 Q673 -26 653 -46 Q627 -73 551 -81 Q545 -44 524 -31 Q494 -13 413 -3 L413 13 Q551 4 578 4 Q607 4 607 27 L607 399 L98 399 L90 429 L607 429 L607 602 L709 591 Q704 568 673 564 L673 429 L794 429 L842 491 ZM959 649 Q952 641 920 639 Q863 570 799 527 L787 534 Q815 591 836 651 L183 651 Q184 562 127 524 Q107 509 84 511 Q60 513 52 531 Q39 563 79 588 Q111 606 132 644 Q156 686 152 732 L169 733 Q178 707 181 681 L835 681 L879 725 L959 649 Z" /><glyph glyph-name="uni5B89" unicode="&#x5b89;" d="M430 844 Q566 809 569 731 Q570 701 549 689 Q528 676 502 695 Q492 774 419 836 L430 844 ZM414 406 Q357 290 301 197 Q441 168 515 147 Q611 243 658 406 L414 406 ZM863 498 Q919 455 953 422 Q949 406 928 406 L737 406 Q680 227 583 127 Q843 48 884 -32 Q899 -60 877 -71 Q855 -82 825 -65 Q719 12 536 85 Q381 -36 49 -78 L44 -59 Q331 -5 472 109 Q356 151 227 188 Q276 266 341 406 L56 406 L48 436 L355 436 Q408 555 434 628 L536 598 Q531 576 495 579 Q448 475 429 436 L815 436 L863 498 ZM958 649 Q951 641 920 639 Q866 574 795 525 L782 533 Q811 586 836 651 L185 651 Q184 559 128 526 Q109 511 86 513 Q62 515 53 533 Q40 566 80 589 Q112 607 133 645 Q157 688 153 734 L171 735 Q180 707 183 681 L835 681 L878 725 L958 649 Z" /><glyph glyph-name="uni5B99" unicode="&#x5b99;" d="M438 840 Q569 809 570 734 Q571 707 550 695 Q529 683 504 702 Q494 773 427 833 L438 840 ZM752 25 L752 220 L535 220 L535 25 L752 25 ZM252 25 L470 25 L470 220 L252 220 L252 25 ZM252 426 L252 250 L470 250 L470 426 L252 426 ZM535 426 L535 250 L752 250 L752 426 L535 426 ZM779 496 L859 433 Q849 419 817 413 L817 -46 Q815 -52 797 -60 Q777 -69 761 -69 L752 -69 L752 -4 L252 -4 L252 -53 Q252 -59 236 -67 Q218 -76 199 -76 L188 -76 L188 487 L258 455 L470 455 L470 616 L571 605 Q568 582 535 577 L535 455 L742 455 L779 496 ZM959 649 Q952 641 920 639 Q864 571 800 527 L787 535 Q815 588 836 651 L183 651 Q184 562 127 524 Q107 509 84 511 Q60 513 52 531 Q39 563 79 588 Q111 606 132 644 Q156 686 152 732 L169 733 Q178 704 181 681 L835 681 L879 725 L959 649 Z" /><glyph glyph-name="uni5B9A" unicode="&#x5b9a;" d="M438 839 Q569 808 570 733 Q571 706 550 694 Q529 682 504 701 Q494 772 427 832 L438 839 ZM183 650 Q184 559 126 524 Q107 510 83 512 Q59 514 50 532 Q37 565 79 589 Q111 606 132 644 Q156 686 152 731 L169 732 Q178 702 181 680 L835 680 L878 724 L958 648 Q949 639 920 638 Q875 583 809 538 L796 546 Q818 593 837 650 L183 650 ZM532 18 Q602 7 710 7 Q900 7 964 9 L964 -5 Q925 -12 922 -58 L705 -58 Q521 -58 429 -12 Q324 40 266 183 Q194 9 46 -79 L35 -67 Q212 76 249 381 L352 359 Q346 337 315 336 Q301 270 276 207 Q339 72 467 33 L467 479 L167 479 L159 509 L712 509 L759 563 Q813 525 846 495 Q842 479 820 479 L532 479 L532 295 L707 295 L753 353 Q808 313 840 281 Q837 265 815 265 L532 265 L532 18 Z" /><glyph glyph-name="uni5B9E" unicode="&#x5b9e;" d="M438 840 Q569 810 570 735 Q571 707 550 695 Q529 683 504 702 Q494 775 427 833 L438 840 ZM183 651 Q184 560 126 525 Q107 511 83 513 Q59 515 50 533 Q37 566 79 590 Q111 607 132 645 Q156 687 152 732 L169 733 Q178 706 181 681 L835 681 L878 725 L958 649 Q949 640 920 639 Q871 574 809 526 L796 533 Q819 584 838 651 L183 651 ZM264 600 Q413 570 434 498 Q441 471 424 458 Q407 444 380 457 Q343 525 253 591 L264 600 ZM183 452 Q343 420 367 342 Q375 313 358 298 Q340 283 312 297 Q279 368 174 444 L183 452 ZM854 318 Q910 273 946 240 Q942 224 919 224 L540 224 Q533 204 518 176 Q800 114 875 4 Q901 -34 888 -57 Q874 -80 842 -64 Q739 67 507 159 Q404 -4 49 -80 L40 -62 Q392 31 470 224 L76 224 L67 253 L480 253 Q509 343 509 615 L613 604 Q609 581 578 577 Q574 339 549 253 L803 253 L854 318 Z" /><glyph glyph-name="uni5BA2" unicode="&#x5ba2;" d="M430 842 Q556 825 561 756 Q562 730 543 719 Q524 706 499 722 Q486 787 420 833 L430 842 ZM699 254 Q599 290 511 350 Q416 291 298 244 L338 227 L675 227 L699 254 ZM685 18 L685 197 L325 197 L325 18 L685 18 ZM364 535 Q417 465 506 410 Q596 478 650 549 L375 549 L364 535 ZM785 548 Q773 539 732 538 Q672 459 558 381 Q730 294 969 263 L967 253 Q921 245 909 194 Q830 210 752 235 L791 205 Q778 192 750 186 L750 -49 Q749 -54 730 -62 Q710 -70 695 -70 L685 -70 L685 -12 L325 -12 L325 -50 Q325 -55 311 -63 Q293 -73 272 -73 L261 -73 L261 228 Q159 188 48 163 L40 178 Q277 248 468 383 Q394 445 348 519 Q243 409 105 348 L94 362 Q270 475 378 677 L179 677 Q182 589 124 549 Q105 535 84 536 Q61 536 53 553 Q40 583 78 605 Q109 623 130 662 Q153 705 149 752 L166 753 Q175 723 177 707 L835 707 L875 750 L953 676 Q944 667 915 665 Q866 590 820 547 L807 554 Q822 599 840 677 L381 677 L470 628 Q459 610 429 617 Q420 602 399 578 L656 578 L708 622 L785 548 Z" /><glyph glyph-name="uni5BB6" unicode="&#x5bb6;" d="M430 842 Q556 825 561 756 Q562 730 543 719 Q524 706 499 722 Q486 787 420 833 L430 842 ZM177 677 Q178 592 122 555 Q103 542 82 543 Q60 544 52 561 Q39 590 77 612 Q155 656 147 752 L165 753 Q172 731 175 707 L835 707 L875 749 L953 676 Q945 668 915 665 Q866 605 823 572 L810 580 Q822 609 839 677 L177 677 ZM879 429 Q867 416 841 425 Q764 375 623 321 Q712 131 960 51 L958 40 Q917 34 900 -15 Q679 89 602 314 Q562 300 543 294 Q588 197 585 95 Q581 0 540 -44 Q510 -80 429 -79 Q428 -50 408 -37 Q384 -20 323 -12 L322 5 Q404 -3 459 -3 Q480 -3 487 7 Q533 60 514 193 Q336 43 67 -34 L59 -16 Q346 89 494 278 Q483 308 472 334 Q309 213 88 144 L80 161 Q299 249 436 396 Q419 420 399 442 Q274 367 102 317 L93 333 Q292 415 427 535 L193 535 L185 564 L699 564 L743 620 Q794 581 827 551 Q824 535 801 535 L525 535 Q484 497 417 453 Q490 396 534 312 Q701 398 797 489 L879 429 Z" /><glyph glyph-name="uni5BCC" unicode="&#x5bcc;" d="M430 854 Q555 837 560 769 Q562 744 543 732 Q524 720 499 736 Q486 800 420 846 L430 854 ZM767 10 L767 113 L532 113 L532 10 L767 10 ZM231 10 L468 10 L468 113 L231 113 L231 10 ZM231 243 L231 142 L468 142 L468 243 L231 243 ZM532 243 L532 142 L767 142 L767 243 L532 243 ZM794 312 L874 251 Q863 236 832 230 L832 -53 Q831 -58 812 -65 Q793 -73 777 -73 L767 -73 L767 -20 L231 -20 L231 -54 Q231 -60 213 -68 Q195 -76 177 -76 L166 -76 L166 305 L237 272 L757 272 L794 312 ZM684 383 L684 485 L314 485 L314 383 L684 383 ZM684 313 L684 353 L314 353 L314 325 Q314 321 296 314 Q276 306 259 306 L250 306 L250 546 L319 514 L684 515 L675 515 L710 552 L787 494 Q776 481 748 475 L748 333 Q747 328 729 320 Q709 313 694 313 L684 313 ZM720 671 Q768 635 799 607 Q796 591 774 591 L215 591 L208 620 L678 620 L720 671 ZM953 690 Q946 683 916 680 Q872 619 824 578 L811 585 Q825 628 840 692 L176 692 Q177 605 121 568 Q102 555 81 556 Q58 557 51 574 Q38 604 76 626 Q107 643 128 681 Q150 722 147 767 L164 767 Q171 746 174 722 L835 722 L876 764 L953 690 Z" /><glyph glyph-name="uni5BD2" unicode="&#x5bd2;" d="M430 847 Q554 836 559 770 Q561 745 542 734 Q522 722 498 737 Q481 798 420 839 L430 847 ZM170 696 Q173 613 120 574 Q101 561 80 562 Q58 563 49 580 Q37 611 75 632 Q104 649 123 686 Q143 726 139 770 L157 771 Q166 741 168 725 L844 725 L885 767 L962 694 Q952 685 925 684 Q878 625 833 590 L820 598 Q832 628 849 696 L170 696 ZM279 64 Q637 54 708 -27 Q732 -55 707 -71 Q682 -87 649 -67 Q525 9 277 46 L279 64 ZM387 232 Q600 210 624 138 Q633 113 611 102 Q590 90 568 109 Q514 175 382 216 L387 232 ZM400 321 L596 321 L596 417 L400 417 L400 321 ZM400 447 L596 447 L596 541 L400 541 L400 447 ZM662 291 Q769 172 973 118 L972 106 Q934 100 920 55 Q722 141 633 291 L384 291 Q271 126 40 28 L30 42 Q214 144 304 291 L63 291 L54 321 L337 321 L337 417 L174 417 L166 447 L337 447 L337 541 L154 541 L146 571 L337 571 L337 669 L426 659 Q423 642 400 637 L400 571 L596 571 L596 668 L685 659 Q684 641 659 636 L659 571 L742 571 L782 614 Q825 583 854 557 Q850 541 829 541 L659 541 L659 447 L743 447 L780 488 Q821 458 849 433 Q845 417 824 417 L659 417 L659 321 L829 321 L870 367 Q919 335 949 307 Q946 291 924 291 L662 291 Z" /><glyph glyph-name="uni5BF9" unicode="&#x5bf9;" d="M482 688 Q473 677 443 674 Q404 494 337 348 Q396 266 430 196 Q471 101 444 63 Q433 48 416 56 Q399 65 385 96 Q363 179 307 286 Q206 89 44 -42 L30 -30 Q173 116 272 348 Q192 482 100 568 L115 577 Q213 498 293 402 Q347 539 374 685 L57 685 L48 715 L369 715 L410 756 L482 688 ZM487 455 Q637 389 650 287 Q654 249 636 233 Q617 215 593 237 Q544 383 477 445 L487 455 ZM877 652 Q928 608 957 576 Q953 560 931 560 L804 560 L804 23 Q804 -23 785 -43 Q761 -69 691 -77 Q684 -41 664 -28 Q636 -9 564 -1 L564 15 Q688 6 711 6 Q739 6 739 30 L739 560 L447 560 L439 590 L739 590 L739 833 L841 822 Q836 799 804 794 L804 590 L833 590 L877 652 Z" /><glyph glyph-name="uni5C04" unicode="&#x5c04;" d="M398 300 L398 417 L186 417 L186 300 L398 300 ZM186 677 L186 578 L398 578 L398 677 L186 677 ZM398 548 L186 548 L186 447 L398 447 L398 548 ZM503 683 Q488 668 458 664 L458 13 Q458 -31 442 -50 Q421 -74 359 -81 Q354 -47 337 -34 Q314 -17 253 -9 L252 6 Q352 -2 374 -2 Q398 -2 398 20 L398 271 L394 271 Q289 70 45 -44 L35 -29 Q217 83 316 271 L55 271 L46 300 L126 300 L126 738 L199 707 L244 707 Q258 778 264 837 L370 819 Q365 799 334 796 Q318 766 282 707 L390 707 L421 746 L503 683 ZM553 461 Q682 374 679 276 Q678 239 657 226 Q635 213 612 237 Q615 334 540 456 L553 461 ZM894 636 Q944 594 973 563 Q969 547 947 547 L826 547 L826 20 Q826 -26 808 -45 Q785 -71 719 -78 Q714 -43 695 -29 Q669 -11 604 -3 L604 13 Q715 5 736 5 Q762 5 762 27 L762 547 L493 547 L485 577 L762 577 L762 825 L862 814 Q859 792 826 786 L826 577 L850 577 L894 636 Z" /><glyph glyph-name="uni5C06" unicode="&#x5c06;" d="M71 674 Q208 608 213 517 Q214 483 195 470 Q175 457 151 478 Q145 573 59 667 L71 674 ZM345 823 Q340 799 308 794 L308 -49 Q308 -57 291 -66 Q274 -76 257 -76 L244 -76 L244 334 Q187 254 110 166 Q115 147 102 134 L39 206 Q128 262 244 371 L244 834 L345 823 ZM938 701 Q929 691 894 689 Q715 427 343 328 L333 343 Q663 465 813 699 L553 699 Q535 678 497 638 Q602 608 606 547 Q607 524 590 514 Q573 504 552 518 Q540 569 478 620 Q416 561 350 523 L339 535 Q482 651 558 840 L662 812 Q656 796 625 800 Q613 779 576 728 L824 728 L863 766 L938 701 ZM461 258 Q603 208 615 127 Q619 97 601 83 Q583 70 558 87 Q542 168 450 251 L461 258 ZM883 374 Q933 332 963 301 Q960 285 937 285 L803 285 L803 19 Q803 -27 784 -46 Q760 -71 689 -79 Q683 -45 661 -33 Q633 -14 556 -6 L556 10 Q686 1 712 1 Q740 1 740 23 L740 285 L362 285 L354 314 L740 314 L740 468 L839 457 Q835 436 803 431 L803 314 L840 314 L883 374 Z" /><glyph glyph-name="uni5C0F" unicode="&#x5c0f;" d="M687 580 Q909 406 943 232 Q955 168 934 140 Q912 113 877 143 Q860 325 672 573 L687 580 ZM352 560 Q347 542 313 543 Q215 248 53 90 L41 100 Q179 293 243 595 L352 560 ZM581 816 Q576 793 544 789 L544 29 Q544 -20 524 -41 Q497 -69 421 -77 Q416 -40 393 -26 Q364 -6 285 5 L285 22 Q420 12 445 12 Q475 12 475 36 L475 828 L581 816 Z" /><glyph glyph-name="uni5C11" unicode="&#x5c11;" d="M572 823 Q569 800 535 796 L535 263 Q535 255 517 244 Q498 232 480 232 L469 232 L469 834 L572 823 ZM662 685 Q881 571 927 447 Q944 402 927 380 Q910 359 879 380 Q832 508 651 676 L662 685 ZM376 652 Q368 633 338 637 Q227 390 59 253 L47 264 Q201 439 274 690 L376 652 ZM833 343 Q822 329 789 335 Q665 135 484 39 Q334 -41 80 -78 L76 -60 Q317 -4 454 81 Q628 189 738 394 L833 343 Z" /><glyph glyph-name="uni5C31" unicode="&#x5c31;" d="M762 786 Q887 742 891 673 Q893 647 875 637 Q856 626 834 643 Q819 708 751 778 L762 786 ZM212 837 Q334 802 338 734 Q340 708 322 697 Q303 686 280 702 Q268 761 201 830 L212 837 ZM49 648 L41 678 L427 678 L474 738 Q528 696 562 664 Q558 648 534 648 L49 648 ZM227 233 Q219 214 191 215 Q134 85 52 18 L37 27 Q103 122 136 263 L227 233 ZM170 374 L403 374 L403 530 L170 530 L170 374 ZM318 344 L318 17 Q318 -26 302 -46 Q281 -72 225 -79 Q221 -44 209 -32 Q190 -15 138 -9 L138 7 Q217 0 235 0 Q255 0 255 19 L255 344 L170 344 L170 317 Q170 312 154 305 Q136 297 119 297 L109 297 L109 589 L175 560 L394 560 L428 596 L504 539 Q492 524 465 520 L465 328 Q464 323 446 316 Q427 309 412 309 L403 309 L403 344 L318 344 ZM371 261 Q494 200 494 122 Q494 93 475 82 Q456 71 434 90 Q428 172 358 254 L371 261 ZM947 12 Q972 2 972 -17 Q972 -56 842 -56 L780 -55 Q737 -55 722 -40 Q708 -28 708 7 L708 526 L683 526 Q673 313 622 185 Q558 24 408 -80 L394 -63 Q516 42 569 197 Q612 323 620 526 L517 526 L509 556 L621 556 Q622 600 622 836 L724 825 Q719 802 688 797 Q686 598 684 556 L833 556 L878 614 Q932 573 965 542 Q961 526 939 526 L770 526 L770 24 Q770 11 774 8 Q779 3 796 3 L842 3 Q881 3 888 4 Q899 6 902 17 Q909 34 931 175 L944 175 L947 12 Z" /><glyph glyph-name="uni5C4B" unicode="&#x5c4b;" d="M584 459 Q490 382 352 312 Q417 313 759 324 Q702 369 637 402 L646 414 Q837 379 885 290 Q903 258 889 239 Q876 219 846 232 Q829 262 783 303 Q593 278 316 250 Q308 238 295 233 L267 314 Q282 316 290 319 Q383 355 489 459 L256 459 L247 489 L787 489 L834 542 Q887 505 920 475 Q917 459 894 459 L584 459 ZM226 751 L226 616 L813 616 L813 751 L226 751 ZM226 546 Q226 118 51 -76 L36 -67 Q161 138 161 546 L161 813 L238 781 L803 781 L839 819 L919 759 Q908 745 877 738 L877 569 Q876 565 858 558 Q838 550 823 550 L813 550 L813 587 L226 587 L226 546 ZM873 51 Q926 9 960 -23 Q956 -39 933 -39 L181 -39 L172 -9 L521 -9 L521 120 L261 120 L253 150 L521 150 L521 263 L618 253 Q615 232 585 227 L585 150 L747 150 L791 205 Q843 166 874 136 Q870 120 848 120 L585 120 L585 -9 L826 -9 L873 51 Z" /><glyph glyph-name="uni5C55" unicode="&#x5c55;" d="M460 293 L642 293 L642 427 L460 427 L460 293 ZM222 751 L222 616 L813 616 L813 751 L222 751 ZM897 191 Q885 177 859 186 Q788 143 689 98 Q797 21 967 -10 L965 -21 Q922 -27 908 -78 Q619 5 533 263 L409 263 L409 12 L585 71 L590 57 L501 6 Q431 -35 380 -61 Q374 -75 364 -82 L312 -7 Q346 15 346 34 L346 263 L214 263 L206 290 Q172 61 47 -77 L33 -67 Q157 139 157 546 L157 813 L235 781 L803 781 L839 819 L919 759 Q908 745 877 738 L877 569 Q876 564 858 557 Q838 550 823 550 L813 550 L813 587 L222 587 L222 546 Q222 396 206 293 L397 293 L397 427 L251 427 L243 457 L397 457 L397 570 L491 559 Q489 540 460 534 L460 457 L642 457 L642 568 L736 558 Q734 539 705 533 L705 457 L766 457 L811 513 Q860 474 892 443 Q889 427 866 427 L705 427 L705 293 L825 293 L871 352 Q923 310 956 279 Q953 263 929 263 L556 263 Q598 170 671 113 Q756 183 818 245 L897 191 Z" /><glyph glyph-name="uni2F2D" unicode="&#x2f2d;&#x5c71;" d="M920 603 Q915 580 883 575 L883 -53 Q883 -60 865 -69 Q847 -78 829 -78 L816 -78 L816 20 L189 20 L160 -17 L77 33 Q93 47 114 56 L114 611 L219 600 Q216 578 181 572 L181 49 L463 49 L463 815 L566 804 Q563 780 530 775 L530 49 L816 49 L816 614 L920 603 Z" /><glyph glyph-name="uni2F2F" unicode="&#x2f2f;&#x5de5;" d="M866 100 Q925 54 961 21 Q957 5 935 5 L51 5 L43 35 L464 35 L464 660 L120 660 L111 690 L747 690 L799 755 Q859 709 895 676 Q891 660 868 660 L533 660 L533 35 L814 35 L866 100 Z" /><glyph glyph-name="uni5DE6" unicode="&#x5de6;" d="M866 52 Q924 9 958 -24 Q955 -39 932 -39 L213 -39 L206 -10 L536 -10 L536 334 L340 334 L335 351 Q229 107 49 -36 L36 -26 Q257 189 348 596 L60 596 L51 624 L354 624 Q375 727 388 838 L504 823 Q499 801 460 799 Q444 701 425 624 L810 624 L860 688 Q917 643 952 612 Q949 596 926 596 L418 596 Q389 479 341 363 L737 363 L786 423 Q840 380 873 350 Q870 334 847 334 L602 334 L602 -10 L815 -10 L866 52 Z" /><glyph glyph-name="uni2F30" unicode="&#x2f30;&#x5df1;" d="M904 40 Q949 28 949 11 Q949 -44 736 -44 L314 -44 Q223 -44 184 -21 Q141 4 141 68 L141 490 L219 457 L729 457 L729 733 L138 733 L130 763 L718 763 L756 805 L843 740 Q828 723 795 717 L795 365 Q794 360 775 352 Q754 343 739 343 L729 343 L729 428 L208 428 L208 65 Q208 18 308 18 L730 18 Q830 18 847 53 Q862 84 890 225 L903 225 L904 40 Z" /><glyph glyph-name="uni5E38" unicode="&#x5e38;" d="M223 825 Q356 786 362 708 Q364 680 344 667 Q324 654 300 672 Q292 753 212 817 L223 825 ZM318 380 L684 380 L684 507 L318 507 L318 380 ZM784 287 L869 225 Q858 212 825 206 L825 58 Q825 15 808 -3 Q785 -28 720 -34 Q717 0 700 13 Q672 32 615 38 L615 53 Q714 46 738 46 Q761 46 761 65 L761 218 L530 218 L530 -50 Q530 -56 515 -65 Q497 -76 475 -76 L465 -76 L465 218 L241 218 L241 -14 Q241 -19 224 -27 Q205 -35 187 -35 L177 -35 L177 280 L247 248 L465 248 L465 352 L318 352 L318 323 Q318 318 301 310 Q282 302 264 302 L254 302 L254 567 L323 536 L675 536 L709 573 L787 515 Q776 502 749 497 L749 334 Q748 329 729 321 Q708 313 694 313 L684 313 L684 352 L530 352 L530 248 L751 248 L784 287 ZM959 623 Q952 615 921 613 Q877 559 811 513 L797 521 Q818 561 840 624 L186 624 Q186 530 130 490 Q111 475 90 475 Q67 475 58 492 Q43 524 82 546 Q161 593 158 701 L176 701 Q182 676 185 653 L466 653 L466 837 L567 826 Q564 803 532 799 L532 653 L615 653 Q672 746 710 828 L810 787 Q800 767 771 773 Q711 705 643 653 L839 653 L881 697 L959 623 Z" /><glyph glyph-name="uni5E73" unicode="&#x5e73;" d="M865 387 Q923 344 958 311 Q955 295 932 295 L534 295 L534 -56 Q534 -62 519 -70 Q500 -79 477 -79 L467 -79 L467 295 L51 295 L43 324 L467 324 L467 733 L104 733 L95 762 L768 762 L820 825 Q878 782 914 749 Q911 733 887 733 L534 733 L534 324 L812 324 L865 387 ZM197 671 Q344 563 351 451 Q353 410 332 394 Q311 378 285 403 Q277 515 183 664 L197 671 ZM622 389 Q691 506 750 672 L851 632 Q843 613 813 616 Q730 470 636 379 L622 389 Z" /><glyph glyph-name="uni5E74" unicode="&#x5e74;&#xf98e;" d="M507 214 L507 447 L286 447 L286 214 L507 214 ZM865 279 Q923 234 958 202 Q955 186 932 186 L575 186 L575 -55 Q575 -60 560 -68 Q541 -77 518 -77 L507 -77 L507 186 L52 186 L44 214 L218 214 L218 510 L298 476 L507 476 L507 662 L278 662 Q178 518 49 432 L38 443 Q201 603 294 855 L396 813 Q386 792 357 796 Q331 743 298 692 L776 692 L827 754 Q883 712 920 678 Q916 662 893 662 L575 662 L575 476 L754 476 L800 535 Q855 493 888 462 Q885 447 862 447 L575 447 L575 214 L813 214 L865 279 Z" /><glyph glyph-name="uni5E76" unicode="&#x5e76;" d="M258 835 Q409 773 423 682 Q429 648 410 633 Q391 617 365 636 Q349 728 246 827 L258 835 ZM624 351 L624 590 L375 590 L375 351 L624 351 ZM867 414 Q924 371 958 338 Q955 322 933 322 L691 322 L691 -57 Q691 -62 676 -69 Q657 -78 634 -78 L624 -78 L624 322 L374 322 Q366 185 306 97 Q230 -15 53 -81 L44 -67 Q186 7 248 111 Q299 196 306 322 L54 322 L46 351 L307 351 L307 590 L92 590 L83 619 L568 619 Q627 717 672 841 L779 811 Q771 791 740 792 Q686 706 598 619 L787 619 L836 680 Q892 637 927 606 Q923 590 900 590 L691 590 L691 351 L817 351 L867 414 Z" /><glyph glyph-name="uni5E78" unicode="&#x5e78;" d="M846 215 Q903 172 939 139 Q935 123 911 123 L534 123 L534 -60 Q534 -64 519 -70 Q500 -78 478 -78 L467 -78 L467 123 L75 123 L67 152 L467 152 L467 311 L134 311 L126 340 L589 340 Q635 425 659 517 L769 492 Q764 469 733 471 Q689 406 618 340 L749 340 L800 402 Q857 359 892 327 Q888 311 865 311 L534 311 L534 152 L795 152 L846 215 ZM276 516 Q407 466 402 387 Q400 358 379 347 Q356 337 332 358 Q328 428 265 510 L276 516 ZM868 614 Q926 571 962 538 Q958 522 935 522 L47 522 L39 551 L467 551 L467 686 L148 686 L140 716 L467 716 L467 838 L567 828 Q564 807 534 802 L534 716 L724 716 L773 777 Q830 734 865 702 Q861 686 839 686 L534 686 L534 551 L817 551 L868 614 Z" /><glyph glyph-name="uni5E8F" unicode="&#x5e8f;" d="M444 842 Q587 807 599 732 Q603 704 584 691 Q564 678 538 694 Q511 765 434 834 L444 842 ZM876 390 L951 318 Q940 308 911 307 Q856 245 769 182 L755 190 Q798 254 831 319 L601 319 L601 15 Q601 -28 582 -47 Q559 -71 493 -77 Q491 -46 471 -34 Q448 -17 379 -10 L379 5 Q489 -3 511 -3 Q535 -3 535 16 L535 319 L242 319 L233 348 L834 348 L876 390 ZM858 549 Q848 541 816 540 Q747 484 615 422 Q646 391 638 366 Q630 342 597 352 Q541 429 397 485 L405 497 Q532 485 597 437 Q662 488 725 551 L301 551 L292 580 L737 580 L782 622 L858 549 ZM873 744 Q928 700 962 669 Q959 653 935 653 L200 653 L200 441 Q200 78 46 -79 L31 -69 Q135 94 135 440 L135 715 L213 682 L825 682 L873 744 Z" /><glyph glyph-name="uni5E94" unicode="&#x5e94;" d="M455 846 Q597 811 611 736 Q616 708 598 695 Q580 682 554 697 Q527 766 445 838 L455 846 ZM858 70 Q911 27 945 -5 Q941 -21 918 -21 L197 -21 L188 9 L613 9 Q710 264 775 566 L887 528 Q882 512 849 515 Q764 248 633 9 L811 9 L858 70 ZM297 507 Q436 356 439 216 Q441 164 420 143 Q400 123 374 151 Q380 302 281 501 L297 507 ZM478 557 Q612 413 615 279 Q616 229 596 210 Q576 190 550 217 Q555 360 462 551 L478 557 ZM869 746 Q925 702 960 669 Q956 653 933 653 L220 653 L220 426 Q220 72 56 -79 L41 -68 Q156 91 156 425 L156 716 L232 683 L820 683 L869 746 Z" /><glyph glyph-name="uni5E97" unicode="&#x5e97;" d="M444 841 Q587 806 599 731 Q603 703 584 690 Q564 677 538 693 Q511 764 434 833 L444 841 ZM361 250 L361 33 L772 33 L772 250 L361 250 ZM840 542 Q894 500 928 468 Q924 452 901 452 L597 452 L597 279 L769 279 L801 317 L873 262 Q861 250 835 245 L835 -52 Q835 -56 819 -63 Q801 -71 782 -71 L772 -71 L772 3 L361 3 L361 -56 Q361 -62 347 -68 Q330 -76 309 -76 L299 -76 L299 310 L372 279 L532 279 L532 641 L634 630 Q631 608 597 601 L597 482 L793 482 L840 542 ZM873 743 Q928 699 961 668 Q958 652 935 652 L215 652 L215 439 Q215 76 50 -80 L36 -70 Q150 97 150 438 L150 714 L227 681 L824 681 L873 743 Z" /><glyph glyph-name="uni5EA6" unicode="&#x5ea6;" d="M449 851 Q582 828 591 758 Q595 733 576 720 Q556 708 531 723 Q506 787 439 843 L449 851 ZM205 457 Q205 81 50 -81 L34 -70 Q140 100 140 456 L140 741 L217 708 L817 708 L866 770 Q921 727 954 695 Q951 679 929 679 L205 679 L205 457 ZM660 390 L660 511 L445 511 L445 390 L660 390 ZM660 316 L660 360 L445 360 L445 325 Q445 319 428 312 Q410 305 394 305 L382 305 L382 511 L237 511 L229 540 L382 540 L382 650 L481 640 Q478 618 445 613 L445 540 L660 540 L660 650 L760 640 Q757 618 724 613 L724 540 L806 540 L850 599 Q901 557 930 527 Q929 511 905 511 L724 511 L724 337 Q724 331 707 324 Q689 316 673 316 L660 316 ZM393 243 Q450 153 553 98 Q645 158 701 243 L393 243 ZM825 246 Q813 235 779 234 Q712 138 607 71 Q749 12 967 -6 L966 -18 Q921 -27 910 -76 Q684 -43 552 38 Q387 -47 148 -76 L141 -60 Q359 -17 508 69 Q418 141 368 243 L289 243 L280 273 L707 273 L755 312 L825 246 Z" /><glyph glyph-name="uni5EFA" unicode="&#x5efa;" d="M371 434 Q362 423 334 420 Q306 230 238 116 Q366 13 711 13 Q894 13 961 14 L961 1 Q917 -6 914 -52 L705 -52 Q348 -52 215 80 Q150 -14 38 -77 L30 -62 Q127 8 184 116 Q118 198 73 347 L88 355 Q129 229 200 150 Q251 261 270 427 L157 427 L129 403 L68 453 Q82 463 105 469 Q171 589 226 716 L46 716 L37 745 L227 745 L264 783 L340 715 Q328 702 288 700 Q244 604 166 457 L263 457 L301 495 L371 434 ZM777 570 L630 570 L630 466 L777 466 L777 570 ZM630 599 L777 599 L777 702 L630 702 L630 599 ZM899 655 Q947 615 973 586 Q969 570 948 570 L839 570 L839 426 Q838 420 820 412 Q801 404 786 404 L777 404 L777 436 L630 436 L630 333 L768 333 L810 387 Q859 349 889 319 Q885 303 864 303 L630 303 L630 198 L813 198 L860 257 Q913 216 947 185 Q943 169 921 169 L630 169 L630 61 Q630 53 614 46 Q597 39 579 39 L566 39 L566 169 L320 169 L312 198 L566 198 L566 303 L374 303 L366 333 L566 333 L566 436 L388 436 L379 466 L566 466 L566 570 L305 570 L297 599 L566 599 L566 702 L388 702 L379 731 L566 731 L566 838 L666 827 Q661 803 630 798 L630 731 L767 731 L803 770 L881 710 Q871 696 839 690 L839 599 L860 599 L899 655 Z" /><glyph glyph-name="uni5F00" unicode="&#x5f00;" d="M623 416 L623 724 L372 724 L372 416 L623 416 ZM887 478 Q939 434 972 403 Q968 387 945 387 L690 387 L690 -53 Q690 -59 675 -66 Q657 -75 634 -75 L623 -75 L623 387 L371 387 Q364 227 304 126 Q228 -2 50 -75 L39 -62 Q185 23 247 141 Q298 238 304 387 L47 387 L38 416 L305 416 L305 724 L87 724 L78 754 L786 754 L832 812 Q885 771 917 740 Q913 724 892 724 L690 724 L690 416 L840 416 L887 478 Z" /><glyph glyph-name="uni5F39" unicode="&#x5f39;" d="M459 831 Q590 779 599 703 Q602 675 584 663 Q566 651 542 668 Q525 733 448 824 L459 831 ZM389 318 Q380 307 348 303 Q332 14 263 -44 Q227 -76 164 -76 Q164 -43 149 -32 Q129 -18 73 -9 L74 8 Q153 1 187 1 Q210 1 222 11 Q268 51 288 310 L138 310 L107 277 L38 330 Q54 341 76 349 Q92 462 98 566 L174 538 L283 538 L283 721 L60 721 L52 750 L273 750 L309 789 L387 729 Q374 714 344 708 L344 486 Q343 482 326 475 Q307 467 292 467 L283 467 L283 509 L153 509 Q147 428 133 340 L278 340 L314 378 L389 318 ZM623 319 L623 452 L478 452 L478 319 L623 319 ZM478 614 L478 481 L623 481 L623 614 L478 614 ZM684 614 L684 481 L825 481 L825 614 L684 614 ZM825 319 L825 452 L684 452 L684 319 L825 319 ZM878 217 Q929 176 962 146 Q958 130 936 130 L684 130 L684 -58 Q684 -62 670 -69 Q652 -77 632 -77 L623 -77 L623 130 L369 130 L361 159 L623 159 L623 289 L478 289 L478 256 Q478 251 465 245 Q449 237 428 237 L419 237 L419 673 L490 643 L708 643 Q749 719 797 840 L896 797 Q886 778 857 782 Q797 699 739 643 L821 643 L854 680 L924 626 Q915 615 886 609 L886 275 Q886 270 871 264 Q854 256 835 256 L825 256 L825 289 L684 289 L684 159 L832 159 L878 217 Z" /><glyph glyph-name="uni5F3A" unicode="&#x5f3a;" d="M382 311 Q371 299 342 296 Q331 5 277 -45 Q241 -78 175 -78 Q175 -47 156 -32 Q129 -15 56 -6 L57 10 L199 0 Q225 0 235 10 Q268 39 281 303 L122 303 L91 271 L22 324 Q37 334 61 343 Q77 461 83 576 L160 548 L277 548 L277 748 L55 748 L46 778 L267 778 L302 816 L381 756 Q370 741 338 735 L338 495 Q337 490 319 483 Q300 476 286 476 L277 476 L277 519 L139 519 Q129 412 118 333 L271 333 L308 372 L382 311 ZM622 248 L622 422 L483 422 L483 248 L622 248 ZM684 422 L684 248 L826 248 L826 422 L684 422 ZM509 599 L805 599 L805 758 L509 758 L509 599 ZM790 164 Q943 91 953 -11 Q957 -48 937 -64 Q917 -81 891 -59 Q888 -13 860 41 Q617 -9 420 -43 Q411 -60 395 -64 L355 18 Q419 21 622 39 L622 218 L483 218 L483 178 Q483 173 467 166 Q449 158 432 158 L423 158 L423 481 L488 452 L622 452 L622 570 L509 570 L509 544 Q509 539 492 532 Q474 524 457 524 L448 524 L448 817 L514 788 L796 788 L830 823 L905 767 Q896 754 868 749 L868 552 Q867 547 849 540 Q829 532 815 532 L805 532 L805 570 L684 570 L684 452 L817 452 L850 488 L925 431 Q914 418 887 413 L887 195 Q886 190 868 183 Q849 175 835 175 L826 175 L826 218 L684 218 L684 45 L849 62 Q820 114 778 156 L790 164 Z" /><glyph glyph-name="uni5F55" unicode="&#x5f55;" d="M881 360 Q870 346 843 353 Q772 291 662 234 Q772 121 959 54 L957 44 Q915 36 900 -13 Q622 126 531 410 L531 19 Q531 -25 513 -46 Q489 -72 425 -78 Q423 -47 404 -31 Q376 -14 314 -7 L314 9 Q421 2 442 2 Q466 2 466 21 L466 232 Q324 139 132 29 Q130 9 116 1 L54 76 Q157 114 466 255 L466 450 L52 450 L43 479 L687 479 L693 604 L207 604 L198 634 L695 634 L701 756 L178 756 L170 785 L693 785 L727 822 L800 762 Q791 753 767 749 L754 479 L821 479 L870 539 Q925 497 959 466 Q955 450 933 450 L532 450 Q571 336 647 250 Q742 333 798 412 L881 360 ZM179 411 Q339 368 362 285 Q370 255 352 240 Q335 225 308 241 Q278 321 170 402 L179 411 Z" /><glyph glyph-name="uni5F80" unicode="&#x5f80;" d="M499 833 Q670 803 696 708 Q706 674 687 655 Q668 635 638 652 Q611 750 490 824 L499 833 ZM341 787 Q330 772 303 778 Q204 653 50 564 L40 576 Q173 691 248 836 L341 787 ZM361 587 Q354 571 322 576 Q288 523 234 458 L269 445 Q263 432 239 426 L239 -55 Q238 -60 222 -69 Q204 -78 188 -78 L175 -78 L175 394 Q103 320 39 275 L27 287 Q175 434 266 633 L361 587 ZM884 48 Q938 7 969 -24 Q966 -39 943 -39 L300 -39 L293 -11 L592 -11 L592 298 L371 298 L363 328 L592 328 L592 588 L360 588 L352 617 L828 617 L874 676 Q927 633 959 604 Q955 588 933 588 L658 588 L658 328 L804 328 L850 386 Q902 345 934 314 Q931 298 908 298 L658 298 L658 -11 L838 -11 L884 48 Z" /><glyph glyph-name="uni5F81" unicode="&#x5f81;" d="M341 787 Q330 772 303 778 Q204 653 50 564 L40 576 Q173 691 248 836 L341 787 ZM361 587 Q354 571 322 576 Q288 523 234 458 L269 445 Q263 432 239 426 L239 -55 Q238 -60 222 -69 Q204 -78 188 -78 L175 -78 L175 394 Q103 320 39 275 L27 287 Q175 434 266 633 L361 587 ZM891 49 Q945 7 977 -24 Q974 -39 951 -39 L292 -39 L284 -10 L409 -10 L409 517 L509 506 Q506 483 472 478 L472 -10 L613 -10 L613 711 L358 711 L350 741 L825 741 L871 799 Q924 758 956 727 Q952 711 931 711 L678 711 L678 395 L806 395 L852 454 Q903 412 936 382 Q932 367 910 367 L678 367 L678 -10 L845 -10 L891 49 Z" /><glyph glyph-name="uni5F85" unicode="&#x5f85;" d="M355 783 Q344 769 317 775 Q204 641 52 548 L41 561 Q176 681 264 835 L355 783 ZM366 582 Q356 566 327 572 Q291 519 238 453 L275 439 Q271 426 245 422 L245 -55 Q244 -61 228 -69 Q210 -78 193 -78 L181 -78 L181 389 Q113 316 46 266 L34 277 Q177 426 271 630 L366 582 ZM417 257 Q560 201 572 120 Q577 90 558 77 Q539 64 514 82 Q492 156 406 250 L417 257 ZM874 381 Q927 341 959 310 Q955 294 933 294 L776 294 L776 9 Q776 -34 757 -53 Q732 -76 660 -82 Q655 -52 634 -40 Q604 -25 532 -17 L532 -2 Q658 -10 683 -10 Q711 -10 711 12 L711 294 L349 294 L341 323 L711 323 L711 427 L811 416 Q807 394 776 390 L776 323 L829 323 L874 381 ZM886 544 Q939 504 972 472 Q968 456 945 456 L311 456 L303 486 L583 486 L583 642 L374 642 L367 671 L583 671 L583 839 L680 829 Q677 808 647 803 L647 671 L781 671 L827 729 Q880 689 913 658 Q909 642 887 642 L647 642 L647 486 L839 486 L886 544 Z" /><glyph glyph-name="uni5F88" unicode="&#x5f88;" d="M355 781 Q344 766 317 772 Q201 637 42 546 L31 558 Q176 681 264 832 L355 781 ZM35 272 Q186 425 278 630 L373 582 Q363 566 334 570 Q294 511 251 458 L284 446 Q279 431 254 428 L254 -54 Q253 -60 237 -68 Q219 -78 201 -78 L190 -78 L190 388 Q120 313 47 259 L35 272 ZM483 426 L798 426 L798 574 L483 574 L483 426 ZM798 604 L798 748 L483 748 L483 604 L798 604 ZM933 300 Q926 290 904 296 Q811 224 723 179 Q822 41 967 -8 L966 -20 Q924 -26 910 -75 Q669 46 594 396 L483 396 L483 21 Q572 51 665 89 L671 75 Q538 -6 441 -58 Q432 -74 419 -80 L386 -8 Q419 9 419 34 L419 815 L495 777 L788 777 L825 817 L904 755 Q894 741 862 735 L862 383 Q861 377 843 369 Q824 360 808 360 L798 360 L798 396 L616 396 Q649 286 711 194 Q788 264 860 355 L933 300 Z" /><glyph glyph-name="uni5F8B" unicode="&#x5f8b;&#xf9d8;" d="M323 791 Q313 775 286 781 Q187 649 50 559 L39 571 Q160 687 231 837 L323 791 ZM337 595 Q329 578 299 583 Q269 530 221 467 L258 453 Q252 439 227 435 L227 -55 Q226 -61 211 -69 Q193 -78 176 -78 L163 -78 L163 397 Q98 325 39 282 L28 293 Q167 440 243 638 L337 595 ZM784 423 L784 545 L624 545 L624 423 L784 423 ZM624 575 L784 575 L784 692 L624 692 L624 575 ZM784 363 L784 393 L624 393 L624 281 L784 281 L830 338 Q882 297 915 267 Q911 251 888 251 L624 251 L624 130 L826 130 L872 190 Q926 147 958 117 Q955 101 933 101 L624 101 L624 -52 Q624 -60 608 -69 Q591 -79 573 -79 L561 -79 L561 101 L286 101 L278 130 L561 130 L561 251 L320 251 L312 281 L561 281 L561 393 L353 393 L344 423 L561 423 L561 545 L306 545 L298 575 L561 575 L561 692 L359 692 L350 721 L561 721 L561 838 L661 827 Q656 803 624 798 L624 721 L774 721 L809 762 L890 700 Q878 686 848 680 L848 575 L866 575 L904 625 Q948 589 973 561 Q969 545 948 545 L848 545 L848 384 Q847 379 828 371 Q808 363 793 363 L784 363 Z" /><glyph glyph-name="uni5F97" unicode="&#x5f97;" d="M486 765 L486 660 L778 660 L778 765 L486 765 ZM778 526 L778 630 L486 630 L486 526 L778 526 ZM486 470 Q486 466 472 460 Q455 452 434 452 L424 452 L424 825 L498 794 L775 794 L807 832 L880 777 Q868 765 843 760 L843 480 Q843 476 827 470 Q808 462 789 462 L778 462 L778 496 L486 496 L486 470 ZM342 789 Q332 773 304 779 Q198 651 44 555 L32 567 Q166 688 250 837 L342 789 ZM360 592 Q351 576 321 581 Q281 519 237 466 L268 454 Q264 441 238 436 L238 -55 Q237 -60 221 -68 Q203 -77 187 -77 L174 -77 L174 394 Q102 321 42 276 L31 287 Q173 435 265 639 L360 592 ZM433 206 Q571 173 582 100 Q586 73 568 61 Q549 48 524 63 Q503 127 423 198 L433 206 ZM888 315 Q939 274 970 244 Q966 228 944 228 L784 228 L784 17 Q784 -27 766 -48 Q743 -74 679 -80 Q677 -47 660 -33 Q639 -18 574 -9 L574 6 Q675 -1 695 -1 Q718 -1 718 18 L718 228 L323 228 L315 257 L718 257 L718 372 L372 372 L364 401 L798 401 L844 460 Q897 419 930 388 Q926 372 904 372 L784 372 L784 257 L842 257 L888 315 Z" /><glyph glyph-name="uni2F3C" unicode="&#x2f3c;&#x5fc3;" d="M175 533 Q228 316 136 180 Q118 153 94 142 Q68 131 53 145 Q27 166 59 207 Q160 308 157 532 L175 533 ZM766 518 Q940 389 957 246 Q963 193 943 170 Q924 147 898 175 Q858 394 755 509 L766 518 ZM398 648 Q396 627 363 621 L363 66 Q363 46 375 38 Q389 30 429 30 L570 30 Q673 30 703 33 Q723 36 729 51 Q741 77 767 221 L780 221 L783 43 Q816 33 816 13 Q816 -14 769 -24 Q718 -34 568 -34 L423 -34 Q351 -34 325 -16 Q298 1 298 50 L298 660 L398 648 ZM435 831 Q617 731 642 616 Q651 574 631 556 Q612 537 582 560 Q554 674 423 823 L435 831 Z" /><glyph glyph-name="uni5FC6" unicode="&#x5fc6;" d="M131 642 Q172 495 117 415 Q104 396 83 391 Q61 385 49 400 Q30 426 62 458 Q118 526 113 643 L131 642 ZM295 827 Q292 804 259 799 L259 -54 Q259 -62 243 -70 Q225 -79 208 -79 L195 -79 L195 839 L295 827 ZM297 670 Q407 608 402 533 Q400 506 381 496 Q362 487 341 506 Q338 574 285 665 L297 670 ZM928 34 Q968 22 968 6 Q968 -42 757 -42 L603 -42 Q488 -42 437 -19 Q384 6 377 66 Q367 139 466 291 Q525 382 775 713 L386 713 L377 742 L787 742 L820 777 L895 712 Q879 700 845 698 Q429 176 442 75 Q448 44 482 31 Q517 17 599 17 L761 17 Q857 17 873 35 Q893 64 919 170 L932 170 L928 34 Z" /><glyph glyph-name="uni5FD7" unicode="&#x5fd7;" d="M59 655 L466 655 L466 840 L569 829 Q566 805 532 800 L532 655 L809 655 L858 717 Q914 674 949 641 Q945 625 922 625 L532 625 L532 435 L734 435 L784 498 Q841 454 876 421 Q873 405 849 405 L139 405 L132 435 L466 435 L466 625 L68 625 L59 655 ZM460 360 Q608 293 621 198 Q625 163 606 148 Q587 132 563 153 Q554 251 449 352 L460 360 ZM196 275 Q214 188 190 118 Q170 62 133 33 Q113 16 90 13 Q66 10 57 25 Q44 53 79 79 Q175 140 178 275 L196 275 ZM753 29 Q785 19 785 1 Q785 -24 742 -33 Q694 -42 548 -42 L403 -42 Q332 -42 310 -28 Q288 -15 288 27 L288 325 L384 314 Q382 294 353 290 L353 39 Q353 26 362 22 Q373 17 409 17 L550 17 Q655 17 680 20 Q697 21 705 35 Q717 59 738 163 L751 163 L753 29 ZM763 284 Q929 208 946 104 Q952 65 932 48 Q912 31 884 53 Q868 159 751 276 L763 284 Z" /><glyph glyph-name="uni5FEB" unicode="&#x5feb;" d="M130 642 Q167 499 117 419 Q104 400 82 394 Q60 388 48 403 Q30 430 61 461 Q117 527 112 643 L130 642 ZM291 827 Q286 804 255 799 L255 -53 Q255 -61 238 -69 Q221 -78 204 -78 L191 -78 L191 839 L291 827 ZM287 667 Q388 601 381 528 Q378 501 359 492 Q340 483 321 502 Q321 578 274 662 L287 667 ZM624 609 Q622 446 611 365 L777 365 L777 609 L624 609 ZM633 335 Q689 104 975 9 L974 -3 Q922 -11 913 -55 Q660 52 614 335 L607 335 Q584 191 515 103 Q439 5 283 -57 L271 -38 Q504 75 544 335 L302 335 L294 365 L548 365 Q558 447 560 609 L382 609 L374 638 L560 638 L559 828 L660 817 Q655 793 625 789 Q625 686 624 638 L767 638 L803 677 L881 617 Q869 603 838 597 L838 365 L859 365 L900 424 Q947 381 974 351 Q970 335 949 335 L633 335 Z" /><glyph glyph-name="uni6000" unicode="&#x6000;" d="M122 642 Q165 485 112 402 Q99 381 78 374 Q55 367 43 382 Q21 408 55 440 Q111 516 104 643 L122 642 ZM292 827 Q289 804 256 799 L256 -54 Q256 -61 240 -69 Q222 -78 205 -78 L192 -78 L192 839 L292 827 ZM294 671 Q414 594 412 510 Q411 478 391 467 Q371 456 349 477 Q346 555 281 666 L294 671 ZM707 724 Q674 631 624 539 L692 523 Q689 509 653 503 L653 -57 Q649 -78 598 -78 L589 -78 L589 477 Q468 283 301 151 L287 163 Q516 389 631 724 L356 724 L348 754 L819 754 L866 813 Q920 772 953 740 Q949 724 927 724 L707 724 ZM714 481 Q913 377 946 255 Q957 211 938 190 Q920 170 889 193 Q859 317 701 473 L714 481 Z" /><glyph glyph-name="uni601D" unicode="&#x601d;" d="M180 248 Q200 165 177 97 Q160 42 123 14 Q103 -2 81 -3 Q58 -5 49 11 Q34 39 72 67 Q160 123 162 249 L180 248 ZM247 747 L247 588 L468 588 L468 747 L247 747 ZM532 747 L532 588 L753 588 L753 747 L532 747 ZM753 396 L753 559 L532 559 L532 396 L753 396 ZM468 396 L468 559 L247 559 L247 396 L468 396 ZM247 366 L247 323 Q247 317 230 308 Q212 299 193 299 L182 299 L182 808 L253 776 L743 776 L780 816 L860 754 Q850 740 818 734 L818 338 Q817 333 798 325 Q778 316 763 316 L753 316 L753 366 L247 366 ZM446 317 Q589 259 598 168 Q601 135 582 121 Q562 106 538 126 Q531 220 435 309 L446 317 ZM753 23 Q785 14 785 -5 Q785 -31 742 -39 Q695 -48 548 -48 L400 -48 Q331 -48 309 -34 Q288 -21 288 20 L288 276 L384 266 Q381 245 353 241 L353 32 Q353 20 362 16 Q372 12 408 12 L551 12 Q664 12 682 13 Q701 14 706 28 Q719 57 737 149 L750 149 L753 23 ZM774 254 Q937 183 952 81 Q958 44 937 27 Q917 11 889 32 Q874 137 763 246 L774 254 Z" /><glyph glyph-name="uni603B" unicode="&#x603b;" d="M260 836 Q408 786 423 705 Q429 674 410 661 Q392 646 366 663 Q342 739 249 828 L260 836 ZM178 222 Q209 72 121 2 Q103 -13 82 -15 Q60 -17 51 -3 Q36 24 72 48 Q156 102 159 223 L178 222 ZM260 611 L260 368 L738 368 L738 611 L260 611 ZM260 339 L260 300 Q260 295 242 288 Q223 279 206 279 L195 279 L195 673 L265 640 L562 640 Q625 739 670 843 L769 802 Q758 782 729 788 Q669 710 593 640 L729 640 L764 679 L841 619 Q830 606 803 601 L803 306 Q802 301 783 293 Q763 285 748 285 L738 285 L738 339 L260 339 ZM455 288 Q596 236 609 151 Q614 119 596 105 Q579 91 555 109 Q543 198 444 279 L455 288 ZM738 16 Q769 7 769 -11 Q769 -35 727 -43 Q682 -51 534 -51 L390 -51 Q321 -51 299 -38 Q278 -25 278 14 L278 256 L373 245 Q370 225 343 221 L343 25 Q343 13 352 9 Q362 5 396 5 L538 5 Q649 5 667 7 Q684 8 691 20 Q701 41 722 130 L735 130 L738 16 ZM771 229 Q924 154 939 58 Q944 23 925 8 Q906 -8 880 12 Q862 107 759 222 L771 229 Z" /><glyph glyph-name="uni6059" unicode="&#x6059;" d="M270 838 Q411 807 421 731 Q424 703 405 690 Q385 677 359 694 Q342 769 260 829 L270 838 ZM467 356 L467 492 L154 492 L146 522 L467 522 L467 649 L98 649 L89 679 L580 679 Q629 753 671 840 L775 793 Q765 776 735 782 Q686 732 616 679 L789 679 L835 736 Q888 696 922 665 Q918 649 896 649 L533 649 L533 522 L740 522 L787 578 Q838 539 871 508 Q867 492 844 492 L533 492 L533 356 L812 356 L860 416 Q915 374 949 343 Q945 327 923 327 L62 327 L54 356 L467 356 ZM479 285 Q607 223 611 140 Q613 109 594 97 Q575 84 553 104 Q546 187 467 278 L479 285 ZM200 228 Q230 76 133 1 Q112 -14 91 -16 Q68 -17 59 -3 Q45 24 81 49 Q118 70 147 118 Q179 171 182 229 L200 228 ZM757 22 Q789 13 789 -5 Q789 -30 746 -39 Q698 -48 552 -48 L404 -48 Q334 -48 312 -34 Q291 -21 291 19 L291 260 L386 249 Q383 229 356 225 L356 30 Q356 18 365 15 Q375 11 411 11 L555 11 Q649 11 687 13 Q705 14 710 26 Q721 45 742 136 L754 136 L757 22 ZM754 233 Q923 162 943 59 Q950 22 930 4 Q911 -13 883 8 Q866 113 743 225 L754 233 Z" /><glyph glyph-name="uni6069" unicode="&#x6069;" d="M206 225 Q219 144 192 75 Q170 21 133 -9 Q112 -24 91 -26 Q68 -28 59 -13 Q44 15 81 42 Q173 100 188 225 L206 225 ZM275 375 Q370 411 412 465 Q449 513 458 591 L287 591 L279 621 L461 621 Q463 655 463 736 L558 727 Q556 705 527 701 L524 621 L620 621 L659 669 Q704 634 732 607 Q728 591 707 591 L521 591 Q518 565 511 542 Q651 509 680 437 Q691 410 678 396 Q666 381 641 393 Q609 459 504 519 Q464 411 287 358 L275 375 ZM236 755 L236 347 L766 347 L766 755 L236 755 ZM236 318 L236 278 Q236 272 220 264 Q201 255 182 255 L172 255 L172 816 L242 784 L756 784 L793 825 L873 762 Q863 748 831 742 L831 288 Q830 282 811 274 Q792 265 776 265 L766 265 L766 318 L236 318 ZM462 299 Q596 234 601 147 Q603 115 584 101 Q565 88 541 107 Q534 197 450 291 L462 299 ZM753 26 Q785 16 785 -3 Q785 -28 742 -36 Q695 -45 549 -45 L401 -45 Q332 -45 310 -31 Q289 -18 289 22 L289 264 L384 253 Q381 233 354 229 L354 34 Q354 22 363 18 Q372 14 408 14 L551 14 Q664 14 682 16 Q701 17 706 29 Q719 52 737 138 L750 138 L753 26 ZM747 239 Q923 161 943 50 Q950 10 930 -8 Q909 -27 880 -4 Q866 110 736 231 L747 239 Z" /><glyph glyph-name="uni606F" unicode="&#x606f;" d="M189 196 Q204 119 180 57 Q161 8 126 -18 Q107 -32 87 -34 Q65 -36 56 -22 Q43 5 78 29 Q113 48 140 94 Q169 143 171 197 L189 196 ZM282 700 L282 598 L718 598 L718 700 L282 700 ZM718 464 L718 569 L282 569 L282 464 L718 464 ZM718 330 L718 435 L282 435 L282 330 L718 330 ZM282 300 L282 263 Q282 257 266 249 Q247 240 228 240 L217 240 L217 762 L287 730 L423 730 Q446 792 460 845 L571 821 Q567 799 533 799 Q482 745 466 730 L708 730 L745 771 L825 708 Q815 694 783 688 L783 268 Q782 262 763 254 Q744 246 728 246 L718 246 L718 300 L282 300 ZM453 253 Q586 204 596 125 Q600 96 583 83 Q565 70 543 88 Q534 171 442 244 L453 253 ZM753 22 Q785 13 785 -6 Q785 -31 742 -39 Q695 -48 548 -48 L400 -48 Q331 -48 310 -35 Q289 -22 289 18 L289 246 L384 235 Q381 215 354 211 L354 31 Q354 18 362 15 Q372 11 408 11 L550 11 Q665 11 682 13 Q699 14 706 26 Q719 49 737 133 L750 133 L753 22 ZM766 203 Q928 138 947 41 Q954 6 936 -11 Q917 -27 890 -8 Q870 96 754 194 L766 203 Z" /><glyph glyph-name="uni60A6" unicode="&#x60a6;" d="M453 830 Q593 771 599 683 Q601 650 581 637 Q560 623 535 643 Q523 730 441 823 L453 830 ZM130 643 Q163 501 118 421 Q106 402 84 396 Q61 389 49 404 Q30 429 60 463 Q115 529 112 644 L130 643 ZM294 827 Q289 804 258 799 L258 -53 Q258 -61 241 -69 Q224 -78 207 -78 L194 -78 L194 839 L294 827 ZM286 686 Q386 619 377 547 Q374 520 355 511 Q336 503 317 522 Q318 594 273 681 L286 686 ZM473 366 L811 366 L811 589 L473 589 L473 366 ZM946 7 Q969 -3 969 -21 Q969 -42 942 -51 Q911 -60 829 -60 L757 -60 Q711 -60 696 -46 Q682 -34 682 2 L682 336 L596 336 Q582 171 522 80 Q456 -21 307 -80 L299 -65 Q420 5 472 103 Q518 190 526 336 L473 336 L473 311 Q473 305 456 298 Q438 290 419 290 L409 290 L409 649 L478 619 L677 619 Q728 720 765 836 L871 798 Q863 779 833 782 Q778 695 702 619 L802 619 L836 656 L913 598 Q902 585 874 580 L874 318 Q873 313 855 305 Q836 297 821 297 L811 297 L811 336 L745 336 L745 16 Q745 5 750 2 Q754 -1 772 -1 L886 -1 Q896 0 901 11 Q905 19 929 148 L943 148 L946 7 Z" /><glyph glyph-name="uni60A8" unicode="&#x60a8;" d="M197 221 Q228 73 134 1 Q115 -13 94 -15 Q72 -16 63 -2 Q49 26 85 49 Q174 101 180 222 L197 221 ZM348 801 Q341 782 310 783 Q279 711 243 651 L280 637 Q276 624 250 619 L250 270 Q249 265 233 257 Q214 248 197 248 L185 247 L185 560 Q127 480 60 422 L46 432 Q174 593 247 837 L348 801 ZM753 22 Q785 13 785 -6 Q785 -31 742 -39 Q695 -48 549 -48 L400 -48 Q331 -48 310 -35 Q289 -22 289 18 L289 246 L384 235 Q381 215 354 211 L354 31 Q354 18 362 15 Q372 11 408 11 L551 11 Q665 11 682 13 Q701 14 706 26 Q719 49 737 133 L750 133 L753 22 ZM675 347 Q675 302 659 284 Q638 260 575 254 Q572 287 555 299 Q535 316 477 324 L477 339 Q571 332 590 332 Q611 332 611 351 L611 664 L709 653 Q704 632 675 628 L675 347 ZM459 276 Q595 227 607 145 Q611 115 594 102 Q576 88 553 106 Q541 188 448 269 L459 276 ZM336 348 Q426 436 476 579 L569 541 Q560 520 530 526 Q462 401 349 336 L336 348 ZM735 566 Q894 490 916 397 Q924 363 907 348 Q890 333 865 351 Q839 446 723 558 L735 566 ZM775 225 Q932 153 946 53 Q951 17 931 1 Q911 -15 885 6 Q873 109 763 217 L775 225 ZM957 680 Q950 672 919 670 Q875 616 803 567 L789 575 Q820 626 842 681 L480 681 Q411 572 320 508 L306 520 Q420 640 472 843 L573 810 Q565 790 535 791 Q516 746 497 710 L842 710 L883 751 L957 680 Z" /><glyph glyph-name="uni60B2" unicode="&#x60b2;" d="M633 296 Q633 290 616 283 Q598 275 581 275 L569 275 L569 840 L670 829 Q665 806 633 801 L633 715 L797 715 L841 771 Q894 731 926 701 Q922 685 900 685 L633 685 L633 572 L769 572 L812 625 Q860 588 891 559 Q887 543 865 543 L633 543 L633 425 L813 425 L858 482 Q911 442 944 412 Q940 396 918 396 L633 396 L633 296 ZM471 298 Q609 227 616 138 Q618 105 599 92 Q580 79 556 99 Q546 190 459 291 L471 298 ZM367 425 L367 543 L125 543 L116 573 L367 573 L367 685 L92 685 L83 715 L367 715 L367 839 L467 828 Q464 805 431 800 L431 295 Q431 289 414 282 Q396 274 379 274 L367 274 L367 395 L72 395 L63 425 L367 425 ZM199 220 Q217 139 193 72 Q173 20 136 -8 Q115 -22 92 -23 Q69 -25 60 -9 Q47 19 83 45 Q176 98 182 221 L199 220 ZM753 22 Q785 13 785 -6 Q785 -31 742 -39 Q695 -48 548 -48 L400 -48 Q331 -48 310 -35 Q289 -22 289 18 L289 246 L384 235 Q381 215 354 211 L354 31 Q354 18 362 15 Q372 11 408 11 L550 11 Q665 11 681 13 Q699 14 706 26 Q719 48 737 132 L750 132 L753 22 ZM766 224 Q932 148 951 47 Q958 10 938 -6 Q919 -23 891 -2 Q870 96 755 215 L766 224 Z" /><glyph glyph-name="uni60C5" unicode="&#x60c5;" d="M123 658 Q158 510 105 434 Q92 415 71 409 Q49 402 38 416 Q19 442 49 472 Q107 540 105 659 L123 658 ZM284 827 Q279 804 247 799 L247 -54 Q247 -61 231 -69 Q214 -78 197 -78 L185 -78 L185 839 L284 827 ZM276 692 Q376 632 369 563 Q367 537 349 529 Q331 521 312 539 Q311 609 264 686 L276 692 ZM800 160 L800 253 L485 253 L485 160 L800 160 ZM485 372 L485 282 L800 282 L800 372 L485 372 ZM823 441 L907 379 Q893 365 865 359 L865 15 Q865 -28 850 -46 Q829 -70 771 -76 Q767 -40 753 -29 Q734 -12 685 -5 L685 11 Q763 4 781 4 Q800 4 800 24 L800 130 L485 130 L485 -53 Q485 -59 469 -67 Q451 -76 432 -76 L422 -76 L422 433 L490 400 L790 400 L823 441 ZM889 561 Q940 522 971 492 Q967 476 946 476 L336 476 L328 505 L603 505 L603 594 L406 594 L398 623 L603 623 L603 705 L363 705 L355 735 L603 735 L603 835 L700 825 Q697 804 667 799 L667 735 L827 735 L871 790 Q923 751 953 721 Q950 705 928 705 L667 705 L667 623 L801 623 L844 678 Q892 639 923 610 Q919 594 897 594 L667 594 L667 505 L845 505 L889 561 Z" /><glyph glyph-name="uni60DC" unicode="&#x60dc;" d="M128 658 Q163 511 109 434 Q96 415 75 409 Q54 402 43 416 Q24 442 54 472 Q112 540 110 659 L128 658 ZM288 827 Q283 804 252 799 L252 -54 Q252 -61 236 -69 Q219 -78 202 -78 L189 -78 L189 839 L288 827 ZM281 682 Q382 620 376 550 Q373 524 355 515 Q337 507 318 525 Q317 595 269 676 L281 682 ZM791 17 L791 167 L485 167 L485 17 L791 17 ZM485 342 L485 197 L791 197 L791 342 L485 342 ZM818 409 L895 351 Q884 338 857 332 L857 -46 Q856 -51 837 -59 Q816 -68 801 -68 L791 -68 L791 -12 L485 -12 L485 -54 Q485 -59 468 -67 Q449 -76 431 -76 L420 -76 L420 403 L490 372 L783 372 L818 409 ZM551 481 L714 481 L714 657 L551 657 L551 481 ZM890 538 Q940 498 971 468 Q967 453 946 453 L329 453 L321 481 L488 481 L488 657 L367 657 L359 687 L488 687 L488 833 L583 823 Q580 803 551 798 L551 687 L714 687 L714 833 L810 823 Q807 803 779 798 L779 687 L823 687 L867 742 Q916 703 947 673 Q943 657 921 657 L779 657 L779 481 L845 481 L890 538 Z" /><glyph glyph-name="uni60F3" unicode="&#x60f3;" d="M577 741 L577 631 L822 631 L822 741 L577 741 ZM822 489 L822 602 L577 602 L577 489 L822 489 ZM822 348 L822 459 L577 459 L577 348 L822 348 ZM577 279 Q577 272 561 265 Q543 256 524 256 L513 256 L513 801 L581 770 L812 770 L849 811 L929 748 Q919 734 887 728 L887 278 Q886 272 867 264 Q848 255 832 255 L822 255 L822 318 L577 318 L577 279 ZM454 251 Q594 200 605 118 Q609 88 591 74 Q573 61 549 79 Q536 163 443 243 L454 251 ZM192 200 Q208 123 184 61 Q165 12 129 -13 Q109 -26 88 -28 Q66 -29 57 -15 Q45 13 80 37 Q168 86 174 201 L192 200 ZM306 268 Q306 262 289 253 Q272 244 256 244 L243 244 L243 524 Q170 385 46 288 L33 303 Q158 436 220 645 L53 645 L46 674 L243 674 L243 845 L342 834 Q339 812 306 807 L306 674 L367 674 L412 732 Q462 691 493 661 Q490 645 467 645 L306 645 L306 564 Q446 523 459 443 Q464 414 447 400 Q429 386 405 403 Q389 474 306 544 L306 268 ZM753 26 Q784 17 784 -1 Q784 -26 741 -34 Q693 -44 547 -44 L400 -44 Q331 -44 310 -31 Q289 -19 289 21 L289 225 L383 214 Q381 195 354 190 L354 33 Q354 21 362 18 Q371 15 407 15 L551 15 Q648 15 682 17 Q700 18 707 30 Q719 53 737 132 L750 132 L753 26 ZM769 207 Q927 141 944 46 Q950 11 931 -5 Q911 -21 885 -1 Q869 99 758 199 L769 207 Z" /><glyph glyph-name="uni610F" unicode="&#x610f;" d="M194 169 Q207 96 181 38 Q161 -8 125 -31 Q105 -44 85 -45 Q64 -45 55 -31 Q45 -3 79 19 Q168 62 177 170 L194 169 ZM274 455 L274 370 L722 370 L722 455 L274 455 ZM722 255 L722 341 L274 341 L274 255 L722 255 ZM274 226 L274 207 Q274 202 257 195 Q238 187 220 187 L210 187 L210 515 L280 484 L712 484 L749 524 L829 462 Q819 448 786 442 L786 216 Q785 210 767 202 Q748 194 732 194 L722 194 L722 226 L274 226 ZM453 205 Q580 167 591 94 Q596 67 579 54 Q563 42 540 57 Q528 131 442 197 L453 205 ZM736 13 Q765 4 765 -14 Q765 -37 724 -45 Q679 -54 538 -54 L396 -54 Q330 -54 309 -42 Q290 -30 290 7 L290 178 L382 167 Q378 147 352 144 L352 19 Q352 8 360 5 Q369 2 403 2 L540 2 Q634 2 668 4 Q685 5 690 17 Q701 37 720 121 L733 121 L736 13 ZM771 174 Q918 121 934 35 Q939 4 922 -11 Q904 -25 879 -8 Q861 79 760 166 L771 174 ZM861 638 Q917 596 951 564 Q947 548 925 548 L63 548 L54 578 L584 578 Q620 651 642 714 L134 714 L126 744 L499 744 Q472 798 398 839 L407 849 Q501 844 538 804 Q568 769 544 744 L743 744 L792 803 Q847 761 880 730 Q876 714 855 714 L649 714 L744 682 Q737 664 706 665 Q666 622 613 578 L813 578 L861 638 ZM300 710 Q414 681 412 617 Q411 593 392 584 Q373 574 351 590 Q342 647 289 704 L300 710 Z" /><glyph glyph-name="uni611F" unicode="&#x611f;" d="M699 831 Q816 812 823 754 Q825 732 808 722 Q791 712 770 726 Q752 781 690 823 L699 831 ZM189 196 Q203 117 176 54 Q154 4 117 -21 Q96 -35 76 -37 Q54 -39 46 -25 Q32 2 67 24 Q162 76 171 197 L189 196 ZM508 641 Q555 604 583 576 Q580 560 558 560 L226 560 L219 590 L467 590 L508 641 ZM310 464 L310 341 L470 341 L470 464 L310 464 ZM310 276 Q310 271 293 264 Q275 256 259 256 L249 256 L249 523 L315 494 L460 494 L495 530 L572 472 Q562 460 531 453 L531 296 Q530 291 512 284 Q493 277 479 277 L470 277 L470 311 L310 311 L310 276 ZM432 247 Q577 196 596 115 Q603 86 587 72 Q571 57 547 73 Q523 158 422 238 L432 247 ZM742 21 Q774 12 774 -6 Q774 -30 732 -38 Q687 -46 539 -46 L393 -46 Q324 -46 303 -33 Q282 -21 282 19 L282 225 L377 214 Q375 194 347 190 L347 29 Q347 17 356 14 Q365 10 401 10 L542 10 Q655 10 673 12 Q689 13 696 25 Q708 48 727 137 L740 137 L742 21 ZM747 200 Q912 134 933 34 Q940 -3 922 -20 Q904 -37 877 -18 Q856 87 735 192 L747 200 ZM931 265 Q966 226 954 210 Q927 170 838 231 Q767 277 710 352 Q640 279 546 235 L534 247 Q616 301 682 392 Q608 510 581 678 L193 678 L193 551 Q193 278 54 158 L42 170 Q131 295 131 550 L131 740 L205 708 L577 708 Q569 767 567 840 L666 830 Q662 808 634 804 Q636 752 641 708 L843 708 L883 760 Q929 722 958 694 Q954 678 932 678 L645 678 Q666 548 720 450 Q770 534 799 638 L894 602 Q887 582 856 585 Q818 484 752 400 Q799 336 866 292 Q886 276 896 297 Q917 337 931 391 L944 388 L931 265 Z" /><glyph glyph-name="uni613F" unicode="&#x613f;" d="M206 520 Q206 105 50 -80 L34 -70 Q144 123 144 520 L144 809 L218 777 L806 777 L854 835 Q908 794 942 763 Q939 747 916 747 L206 747 L206 520 ZM765 534 L362 534 L362 464 L765 464 L765 534 ZM362 631 L362 563 L765 563 L765 631 L362 631 ZM765 434 L598 434 L598 300 Q598 261 583 245 Q564 224 509 219 Q507 244 494 256 Q475 270 430 274 L430 289 Q500 285 517 285 Q536 285 536 301 L536 434 L362 434 L362 413 Q362 409 345 402 Q327 394 310 394 L300 394 L300 691 L368 661 L493 661 Q506 696 513 746 L603 721 Q596 700 567 701 Q553 683 526 661 L755 661 L791 701 L870 639 Q862 626 828 619 L828 420 Q827 415 809 408 Q790 401 775 401 L765 401 L765 434 ZM502 214 Q632 162 642 89 Q646 63 630 52 Q613 41 592 58 Q573 133 490 206 L502 214 ZM463 363 Q453 348 427 354 Q350 274 224 228 L213 241 Q321 309 382 405 L463 363 ZM673 392 Q844 367 885 286 Q900 257 886 239 Q872 220 844 232 Q796 315 664 381 L673 392 ZM294 181 Q309 110 289 53 Q272 6 240 -17 Q222 -30 203 -31 Q182 -33 174 -19 Q161 7 195 30 Q226 47 249 89 Q275 134 276 181 L294 181 ZM768 10 Q796 0 796 -17 Q796 -39 758 -47 Q717 -55 588 -55 L461 -55 Q399 -55 379 -42 Q361 -29 361 7 L361 200 L453 189 Q449 169 424 166 L424 16 Q424 6 431 3 Q439 0 469 0 L590 0 Q687 0 703 1 Q717 2 723 13 Q735 34 752 114 L765 114 L768 10 ZM772 179 Q921 118 938 30 Q944 -3 927 -17 Q910 -32 886 -14 Q867 73 761 171 L772 179 Z" /><glyph glyph-name="uni6210" unicode="&#x6210;" d="M669 814 Q808 803 833 737 Q843 713 828 699 Q814 684 789 695 Q755 759 660 804 L669 814 ZM931 6 Q968 -39 955 -55 Q926 -96 825 -27 Q731 34 668 135 Q545 -1 368 -72 L358 -59 Q527 28 640 184 Q558 348 535 608 L208 608 L208 443 L380 443 L416 481 L490 422 Q479 410 452 407 Q444 127 395 81 Q364 51 308 51 Q308 84 294 97 Q277 111 228 118 L228 135 Q286 129 323 129 Q345 129 353 137 Q382 164 389 414 L208 414 Q208 72 46 -82 L32 -70 Q142 90 142 421 L142 671 L219 637 L533 637 Q526 727 526 836 L628 825 Q624 801 593 797 Q593 708 597 637 L821 637 L869 697 Q923 654 956 623 Q953 608 930 608 L599 608 Q616 386 680 245 Q754 369 789 514 L894 482 Q888 464 854 465 Q803 308 710 186 Q770 88 857 37 Q871 27 877 28 Q884 29 891 44 Q911 83 935 156 L948 154 L931 6 Z" /><glyph glyph-name="uni6211" unicode="&#x6211;" d="M704 778 Q849 732 865 654 Q870 625 853 612 Q835 598 811 615 Q788 691 694 770 L704 778 ZM933 9 Q969 -34 957 -51 Q942 -73 904 -61 Q870 -52 832 -24 Q741 38 684 144 Q554 17 388 -49 L379 -35 Q539 47 660 194 Q609 309 585 485 L351 485 L351 323 Q483 356 552 374 L556 357 Q380 292 351 282 L351 23 Q351 -23 333 -44 Q310 -71 246 -78 Q242 -43 224 -30 Q202 -11 136 -3 L136 12 Q241 4 263 4 Q287 4 287 26 L287 259 Q209 231 102 196 Q96 177 80 172 L44 254 Q112 265 287 308 L287 485 L49 485 L41 515 L287 515 L287 695 Q160 664 58 652 L53 669 Q297 727 455 819 L534 755 Q520 741 483 754 Q432 735 351 712 L351 515 L582 515 Q566 658 566 829 L668 817 Q664 794 632 790 Q630 635 644 515 L823 515 L871 574 Q926 533 960 501 Q956 485 935 485 L647 485 Q665 349 703 251 Q767 339 805 440 L901 400 Q892 382 861 387 Q808 280 730 192 Q782 93 864 41 Q876 31 882 32 Q888 32 895 46 Q917 91 937 159 L950 157 L933 9 Z" /><glyph glyph-name="uni6216" unicode="&#x6216;" d="M684 808 Q822 797 844 731 Q853 706 837 692 Q822 678 797 689 Q765 752 676 797 L684 808 ZM529 156 Q354 103 104 40 Q97 23 82 18 L38 98 Q146 109 526 172 L529 156 ZM390 294 L390 479 L194 479 L194 294 L390 294 ZM390 210 L390 264 L194 264 L194 209 Q194 203 177 196 Q160 188 142 188 L132 188 L132 538 L199 509 L381 509 L415 544 L489 488 Q476 475 452 471 L452 232 Q451 227 434 219 Q415 210 400 210 L390 210 ZM929 -6 Q967 -43 956 -61 Q931 -101 830 -43 Q722 12 654 133 Q515 -4 312 -75 L302 -60 Q496 24 632 181 Q565 335 550 615 L53 615 L44 644 L549 644 Q545 727 545 838 L646 826 Q644 802 610 798 Q609 745 611 644 L822 644 L872 704 Q926 662 961 631 Q957 615 935 615 L612 615 Q622 376 674 236 Q770 371 815 528 L913 495 Q906 476 873 479 Q810 306 699 180 Q757 67 856 20 Q871 12 877 13 Q883 14 890 29 Q913 80 930 145 L943 143 L929 -6 Z" /><glyph glyph-name="uni622A" unicode="&#x622a;" d="M723 791 Q841 743 843 672 Q844 646 826 635 Q807 625 786 642 Q777 711 712 784 L723 791 ZM208 374 L208 280 L330 280 L330 374 L208 374 ZM330 251 L208 251 L208 162 L330 162 L330 251 ZM330 132 L208 132 L208 28 L330 28 L330 132 ZM208 -1 L208 -47 Q208 -52 194 -60 Q178 -69 159 -69 L149 -69 L149 330 Q92 258 44 218 L30 229 Q134 355 201 544 L288 510 Q279 490 250 493 Q225 444 204 411 L221 404 L469 404 L507 450 Q548 417 575 390 Q571 374 549 374 L390 374 L390 280 L450 280 L486 325 Q527 292 552 267 Q549 251 528 251 L390 251 L390 162 L455 162 L491 207 Q532 174 557 148 Q553 132 532 132 L390 132 L390 28 L463 28 L501 77 Q545 42 572 15 Q569 -1 546 -1 L208 -1 ZM317 537 Q411 499 403 441 Q399 420 382 413 Q364 406 347 423 Q349 477 306 530 L317 537 ZM936 -7 Q970 -51 958 -67 Q943 -87 906 -75 Q873 -64 838 -35 Q768 16 714 109 Q626 -12 508 -80 L497 -67 Q611 19 690 157 Q624 303 605 545 L48 545 L39 575 L292 575 L292 684 L108 684 L100 714 L292 714 L292 837 L393 826 Q390 803 356 799 L356 714 L443 714 L484 767 Q532 729 559 700 Q556 684 535 684 L356 684 L356 575 L602 575 Q594 684 594 836 L695 824 Q691 801 659 797 Q657 676 663 575 L826 575 L871 633 Q925 592 956 561 Q953 545 930 545 L665 545 Q680 353 725 228 Q779 342 802 472 L901 448 Q895 429 863 429 Q824 285 752 166 Q799 76 869 27 Q881 16 887 17 Q892 18 899 33 Q920 80 939 146 L952 144 L936 -7 Z" /><glyph glyph-name="uni2F3E" unicode="&#x2f3e;&#x6237;" d="M453 847 Q581 800 585 727 Q586 700 567 689 Q548 677 524 694 Q506 759 442 840 L453 847 ZM787 391 L787 648 L253 648 L253 488 Q253 442 250 391 L787 391 ZM892 656 Q881 644 853 637 L853 323 Q852 318 833 310 Q812 301 797 301 L787 301 L787 362 L248 362 Q224 74 57 -78 L42 -66 Q189 125 189 487 L189 711 L266 677 L778 677 L813 717 L892 656 Z" /><glyph glyph-name="uni6240" unicode="&#x6240;" d="M183 555 L183 442 Q183 364 181 323 L382 323 L382 555 L183 555 ZM179 294 Q162 49 53 -81 L37 -71 Q120 92 120 443 L120 754 L179 734 Q308 780 410 839 L488 775 Q474 762 438 774 Q322 736 183 710 L183 585 L372 585 L408 624 L487 563 Q477 550 444 543 L444 258 Q443 254 425 247 Q406 239 391 239 L382 239 L382 294 L179 294 ZM884 568 Q937 527 968 496 Q964 480 943 480 L830 480 L830 -53 Q830 -58 815 -65 Q797 -74 775 -74 L765 -74 L765 480 L612 480 Q610 92 370 -80 L356 -68 Q548 122 548 493 L548 771 L621 745 Q780 793 868 839 L952 763 Q936 749 899 764 Q765 733 612 718 L612 510 L838 510 L884 568 Z" /><glyph glyph-name="uni2F3F" unicode="&#x2f3f;&#x624b;" d="M876 364 Q935 320 970 288 Q966 272 944 272 L539 272 L539 27 Q539 -20 518 -41 Q490 -70 415 -76 Q410 -41 386 -28 Q356 -9 274 1 L274 16 Q413 5 441 5 Q470 5 470 31 L470 272 L40 272 L31 300 L470 300 L470 496 L106 496 L98 525 L470 525 L470 710 Q271 687 97 684 L93 704 Q510 736 786 837 L863 765 Q849 751 809 767 Q701 742 539 719 L539 525 L769 525 L819 587 Q875 543 910 512 Q907 496 884 496 L539 496 L539 300 L825 300 L876 364 Z" /><glyph glyph-name="uni6253" unicode="&#x6253;" d="M470 437 L287 346 L287 25 Q287 -23 269 -43 Q246 -69 178 -76 Q171 -38 153 -26 Q131 -8 60 2 L60 18 Q174 9 197 9 Q222 9 222 32 L222 314 Q184 295 84 249 Q79 230 64 223 L28 307 Q95 325 222 368 L222 580 L54 580 L47 610 L222 610 L222 839 L323 828 Q318 804 287 800 L287 610 L343 610 L385 665 Q433 625 461 596 Q458 580 437 580 L287 580 L287 390 Q367 417 465 452 L470 437 ZM881 781 Q935 738 968 706 Q964 691 943 691 L771 691 L771 36 Q771 -11 751 -32 Q724 -61 652 -68 Q649 -34 625 -18 Q596 0 518 10 L518 26 Q650 16 677 16 Q705 16 705 39 L705 691 L398 691 L390 720 L834 720 L881 781 Z" /><glyph glyph-name="uni6289" unicode="&#x6289;" d="M398 416 Q306 366 254 340 L254 18 Q254 -28 238 -46 Q218 -71 158 -77 Q152 -40 138 -30 Q121 -13 64 -6 L64 11 Q151 4 170 4 Q192 4 192 24 L192 309 Q158 292 79 254 Q76 234 58 229 L27 314 Q76 326 192 364 L192 580 L49 580 L42 610 L192 610 L192 838 L291 827 Q288 804 254 800 L254 610 L287 610 L328 665 Q376 625 404 596 Q400 580 377 580 L254 580 L254 384 Q276 392 322 407 L393 431 L398 416 ZM639 489 Q639 418 630 352 L788 352 L788 620 L639 620 L639 489 ZM651 323 Q714 102 970 -8 L968 -20 Q914 -28 905 -77 Q685 42 631 323 L625 323 Q575 38 295 -79 L285 -63 Q522 61 564 323 L348 323 L340 352 L568 352 Q576 411 576 489 L576 620 L412 620 L403 649 L576 649 L576 832 L674 822 Q671 798 639 793 L639 649 L777 649 L816 691 L899 627 Q884 612 851 606 L851 352 L855 352 L896 412 Q942 369 968 339 Q965 323 943 323 L651 323 Z" /><glyph glyph-name="uni6295" unicode="&#x6295;" d="M355 412 Q484 508 484 689 L484 805 L557 773 L727 773 L763 810 L834 747 Q823 736 797 733 L797 525 Q797 511 815 511 L890 511 Q900 511 904 512 L920 515 L933 515 Q960 504 960 489 Q960 451 847 451 L798 451 Q759 451 747 464 Q736 475 736 507 L736 743 L545 743 L545 689 Q545 486 366 398 L355 412 ZM379 469 L257 370 L257 24 Q257 -23 240 -43 Q217 -69 152 -76 Q148 -39 130 -26 Q109 -8 44 1 L44 18 Q148 9 168 9 Q193 9 193 31 L193 320 Q179 310 149 287 Q118 263 101 251 Q99 232 86 222 L37 299 Q76 317 193 381 L193 579 L47 579 L39 609 L193 609 L193 839 L294 828 Q289 804 257 800 L257 609 L294 609 L335 664 Q383 625 412 595 Q409 579 386 579 L257 579 L257 416 L314 449 Q352 471 371 481 L379 469 ZM494 351 Q541 222 642 137 Q736 233 782 351 L494 351 ZM896 354 Q885 343 853 342 Q792 203 683 106 Q795 26 968 -11 L966 -23 Q922 -28 906 -76 Q738 -23 638 69 Q505 -31 307 -79 L299 -63 Q482 -3 604 103 Q515 205 473 351 L397 351 L388 380 L782 380 L825 420 L896 354 Z" /><glyph glyph-name="uni6297" unicode="&#x6297;" d="M544 832 Q680 786 687 707 Q690 677 671 665 Q652 653 628 671 Q614 748 534 824 L544 832 ZM406 612 L398 642 L824 642 L871 703 Q926 660 959 628 Q955 612 933 612 L406 612 ZM414 419 Q427 425 258 337 L258 24 Q258 -22 241 -42 Q218 -68 153 -76 Q148 -39 130 -25 Q107 -8 42 1 L42 18 Q148 9 169 9 Q194 9 194 32 L194 304 Q139 276 89 252 Q85 235 69 227 L34 311 Q79 322 194 360 L194 581 L56 581 L48 610 L194 610 L194 839 L294 828 Q291 804 258 800 L258 610 L292 610 L333 665 Q380 627 408 597 Q405 581 383 581 L258 581 L258 382 Q324 404 409 434 L414 419 ZM941 21 Q965 11 965 -6 Q965 -43 849 -43 L796 -43 Q757 -43 743 -29 Q731 -17 731 15 L731 452 L539 452 L539 307 Q539 183 501 103 Q447 -10 309 -77 L298 -63 Q477 58 477 306 L477 515 L551 482 L722 482 L757 520 L831 456 Q820 445 792 441 L792 31 Q792 14 812 14 L850 14 Q879 14 886 15 Q895 16 899 26 Q907 49 925 167 L938 167 L941 21 Z" /><glyph glyph-name="uni62A4" unicode="&#x62a4;" d="M611 847 Q742 799 747 720 Q749 691 731 680 Q711 667 688 686 Q678 761 600 839 L611 847 ZM414 427 Q343 385 259 340 L259 23 Q259 -23 242 -43 Q219 -70 154 -77 Q149 -40 131 -26 Q106 -7 43 1 L43 17 Q149 9 170 9 Q196 9 196 31 L196 305 Q134 271 99 254 Q96 235 79 227 L43 311 Q78 322 196 362 L196 581 L51 581 L43 610 L196 610 L196 839 L296 828 Q291 804 259 800 L259 610 L301 610 L342 666 Q390 627 418 597 Q414 581 392 581 L259 581 L259 385 L408 441 L414 427 ZM857 412 L857 633 L514 633 L514 466 Q514 431 513 412 L857 412 ZM963 640 Q953 626 921 620 L921 339 Q920 333 902 326 Q882 318 867 318 L857 318 L857 382 L512 382 Q496 73 310 -81 L297 -69 Q451 114 451 466 L451 695 L527 662 L847 662 L884 702 L963 640 Z" /><glyph glyph-name="uni62E9" unicode="&#x62e9;" d="M392 464 Q358 442 236 357 L236 21 Q236 -27 220 -47 Q198 -73 136 -80 Q133 -43 117 -26 Q95 -7 39 1 L39 16 Q131 8 150 8 Q172 8 172 28 L172 314 L83 257 Q80 238 65 230 L26 311 Q84 334 172 375 L172 579 L46 579 L38 609 L172 609 L172 839 L273 828 Q268 804 236 800 L236 609 L282 609 L324 664 Q373 625 401 595 Q398 579 376 579 L236 579 L236 406 Q328 449 385 477 L392 464 ZM876 204 Q929 164 961 133 Q958 117 935 117 L672 117 L672 -56 Q672 -62 655 -70 Q638 -78 621 -78 L607 -78 L607 117 L328 117 L320 147 L607 147 L607 271 L392 271 L384 301 L607 301 L607 433 L708 422 Q705 400 672 395 L672 301 L790 301 L830 352 Q878 315 907 287 Q903 271 880 271 L672 271 L672 147 L828 147 L876 204 ZM484 740 Q539 633 649 563 Q733 643 781 740 L484 740 ZM898 744 Q888 732 856 731 Q794 617 698 535 Q815 476 973 451 L972 439 Q928 431 915 383 Q754 423 649 498 Q510 398 315 352 L307 368 Q487 427 610 528 Q509 615 462 740 L381 740 L373 769 L784 769 L827 810 L898 744 Z" /><glyph glyph-name="uni62FC" unicode="&#x62fc;" d="M868 802 Q860 782 830 785 Q767 689 698 624 L683 634 Q724 713 765 841 L868 802 ZM449 835 Q582 774 583 688 Q583 656 563 644 Q542 631 518 651 Q512 735 437 829 L449 835 ZM719 348 L719 582 L562 582 L562 348 L719 348 ZM884 407 Q937 365 968 335 Q964 319 943 319 L785 319 L785 -55 Q785 -60 770 -67 Q752 -76 730 -76 L719 -76 L719 319 L561 319 Q546 39 301 -79 L291 -66 Q484 66 496 319 L342 319 L334 348 L497 348 L497 582 L387 582 L386 585 Q378 580 367 580 L254 580 L254 395 L388 440 L392 426 L329 393 Q286 369 254 353 L254 18 Q254 -28 238 -46 Q218 -71 158 -77 Q152 -40 138 -30 Q121 -13 64 -6 L64 11 Q151 4 170 4 Q192 4 192 24 L192 321 L79 266 Q76 246 58 241 L27 326 Q73 337 192 375 L192 580 L49 580 L42 610 L192 610 L192 838 L291 827 Q288 804 254 800 L254 610 L276 610 L317 665 Q352 636 380 609 L379 612 L820 612 L867 670 Q919 628 952 598 Q948 582 925 582 L785 582 L785 348 L839 348 L884 407 Z" /><glyph glyph-name="uni6309" unicode="&#x6309;" d="M594 841 Q715 792 713 717 Q712 689 692 679 Q672 668 650 688 Q647 761 582 834 L594 841 ZM383 445 L254 365 L254 20 Q254 -25 239 -44 Q219 -69 160 -75 Q155 -41 141 -27 Q123 -9 69 -2 L69 14 Q153 8 171 8 Q192 8 192 27 L192 329 Q120 285 87 268 Q84 247 69 241 L31 321 Q87 339 192 382 L192 586 L49 586 L41 615 L192 615 L192 839 L290 828 Q287 806 254 800 L254 615 L268 615 L307 670 Q353 631 381 602 Q377 586 355 586 L254 586 L254 408 Q275 416 315 433 L377 459 L383 445 ZM589 384 Q540 273 501 196 Q588 168 673 136 Q744 228 772 384 L589 384 ZM869 474 Q922 432 956 400 Q952 384 929 384 L845 384 Q811 210 731 112 Q918 28 937 -41 Q943 -65 923 -73 Q903 -80 879 -63 Q812 1 691 70 Q576 -36 330 -80 L323 -62 Q536 -6 639 98 Q550 144 433 193 Q464 245 522 384 L374 384 L366 414 L534 414 Q583 536 599 594 L693 561 Q684 542 652 546 Q635 495 601 414 L823 414 L869 474 ZM973 632 Q965 622 935 621 Q891 564 837 517 L824 524 Q835 553 857 633 L456 633 Q463 559 421 531 Q386 504 364 534 Q342 563 382 593 Q426 630 423 709 L438 710 Q447 687 452 663 L853 663 L896 706 L973 632 Z" /><glyph glyph-name="uni6325" unicode="&#x6325;" d="M454 749 Q458 692 439 660 Q423 634 398 632 Q375 629 365 648 Q355 668 374 694 Q421 728 427 822 L442 821 Q448 802 451 779 L841 779 L885 822 L963 747 Q953 737 924 736 Q866 678 830 651 L818 656 Q820 665 830 699 Q840 731 844 749 L454 749 ZM382 426 L250 347 L250 21 Q250 -25 234 -44 Q212 -70 149 -77 Q144 -39 128 -26 Q106 -9 45 0 L45 15 Q144 8 164 8 Q187 8 187 29 L187 309 L92 256 Q89 237 73 230 L35 311 Q68 321 187 366 L187 581 L52 581 L44 611 L187 611 L187 839 L287 828 Q282 804 250 800 L250 611 L263 611 L302 663 Q349 626 376 597 Q373 581 351 581 L250 581 L250 390 L376 440 L382 426 ZM885 241 Q938 199 971 168 Q967 152 944 152 L696 152 L696 -56 Q696 -63 680 -71 Q663 -79 646 -79 L634 -79 L634 152 L333 152 L325 181 L634 181 L634 322 L481 322 L446 290 L378 351 Q393 359 426 369 Q466 439 515 545 L381 545 L373 574 L528 574 Q569 663 587 715 L677 682 Q667 661 636 666 Q625 638 596 574 L797 574 L842 631 Q895 591 926 561 Q923 545 901 545 L583 545 Q534 444 485 351 L634 351 L634 491 L733 480 Q730 457 696 453 L696 351 L781 351 L822 404 Q871 367 902 338 Q899 322 876 322 L696 322 L696 181 L838 181 L885 241 Z" /><glyph glyph-name="uni6362" unicode="&#x6362;" d="M361 417 Q297 374 238 337 L238 21 Q238 -25 222 -44 Q201 -70 140 -76 Q138 -40 121 -27 Q101 -9 44 -1 L44 15 Q135 8 153 8 Q176 8 176 28 L176 297 L97 249 Q93 228 78 222 L37 302 Q70 313 176 355 L176 584 L52 584 L44 614 L176 614 L176 839 L274 828 Q272 804 238 800 L238 614 L257 614 L297 668 Q344 629 371 600 Q367 584 346 584 L238 584 L238 381 Q306 410 355 430 L361 417 ZM657 521 Q659 350 636 249 L799 249 L799 521 L657 521 ZM574 249 Q597 346 594 521 L456 521 L456 249 L574 249 ZM516 698 Q475 629 422 570 L469 550 L624 550 Q661 605 700 698 L516 698 ZM661 220 Q751 38 977 -7 L976 -18 Q931 -28 921 -77 Q712 -5 639 220 L628 220 Q597 108 514 39 Q428 -34 263 -80 L257 -64 Q509 38 566 220 L294 220 L286 249 L395 249 L395 542 Q363 510 330 486 L316 496 Q437 626 507 844 L602 807 Q595 787 564 790 Q548 754 532 728 L699 728 L740 769 L816 701 Q807 693 776 690 Q694 586 651 550 L789 550 L826 589 L903 529 Q891 515 860 509 L860 249 L870 249 L908 310 Q954 266 978 236 Q974 220 952 220 L661 220 Z" /><glyph glyph-name="uni636E" unicode="&#x636e;" d="M381 414 L245 341 L245 18 Q245 -27 229 -46 Q209 -71 149 -78 Q144 -41 130 -30 Q110 -13 55 -6 L55 11 Q142 4 160 4 Q182 4 182 24 L182 308 Q119 275 82 258 Q77 239 62 232 L25 315 Q77 328 182 363 L182 580 L49 580 L42 610 L182 610 L182 838 L282 827 Q277 804 245 800 L245 610 L267 610 L307 666 Q353 625 380 596 Q377 580 355 580 L245 580 L245 383 Q332 412 377 428 L381 414 ZM541 209 L541 18 L841 18 L841 209 L541 209 ZM461 741 L461 596 L849 596 L849 741 L461 741 ZM715 391 L715 238 L831 238 L867 278 L948 216 Q935 203 904 197 L904 -50 Q903 -55 885 -63 Q865 -71 851 -71 L841 -71 L841 -11 L541 -11 L541 -55 Q541 -61 524 -68 Q506 -76 487 -76 L478 -76 L478 269 L545 238 L652 238 L652 391 L457 391 Q438 99 299 -58 L284 -49 Q398 144 398 532 L398 803 L473 771 L840 771 L873 806 L946 751 Q937 739 912 734 L912 553 Q911 547 893 540 Q873 532 858 532 L849 532 L849 567 L461 567 L461 533 Q461 459 459 420 L652 420 L652 555 L750 544 Q747 524 715 520 L715 420 L832 420 L876 479 Q929 438 961 407 Q957 391 936 391 L715 391 Z" /><glyph glyph-name="uni6392" unicode="&#x6392;" d="M357 457 Q343 448 242 376 L242 22 Q242 -24 226 -43 Q204 -69 141 -76 Q136 -38 120 -26 Q98 -9 37 0 L37 16 Q136 9 156 9 Q179 9 179 30 L179 332 L89 273 Q86 251 71 244 L29 323 Q80 343 179 388 L179 582 L44 582 L36 612 L179 612 L179 839 L279 828 Q276 804 242 800 L242 612 L261 612 L301 665 Q346 627 375 598 Q371 582 349 582 L242 582 L242 418 L350 470 L357 457 ZM511 837 L610 826 Q605 803 574 798 L574 -50 Q574 -58 558 -66 Q541 -75 524 -75 L511 -75 L511 178 L333 178 L324 207 L511 207 L511 401 L365 401 L356 430 L511 430 L511 607 L374 607 L365 636 L511 636 L511 837 ZM883 264 Q933 224 963 193 Q959 177 938 177 L742 177 L742 -51 Q742 -59 725 -68 Q708 -77 691 -77 L679 -77 L679 836 L778 824 Q773 801 742 796 L742 636 L824 636 L867 693 Q916 652 946 623 Q942 607 920 607 L742 607 L742 431 L816 431 L858 484 Q904 446 933 417 Q929 401 907 401 L742 401 L742 207 L839 207 L883 264 Z" /><glyph glyph-name="uni63D0" unicode="&#x63d0;" d="M511 750 L511 649 L808 649 L808 750 L511 750 ZM808 523 L808 621 L511 621 L511 523 L808 523 ZM511 458 Q511 452 494 444 Q475 436 457 436 L448 436 L448 810 L516 780 L798 780 L835 819 L915 758 Q902 743 872 737 L872 466 Q871 460 853 452 Q833 444 818 444 L808 444 L808 493 L511 493 L511 458 ZM402 432 Q382 422 334 396 L254 354 L254 18 Q254 -28 238 -46 Q218 -71 158 -77 Q152 -40 138 -30 Q121 -13 64 -6 L64 11 Q151 4 170 4 Q192 4 192 24 L192 323 Q122 288 83 270 Q80 249 62 244 L30 330 Q70 338 192 378 L192 580 L49 580 L42 610 L192 610 L192 838 L291 827 Q288 804 254 800 L254 610 L287 610 L328 665 Q376 625 404 596 Q400 580 377 580 L254 580 L254 398 Q277 405 324 422 L397 446 L402 432 ZM686 8 Q717 4 762 4 Q918 4 971 5 L971 -8 Q939 -15 937 -58 L758 -58 Q647 -58 589 -21 Q522 20 484 130 Q427 -11 306 -78 L294 -65 Q439 64 459 305 L558 287 Q553 265 523 264 Q514 213 495 159 Q538 52 622 22 L622 361 L383 361 L376 390 L824 390 L870 446 Q921 406 953 376 Q950 361 927 361 L686 361 L686 215 L792 215 L838 274 Q890 233 922 203 Q918 187 896 187 L686 187 L686 8 Z" /><glyph glyph-name="uni63ED" unicode="&#x63ed;" d="M388 435 L248 346 L248 21 Q248 -25 232 -44 Q211 -70 151 -76 Q146 -39 132 -26 Q112 -8 55 0 L55 15 Q144 9 163 9 Q185 9 185 27 L185 306 L92 250 Q89 229 73 223 L34 303 Q76 318 185 363 L185 582 L54 582 L46 612 L185 612 L185 839 L285 828 Q282 804 248 800 L248 612 L280 612 L320 667 Q368 628 395 598 Q391 582 370 582 L248 582 L248 389 L382 448 L388 435 ZM737 118 Q781 84 810 58 Q806 42 784 42 L478 42 L454 13 L382 55 Q392 65 412 76 L412 271 L509 260 Q506 238 472 232 L472 72 L698 72 L737 118 ZM706 318 Q699 302 671 303 Q659 275 644 251 Q765 225 783 167 Q789 146 776 135 Q762 123 740 134 Q707 184 632 232 Q574 143 493 98 L484 112 Q582 193 619 348 L706 318 ZM491 749 L491 642 L809 642 L809 749 L491 749 ZM809 512 L809 612 L491 612 L491 512 L809 512 ZM962 360 Q952 348 922 344 Q910 9 857 -44 Q821 -77 756 -77 Q758 -48 740 -36 Q724 -24 657 -12 L658 5 Q757 -3 778 -3 Q802 -3 812 7 Q849 41 860 352 L475 352 Q391 263 306 219 L296 232 Q394 307 467 439 Q453 435 439 435 L429 435 L429 809 L502 778 L806 778 L838 816 L910 761 Q897 748 873 744 L873 462 Q873 458 857 452 Q839 444 820 444 L809 444 L809 483 L491 483 L491 478 L580 446 Q573 432 543 436 Q520 403 502 382 L849 382 L887 422 L962 360 Z" /><glyph glyph-name="uni640F" unicode="&#x640f;" d="M723 824 Q841 827 862 774 Q869 755 857 743 Q844 731 822 739 Q787 784 715 812 L723 824 ZM667 580 L667 498 L829 498 L829 580 L667 580 ZM829 389 L829 469 L667 469 L667 389 L829 389 ZM605 389 L605 469 L452 469 L452 389 L605 389 ZM452 580 L452 498 L605 498 L605 580 L452 580 ZM339 718 L605 718 L605 836 L699 825 Q696 806 667 802 L667 718 L839 718 L882 771 Q930 733 961 705 Q957 689 935 689 L667 689 L667 609 L819 609 L856 648 L936 587 Q924 573 893 567 L893 308 Q892 302 874 293 Q855 284 839 284 L829 284 L829 360 L667 360 L667 300 Q667 294 651 286 Q634 278 618 278 L605 278 L605 360 L452 360 L452 293 Q452 288 435 281 Q417 273 399 273 L389 273 L389 639 L458 609 L605 609 L605 689 L347 689 L339 718 ZM365 408 L244 342 L244 17 Q244 -28 228 -46 Q208 -71 149 -77 Q144 -43 130 -30 Q109 -13 55 -7 L55 10 Q142 3 160 3 Q182 3 182 23 L182 309 L82 258 Q77 239 62 232 L25 315 Q59 324 182 363 L182 580 L49 580 L42 610 L182 610 L182 838 L281 827 Q276 804 244 800 L244 610 L267 610 L307 666 Q353 625 380 596 Q377 580 355 580 L244 580 L244 383 L360 422 L365 408 ZM427 174 Q563 138 570 61 Q572 33 553 20 Q533 8 508 26 Q494 101 417 166 L427 174 ZM886 280 Q936 240 965 211 Q961 195 940 195 L779 195 L779 15 Q779 -30 763 -48 Q742 -72 682 -78 Q679 -45 663 -32 Q643 -16 590 -8 L590 7 Q677 1 695 1 Q714 1 714 19 L714 195 L316 195 L308 224 L714 224 L714 301 L812 291 Q809 272 779 266 L779 224 L844 224 L886 280 Z" /><glyph glyph-name="uni2F40" unicode="&#x2f40;&#x652f;" d="M306 443 Q371 296 511 188 Q636 299 704 443 L306 443 ZM826 443 Q815 432 781 431 Q697 270 557 154 Q729 39 964 -10 L962 -21 Q912 -26 897 -75 Q667 -12 511 118 Q326 -16 50 -78 L42 -61 Q297 14 471 154 Q344 275 284 443 L130 443 L121 471 L466 471 L466 645 L67 645 L58 675 L466 675 L466 838 L568 827 Q566 805 533 799 L533 675 L804 675 L855 737 Q911 694 947 661 Q943 645 921 645 L533 645 L533 471 L706 471 L753 514 L826 443 Z" /><glyph glyph-name="uni6536" unicode="&#x6536;" d="M401 824 Q398 802 367 798 L367 -50 Q367 -59 350 -68 Q333 -78 316 -78 L304 -78 L304 239 Q224 194 122 143 Q113 128 98 122 L62 199 Q95 214 95 237 L95 733 L194 721 Q191 700 158 694 L158 223 Q203 235 304 265 L304 836 L401 824 ZM563 582 Q553 553 543 532 Q588 342 674 217 Q761 364 788 582 L563 582 ZM863 582 Q823 325 711 170 Q814 49 976 -16 L973 -26 Q923 -33 910 -77 Q766 -5 674 124 Q566 -3 392 -79 L382 -66 Q548 31 645 169 Q569 294 527 497 Q474 384 410 309 L396 318 Q511 534 552 838 L661 814 Q656 792 625 791 Q603 693 573 612 L835 612 L883 671 Q935 629 968 598 Q965 582 942 582 L863 582 Z" /><glyph glyph-name="uni6563" unicode="&#x6563;" d="M221 540 L339 540 L339 677 L221 677 L221 540 ZM480 594 Q528 555 556 527 Q552 511 531 511 L42 511 L34 540 L160 540 L160 677 L55 677 L47 706 L160 706 L160 838 L253 828 Q250 807 221 802 L221 706 L339 706 L339 838 L435 827 Q432 805 400 801 L400 706 L428 706 L468 759 Q514 721 541 693 Q540 677 517 677 L400 677 L400 540 L439 540 L480 594 ZM394 174 L394 273 L171 273 L171 174 L394 174 ZM171 397 L171 301 L394 301 L394 397 L171 397 ZM493 406 Q482 393 457 388 L457 27 Q457 -17 443 -35 Q424 -59 368 -65 Q364 -29 351 -17 Q334 0 288 7 L288 23 Q360 17 376 17 Q394 17 394 35 L394 144 L171 144 L171 -54 Q171 -60 157 -67 Q140 -76 119 -76 L109 -76 L109 458 L183 427 L385 427 L416 463 L493 406 ZM651 588 Q642 564 628 535 Q662 362 726 240 Q792 386 811 588 L651 588 ZM886 588 Q855 335 760 181 Q842 54 973 -19 L970 -29 Q923 -36 909 -77 Q796 4 726 130 Q634 6 475 -77 L465 -65 Q614 38 698 186 Q640 316 611 498 Q568 412 515 350 L499 360 Q606 558 642 837 L749 812 Q744 790 713 789 Q691 696 662 618 L838 618 L884 677 Q939 634 970 604 Q967 588 945 588 L886 588 Z" /><glyph glyph-name="uni6570" unicode="&#x6570;" d="M506 773 Q499 754 470 757 Q418 687 372 646 L357 655 Q385 713 418 808 L506 773 ZM99 797 Q210 753 210 687 Q210 662 192 653 Q174 644 154 660 Q147 724 88 789 L99 797 ZM34 389 Q156 475 225 601 L55 601 L47 631 L255 631 L255 838 L353 827 Q350 806 317 801 L317 631 L433 631 L474 684 Q523 646 551 617 Q548 601 525 601 L317 601 L317 584 Q463 540 486 464 Q494 436 478 423 Q463 409 438 423 Q410 486 317 563 L317 413 Q317 407 301 399 Q284 391 268 391 L255 391 L255 533 Q171 435 45 373 L34 389 ZM244 265 Q213 211 174 149 Q274 137 334 115 Q383 179 409 265 L244 265 ZM514 271 Q504 261 474 258 Q439 160 383 94 Q456 57 459 15 Q461 -1 449 -9 Q437 -17 418 -11 Q394 17 340 50 Q240 -38 59 -78 L52 -61 Q208 -13 295 72 Q199 119 100 139 L108 150 Q136 192 176 265 L50 265 L41 295 L191 295 Q225 361 238 396 L332 364 Q325 344 289 348 Q283 334 261 295 L407 295 L446 332 L514 271 ZM634 582 Q626 560 608 520 Q645 348 715 227 Q787 365 806 582 L634 582 ZM879 582 Q850 319 751 171 Q839 48 973 -20 L970 -30 Q921 -36 907 -79 Q791 -3 715 124 Q609 -2 423 -77 L414 -63 Q592 32 686 177 Q622 308 592 485 Q550 401 505 346 L490 355 Q589 551 624 835 L731 812 Q726 789 694 789 Q674 695 644 611 L841 611 L887 670 Q940 629 974 598 Q970 582 947 582 L879 582 Z" /><glyph glyph-name="uni6574" unicode="&#x6574;" d="M149 542 L251 542 L251 632 L149 632 L149 542 ZM312 632 L312 542 L417 542 L417 632 L312 632 ZM251 441 Q169 351 43 293 L32 309 Q162 393 230 513 L149 513 L149 499 Q149 494 134 487 Q117 480 100 480 L92 480 L92 690 L154 661 L251 661 L251 724 L57 724 L49 753 L251 753 L251 843 L348 832 Q345 810 312 805 L312 753 L412 753 L455 805 Q502 769 533 740 Q529 724 506 724 L312 724 L312 661 L409 661 L440 694 L507 642 Q496 629 475 626 L475 506 Q474 500 457 493 Q440 485 426 485 L417 485 L417 513 L312 513 L312 482 Q457 466 485 399 Q495 375 481 361 Q467 346 442 357 Q403 419 312 466 L312 314 Q312 308 296 301 Q280 293 264 293 L251 293 L251 441 ZM869 35 Q922 -6 954 -36 Q951 -52 929 -52 L54 -52 L46 -23 L246 -23 L246 171 L343 161 Q340 140 310 135 L310 -23 L468 -23 L468 232 L122 232 L113 261 L757 261 L801 317 Q853 278 884 248 Q880 232 859 232 L533 232 L533 129 L707 129 L753 186 Q804 145 837 116 Q833 100 810 100 L533 100 L533 -23 L822 -23 L869 35 ZM627 652 Q665 566 722 504 Q777 576 801 669 L638 669 L627 652 ZM874 669 Q838 550 761 468 Q847 394 973 360 L970 349 Q929 339 921 296 Q800 346 724 433 Q630 352 470 302 L463 317 Q609 377 694 470 Q646 538 613 630 Q569 568 518 526 L504 537 Q594 655 634 838 L732 807 Q723 788 696 788 Q676 737 654 698 L843 698 L888 755 Q938 714 969 685 Q965 669 944 669 L874 669 Z" /><glyph glyph-name="uni2F42" unicode="&#x2f42;&#x6587;" d="M408 836 Q565 787 584 699 Q591 667 572 652 Q554 636 527 654 Q501 744 397 828 L408 836 ZM274 590 Q340 365 504 218 Q646 372 700 590 L274 590 ZM783 590 Q715 340 549 179 Q715 49 967 -12 L964 -23 Q911 -26 890 -78 Q650 -5 501 137 Q329 -6 49 -80 L41 -65 Q300 21 463 175 Q311 338 252 590 L56 590 L47 620 L812 620 L863 685 Q921 639 956 606 Q952 590 929 590 L783 590 Z" /><glyph glyph-name="uni2F43" unicode="&#x2f43;&#x6597;" d="M265 751 Q452 725 494 637 Q509 605 493 585 Q477 566 446 579 Q392 669 257 740 L265 751 ZM173 522 Q365 500 411 411 Q428 379 412 358 Q396 338 364 350 Q306 439 164 511 L173 522 ZM856 379 Q919 343 959 316 Q957 298 936 295 L669 252 L669 -51 Q669 -59 651 -69 Q633 -79 615 -79 L602 -79 L602 241 L62 155 L49 182 L602 271 L602 838 L705 826 Q700 803 669 798 L669 282 L812 305 L856 379 Z" /><glyph glyph-name="uni65AD" unicode="&#x65ad;" d="M399 539 Q422 603 451 734 L538 706 Q531 686 503 687 Q454 583 416 531 L399 539 ZM317 505 L317 815 L412 804 Q407 781 375 776 L375 505 L450 505 L487 554 Q530 519 556 492 Q553 476 531 476 L375 476 L375 435 Q508 368 520 286 Q524 256 507 244 Q491 232 468 249 Q454 322 375 413 L375 119 Q375 111 360 104 Q345 96 329 96 L317 96 L317 353 Q260 238 167 152 L153 167 Q250 288 299 476 L166 476 L158 505 L317 505 ZM192 725 Q281 645 274 571 Q271 543 254 534 Q237 525 220 544 Q224 623 177 720 L192 725 ZM424 97 Q471 59 501 31 Q497 15 474 15 L151 15 L126 -22 L56 28 Q64 37 84 48 L84 813 L180 802 Q177 780 144 776 L144 44 L381 44 L424 97 ZM890 561 Q943 520 975 489 Q971 473 949 473 L844 473 L844 -58 Q844 -63 830 -70 Q812 -79 791 -79 L782 -79 L782 473 L643 473 L643 418 Q643 254 614 154 Q572 9 460 -79 L445 -66 Q581 85 581 418 L581 761 L653 736 Q782 781 870 838 L954 765 Q939 751 902 765 Q796 732 643 712 L643 503 L845 503 L890 561 Z" /><glyph glyph-name="uni65B0" unicode="&#x65b0;" d="M214 842 Q333 807 334 742 Q334 718 316 708 Q296 698 274 715 Q262 771 204 834 L214 842 ZM66 668 L58 697 L403 697 L446 752 Q496 714 526 684 Q522 668 501 668 L66 668 ZM138 665 Q242 597 234 523 Q231 496 213 487 Q194 478 175 498 Q174 573 126 660 L138 665 ZM240 227 Q230 210 203 214 Q139 70 49 -9 L37 4 Q115 116 143 267 L240 227 ZM312 298 L312 16 Q312 -27 296 -46 Q276 -71 220 -77 Q218 -46 206 -32 Q188 -17 138 -10 L138 5 Q212 -1 229 -1 Q249 -1 249 18 L249 298 L71 298 L63 328 L249 328 L249 449 L45 449 L38 479 L326 479 Q353 555 374 661 L472 631 Q465 611 436 612 Q400 543 352 479 L414 479 L458 536 Q508 495 540 465 Q536 449 514 449 L312 449 L312 328 L401 328 L443 382 Q492 343 521 314 Q517 298 495 298 L312 298 ZM349 253 Q470 194 467 113 Q466 82 447 71 Q427 60 405 80 Q406 161 337 245 L349 253 ZM882 552 Q938 509 969 477 Q966 461 944 461 L832 461 L832 -57 Q832 -62 817 -69 Q800 -78 778 -78 L768 -78 L768 461 L620 461 L620 430 Q620 265 586 161 Q538 12 412 -76 L398 -65 Q556 94 556 430 L556 758 L632 731 Q772 779 866 837 L945 772 Q932 759 895 771 Q761 726 620 706 L620 491 L836 491 L882 552 Z" /><glyph glyph-name="uni2F45" unicode="&#x2f45;&#x65b9;" d="M412 845 Q564 797 579 710 Q584 677 565 663 Q545 648 518 667 Q498 753 401 838 L412 845 ZM864 700 Q921 656 957 624 Q953 608 930 608 L434 608 Q427 507 417 440 L717 440 L756 482 L832 417 Q822 405 791 401 Q773 27 705 -37 Q665 -77 592 -77 Q592 -41 572 -29 Q549 -13 465 1 L466 18 Q607 6 619 6 Q647 6 660 18 Q707 62 726 410 L412 410 Q355 71 73 -82 L65 -70 Q224 50 291 224 Q347 371 354 608 L54 608 L45 637 L814 637 L864 700 Z" /><glyph glyph-name="uni65BD" unicode="&#x65bd;" d="M408 482 Q509 627 552 837 L654 807 Q647 787 617 787 Q599 733 574 682 L828 682 L875 742 Q930 700 962 669 Q959 653 937 653 L559 653 Q500 541 423 473 L408 482 ZM159 837 Q285 788 288 711 Q290 683 271 671 Q252 660 230 678 Q223 755 148 830 L159 837 ZM433 446 Q421 434 392 430 Q383 24 326 -35 Q294 -70 237 -70 Q237 -37 224 -26 Q209 -14 166 -5 L167 13 Q219 7 251 7 Q272 7 282 18 Q322 57 332 438 L216 438 Q185 107 45 -81 L32 -71 Q163 184 159 623 L48 623 L40 653 L337 653 L381 711 Q433 670 463 639 Q460 623 438 623 L227 623 Q223 519 218 468 L322 468 L359 508 L433 446 ZM942 7 Q974 -1 974 -19 Q974 -43 932 -51 Q886 -60 749 -60 L617 -60 Q551 -60 528 -44 Q505 -29 505 14 L505 324 L435 296 L414 320 L505 356 L505 523 L598 512 Q596 492 565 486 L565 381 L668 422 L668 607 L764 596 Q759 574 727 569 L727 447 L835 491 L860 536 L940 492 Q932 476 904 469 L904 219 Q904 182 888 163 Q868 140 817 135 Q817 164 807 178 Q794 191 757 197 L757 210 Q800 206 827 206 Q844 206 844 220 L844 462 L727 414 L727 115 Q727 108 712 101 Q696 93 680 93 L668 93 L668 391 L565 349 L565 27 Q565 10 575 4 Q587 -3 623 -3 L752 -3 Q847 -3 874 0 Q891 2 897 9 Q909 27 927 96 L938 96 L942 7 Z" /><glyph glyph-name="uni2F46" unicode="&#x2f46;&#x65e0;" d="M927 33 Q956 25 956 3 Q956 -21 918 -30 Q877 -39 753 -39 L636 -39 Q574 -39 553 -24 Q533 -9 533 32 L533 443 L477 443 Q450 271 363 154 Q260 16 51 -80 L37 -62 Q359 113 409 443 L56 443 L48 473 L413 473 Q422 554 424 726 L120 726 L111 755 L748 755 L797 818 Q855 774 890 742 Q886 726 864 726 L497 726 Q491 544 481 473 L811 473 L864 537 Q922 493 957 459 Q954 443 931 443 L599 443 L599 47 Q599 32 607 27 Q616 22 646 22 L755 22 Q842 22 858 24 Q873 27 878 39 Q889 63 911 187 L925 187 L927 33 Z" /><glyph glyph-name="uni2F47" unicode="&#x2f47;&#x65e5;" d="M735 48 L735 371 L269 371 L269 48 L735 48 ZM269 710 L269 400 L735 400 L735 710 L269 710 ZM846 717 Q835 704 803 698 L803 -39 Q802 -45 783 -55 Q762 -65 745 -65 L735 -65 L735 19 L269 19 L269 -43 Q269 -51 253 -60 Q236 -70 214 -70 L203 -70 L203 774 L275 739 L725 739 L764 783 L846 717 Z" /><glyph glyph-name="uni65F6" unicode="&#x65f6;" d="M299 167 L299 427 L143 427 L143 167 L299 167 ZM143 718 L143 456 L299 456 L299 718 L143 718 ZM404 726 Q394 712 362 706 L362 75 Q361 69 343 60 Q323 51 308 51 L299 51 L299 138 L143 138 L143 26 Q143 21 129 13 Q112 4 91 4 L81 4 L81 779 L156 748 L289 748 L326 789 L404 726 ZM885 658 Q938 613 970 580 Q966 564 944 564 L792 564 L792 24 Q792 -23 772 -43 Q747 -70 673 -77 Q668 -42 646 -29 Q620 -12 539 -1 L539 14 Q672 4 696 4 Q726 4 726 29 L726 564 L392 564 L385 594 L726 594 L726 827 L828 815 Q825 792 792 788 L792 594 L837 594 L885 658 ZM451 447 Q610 362 620 251 Q623 211 602 194 Q581 177 554 201 Q550 314 438 440 L451 447 Z" /><glyph glyph-name="uni660E" unicode="&#x660e;" d="M143 728 L143 505 L331 505 L331 728 L143 728 ZM331 242 L331 475 L143 475 L143 242 L331 242 ZM143 213 L143 117 Q143 111 129 103 Q112 93 90 93 L80 93 L80 789 L155 758 L321 758 L358 798 L437 736 Q428 723 394 715 L394 157 Q393 151 375 142 Q356 132 341 132 L331 132 L331 213 L143 213 ZM838 310 L838 516 L579 516 L579 456 Q579 374 571 310 L838 310 ZM579 745 L579 545 L838 545 L838 745 L579 745 ZM945 752 Q932 737 901 732 L901 21 Q901 -25 883 -45 Q859 -70 789 -78 Q782 -41 762 -30 Q736 -13 661 -3 L661 13 Q786 4 810 4 Q838 4 838 28 L838 282 L567 282 Q527 40 315 -79 L301 -67 Q427 28 476 167 Q516 278 516 455 L516 807 L591 774 L828 774 L861 816 L945 752 Z" /><glyph glyph-name="uni6613" unicode="&#x6613;&#xf9e0;" d="M288 475 L720 475 L720 599 L288 599 L288 475 ZM288 749 L288 628 L720 628 L720 749 L288 749 ZM921 310 Q909 298 880 295 Q852 22 771 -41 Q725 -77 656 -75 Q656 -41 636 -28 Q616 -13 533 -1 L533 17 Q671 5 687 5 Q714 5 730 17 Q784 56 815 304 L700 304 Q594 41 291 -83 L281 -67 Q528 61 623 304 L508 304 Q386 114 139 -3 L129 13 Q315 126 430 304 L307 304 Q192 198 63 140 L52 153 Q239 268 339 446 L288 446 L288 419 Q288 414 271 406 Q252 397 233 397 L222 397 L222 810 L293 779 L710 779 L747 818 L828 757 Q815 742 786 736 L786 428 Q785 422 766 414 Q746 406 730 406 L720 406 L720 446 L380 446 L451 428 Q446 411 408 411 Q376 371 339 334 L807 334 L846 374 L921 310 Z" /><glyph glyph-name="uni661F" unicode="&#x661f;" d="M276 749 L276 639 L738 639 L738 749 L276 749 ZM738 497 L738 611 L276 611 L276 497 L738 497 ZM276 438 Q276 433 258 425 Q239 416 220 416 L210 416 L210 811 L282 778 L728 778 L765 819 L848 756 Q836 742 805 736 L805 447 Q804 442 784 434 Q763 425 748 425 L738 425 L738 468 L276 468 L276 438 ZM870 40 Q924 -4 957 -36 Q953 -51 931 -51 L53 -51 L45 -23 L477 -23 L477 129 L194 129 L186 157 L477 157 L477 286 L270 286 Q194 190 103 137 L91 149 Q211 259 280 443 L375 400 Q365 381 336 386 Q315 349 291 314 L477 314 L477 440 L580 428 Q577 405 543 400 L543 314 L758 314 L804 374 Q857 332 889 301 Q885 286 863 286 L543 286 L543 157 L737 157 L783 215 Q835 175 867 144 Q863 129 841 129 L543 129 L543 -23 L821 -23 L870 40 Z" /><glyph glyph-name="uni662F" unicode="&#x662f;" d="M290 754 L290 645 L718 645 L718 754 L290 754 ZM718 505 L718 617 L290 617 L290 505 L718 505 ZM290 443 Q290 438 272 430 Q253 422 234 422 L223 422 L223 816 L295 783 L708 783 L746 824 L828 761 Q818 747 786 741 L786 453 Q785 448 765 440 Q744 431 729 431 L718 431 L718 475 L290 475 L290 443 ZM536 10 Q581 7 635 7 Q886 7 964 9 L964 -6 Q928 -11 926 -54 L632 -54 Q486 -54 412 -17 Q328 25 279 138 Q197 -5 47 -78 L37 -65 Q215 54 267 309 L371 284 Q363 263 333 264 Q316 209 290 159 Q347 46 468 20 L468 358 L55 358 L47 387 L817 387 L866 449 Q921 405 954 374 Q951 358 928 358 L536 358 L536 219 L731 219 L779 281 Q834 237 868 206 Q864 190 841 190 L536 190 L536 10 Z" /><glyph glyph-name="uni663E" unicode="&#x663e;" d="M256 748 L256 629 L738 629 L738 748 L256 748 ZM738 481 L738 600 L256 600 L256 481 L738 481 ZM256 415 Q256 409 239 401 Q221 393 203 393 L192 393 L192 809 L262 778 L728 778 L765 817 L845 756 Q836 741 803 735 L803 427 Q802 421 783 413 Q764 405 748 405 L738 405 L738 451 L256 451 L256 415 ZM676 75 Q749 194 806 363 L905 324 Q895 304 867 308 Q784 153 689 66 L676 75 ZM132 352 Q282 245 297 140 Q302 101 283 86 Q265 71 239 93 Q221 191 118 346 L132 352 ZM868 63 Q926 18 962 -15 Q959 -31 935 -31 L58 -31 L49 -2 L361 -2 L361 421 L457 411 Q454 390 425 386 L425 -2 L572 -2 L572 421 L669 411 Q666 390 636 385 L636 -2 L816 -2 L868 63 Z" /><glyph glyph-name="uni665A" unicode="&#x665a;" d="M138 698 L138 457 L272 457 L272 698 L138 698 ZM272 184 L272 428 L138 428 L138 184 L272 184 ZM138 154 L138 63 Q138 57 124 50 Q107 41 86 41 L77 41 L77 758 L150 726 L262 726 L297 767 L376 705 Q365 693 334 686 L334 110 Q332 104 315 95 Q296 86 281 86 L272 86 L272 154 L138 154 ZM690 533 Q686 401 674 330 L842 330 L842 533 L690 533 ZM609 330 Q619 387 623 533 L477 533 L477 330 L609 330 ZM536 697 Q495 629 452 579 L489 562 L636 562 Q663 608 700 697 L536 697 ZM949 10 Q972 2 972 -18 Q972 -39 945 -48 Q914 -58 831 -58 L757 -58 Q711 -58 696 -45 Q682 -33 682 1 L682 301 L668 301 Q639 171 552 85 Q452 -14 252 -81 L240 -63 Q550 61 603 301 L477 301 L477 263 Q477 257 463 249 Q447 240 427 240 L418 240 L418 542 Q386 510 351 484 L337 495 Q458 632 522 838 L620 802 Q612 782 581 785 Q569 758 552 726 L701 726 L742 769 L818 699 Q810 692 779 689 Q704 599 662 562 L832 562 L869 601 L948 540 Q935 527 905 521 L905 270 Q904 264 886 256 Q867 248 852 248 L842 248 L842 301 L743 301 L743 18 Q743 7 748 4 Q753 1 771 1 L832 1 Q881 1 890 2 Q901 3 905 14 Q914 34 933 144 L946 144 L949 10 Z" /><glyph glyph-name="uni666F" unicode="&#x666f;" d="M282 754 L282 679 L727 679 L727 754 L282 754 ZM727 572 L727 650 L282 650 L282 572 L727 572 ZM282 518 Q282 512 265 505 Q246 497 227 497 L218 497 L218 814 L288 784 L717 784 L754 823 L834 762 Q823 748 792 741 L792 526 Q791 522 772 515 Q752 507 737 507 L727 507 L727 543 L282 543 L282 518 ZM383 94 Q374 79 347 86 Q244 -6 73 -55 L64 -40 Q215 33 299 140 L383 94 ZM305 206 L702 206 L702 321 L305 321 L305 206 ZM532 176 L532 15 Q532 -28 515 -47 Q492 -71 431 -77 Q429 -43 412 -33 Q393 -16 333 -9 L333 6 Q426 -1 446 -1 Q467 -1 467 17 L467 176 L305 176 L305 154 Q305 150 287 143 Q267 135 250 135 L240 135 L240 381 L311 351 L692 351 L728 389 L809 328 Q797 314 767 308 L767 160 Q766 155 747 148 Q727 141 712 141 L702 141 L702 176 L532 176 ZM627 124 Q848 94 897 7 Q915 -24 899 -44 Q883 -63 854 -50 Q782 43 621 108 L627 124 ZM859 508 Q911 469 943 438 Q940 422 917 422 L67 422 L58 452 L503 452 Q495 454 489 457 Q476 502 427 530 L437 539 Q520 538 538 498 Q545 483 538 469 Q532 455 517 452 L814 452 L859 508 Z" /><glyph glyph-name="uni6676" unicode="&#x6676;" d="M314 759 L314 641 L690 641 L690 759 L314 759 ZM690 490 L690 612 L314 612 L314 490 L690 490 ZM314 424 Q314 419 298 411 Q280 403 261 403 L251 403 L251 819 L319 788 L680 788 L716 828 L796 766 Q786 752 754 746 L754 431 Q753 426 735 418 Q715 409 700 409 L690 409 L690 461 L314 461 L314 424 ZM374 29 L374 161 L153 161 L153 29 L374 29 ZM153 318 L153 191 L374 191 L374 318 L153 318 ZM400 387 L480 325 Q468 311 438 305 L438 -47 Q437 -53 418 -61 Q399 -70 383 -70 L374 -70 L374 0 L153 0 L153 -54 Q153 -60 137 -68 Q119 -76 100 -76 L90 -76 L90 378 L158 347 L364 347 L400 387 ZM846 29 L846 161 L616 161 L616 29 L846 29 ZM616 318 L616 191 L846 191 L846 318 L616 318 ZM953 325 Q941 311 910 305 L910 -49 Q909 -54 890 -62 Q870 -70 855 -70 L846 -70 L846 0 L616 0 L616 -54 Q616 -60 599 -68 Q581 -76 562 -76 L552 -76 L552 378 L621 347 L836 347 L871 387 L953 325 Z" /></font>
</defs>
</svg>
